# MagicaVoxel @ Ephtracy

# group
o 

# material
mtllib tile_2_left_nr_corner_90.mtl
usemtl palette

# normals
vn -1 0 0
vn 1 0 0
vn 0 0 1
vn 0 0 -1
vn 0 -1 0
vn 0 1 0

# texcoords
vt 0.939453 0.5
vt 0.943359 0.5
vt 0.947266 0.5
vt 0.970703 0.5
vt 0.974609 0.5
vt 0.978516 0.5
vt 0.982422 0.5
vt 0.986328 0.5
vt 0.994141 0.5

# verts
v -1.3 -0.7 1.3
v -1.3 -0.7 -1.6
v -1.3 -0.6 1.3
v -1.3 -0.6 -1.6
v -1.2 -1.2 1.2
v -1.2 -1.2 -1.6
v -1.2 -1 1.2
v -1.2 -1 -1.6
v -1.2 -0.7 1.2
v -1.2 -0.7 -1.6
v -1.2 -0.6 1.2
v -1.2 -0.6 -1.6
v -1.2 -0.3 0.9
v -1.2 -0.3 0.1
v -1.2 -0.2 0.8
v -1.2 -0.2 0.2
v -1.2 0.3 0.8
v -1.2 0.3 0.2
v -1.2 0.4 0.8
v -1.2 0.4 0.6
v -1.2 0.4 0.4
v -1.2 0.4 0.2
v -1.2 0.6 1.6
v -1.2 0.6 1.2
v -1.2 0.8 1.6
v -1.2 0.8 1.2
v -1.2 0.8 0.8
v -1.2 0.8 0.6
v -1.2 0.8 0.4
v -1.2 0.8 0.2
v -1.2 0.9 0.9
v -1.2 0.9 0.1
v -1.2 1 1.2
v -1.2 1 -1.6
v -1.2 1.2 1.2
v -1.2 1.2 -1.6
v -1.2 1.6 1.2
v -1.2 1.6 -1.6
v -1.2 1.7 1.1
v -1.2 1.7 -1.6
v -1.2 2 1.2
v -1.2 2 1.1
v -1.1 -0.2 0.8
v -1.1 -0.2 0.2
v -1.1 0.3 0.8
v -1.1 0.3 0.2
v -1.1 0.4 0.8
v -1.1 0.4 0.6
v -1.1 0.4 0.4
v -1.1 0.4 0.2
v -1.1 0.8 0.8
v -1.1 0.8 0.6
v -1.1 0.8 0.4
v -1.1 0.8 0.2
v -1.1 1.7 1.1
v -1.1 1.7 -1.6
v -1.1 2 1.1
v -1.1 2 -1.6
v -1 -0.4 1.4
v -1 -0.4 1.2
v -1 0.6 1.4
v -1 0.6 1.2
v -0.4 -0.3 1.4
v -0.4 -0.3 1.3
v -0.4 -0.2 1.3
v -0.4 -0.2 1.2
v -0.4 0.2 1.3
v -0.4 0.2 1.2
v -0.4 0.3 1.4
v -0.4 0.3 1.3
v 0.3 -0.3 1.4
v 0.3 -0.3 1.3
v 0.3 -0.2 1.3
v 0.3 -0.2 1.2
v 0.3 0.2 1.3
v 0.3 0.2 1.2
v 0.3 0.3 1.4
v 0.3 0.3 1.3
v 0.8 -0.2 0.8
v 0.8 -0.2 0.6
v 0.8 0 0.8
v 0.8 0 0.6
v 0.8 0.4 1.3
v 0.8 0.4 1.2
v 0.8 0.6 1.3
v 0.8 0.6 1.2
v 0.8 0.8 1
v 0.8 0.8 0.6
v 0.8 1 1
v 0.8 1 0.6
v 0.9 -0.3 1.4
v 0.9 -0.3 1.3
v 0.9 -0.2 1.3
v 0.9 -0.2 1.2
v 0.9 0.2 1.3
v 0.9 0.2 1.2
v 0.9 0.3 1.4
v 0.9 0.3 1.3
v 0.9 0.4 1.4
v 0.9 0.4 1.3
v 0.9 0.6 1.4
v 0.9 0.6 1.3
v 1 -1 1
v 1 -1 -1
v 1 -0.6 1
v 1 -0.6 -1
v 1 -0.3 0.4
v 1 -0.3 0.1
v 1 -0.3 -0.1
v 1 -0.3 -0.4
v 1 -0.2 0.8
v 1 -0.2 0.6
v 1 0 0.8
v 1 0 0.6
v 1 0.4 0.4
v 1 0.4 0.1
v 1 0.4 -0.1
v 1 0.4 -0.4
v 1 0.5 0.4
v 1 0.5 -0.4
v 1 0.7 0.4
v 1 0.7 -0.4
v 1 0.8 1
v 1 0.8 0.6
v 1 1 1
v 1 1 0.6
v 1 1 -1
v 1 1.2 1
v 1 1.2 -1
v 1 1.4 1
v 1 1.4 -1
v -1.1 1.7 1.2
v -1.1 1.7 1.1
v -1.1 2 1.2
v -1.1 2 1.1
v -1 -1 1
v -1 -1 -0.4
v -1 -1 -0.8
v -1 -1 -1
v -1 -0.6 1
v -1 -0.6 -0.4
v -1 -0.6 -0.8
v -1 -0.6 -1
v -1 -0.2 0.8
v -1 -0.2 0.2
v -1 0 -0.4
v -1 0 -0.8
v -1 0.8 0.8
v -1 0.8 0.2
v -1 1 1
v -1 1 -1
v -1 1.2 1
v -1 1.2 -1
v -1 1.4 1
v -1 1.4 -1
v -0.9 -0.3 1.4
v -0.9 -0.3 1.3
v -0.9 -0.2 1.3
v -0.9 -0.2 1.2
v -0.9 0.2 1.3
v -0.9 0.2 1.2
v -0.9 0.3 1.4
v -0.9 0.3 1.3
v -0.9 0.4 1.4
v -0.9 0.4 1.3
v -0.9 0.6 1.4
v -0.9 0.6 1.3
v -0.8 0.4 1.3
v -0.8 0.4 1.2
v -0.8 0.6 1.3
v -0.8 0.6 1.2
v -0.3 -0.3 1.4
v -0.3 -0.3 1.3
v -0.3 -0.2 1.3
v -0.3 -0.2 1.2
v -0.3 0.2 1.3
v -0.3 0.2 1.2
v -0.3 0.3 1.4
v -0.3 0.3 1.3
v 0.4 -0.3 1.4
v 0.4 -0.3 1.3
v 0.4 -0.2 1.3
v 0.4 -0.2 1.2
v 0.4 0.2 1.3
v 0.4 0.2 1.2
v 0.4 0.3 1.4
v 0.4 0.3 1.3
v 1 -0.4 1.4
v 1 -0.4 1.2
v 1 0.6 1.4
v 1 0.6 1.2
v 1.2 0.6 1.6
v 1.2 0.6 1.2
v 1.2 0.8 1.6
v 1.2 0.8 1.2
v 1.6 -1.2 1.2
v 1.6 -1.2 -1.6
v 1.6 -1 1.2
v 1.6 -1 -1.6
v 1.6 -0.7 1.3
v 1.6 -0.7 1.2
v 1.6 -0.7 -1.6
v 1.6 -0.6 1.3
v 1.6 -0.6 1.2
v 1.6 -0.6 -1.6
v 1.6 1 1.2
v 1.6 1 -1.6
v 1.6 1.2 1.2
v 1.6 1.2 -1.6
v 1.6 1.6 1.2
v 1.6 1.6 1.1
v 1.6 1.6 -1.2
v 1.6 1.6 -1.6
v 1.6 1.7 1.2
v 1.6 1.7 1.1
v 1.6 1.7 -1.2
v 1.6 1.7 -1.6
v 1.6 2 1.1
v 1.6 2 -1.6
v -1.2 0.6 1.6
v -1.2 0.8 1.6
v 1.2 0.6 1.6
v 1.2 0.8 1.6
v -1 -0.4 1.4
v -1 0.6 1.4
v -0.9 -0.3 1.4
v -0.9 0.3 1.4
v -0.9 0.4 1.4
v -0.9 0.6 1.4
v -0.4 -0.3 1.4
v -0.4 0.3 1.4
v -0.3 -0.3 1.4
v -0.3 0.3 1.4
v 0.3 -0.3 1.4
v 0.3 0.3 1.4
v 0.4 -0.3 1.4
v 0.4 0.3 1.4
v 0.9 -0.3 1.4
v 0.9 0.3 1.4
v 0.9 0.4 1.4
v 0.9 0.6 1.4
v 1 -0.4 1.4
v 1 0.6 1.4
v -1.3 -0.7 1.3
v -1.3 -0.6 1.3
v -0.9 -0.3 1.3
v -0.9 -0.2 1.3
v -0.9 0.2 1.3
v -0.9 0.3 1.3
v -0.9 0.4 1.3
v -0.9 0.6 1.3
v -0.8 0.4 1.3
v -0.8 0.6 1.3
v -0.4 -0.3 1.3
v -0.4 -0.2 1.3
v -0.4 0.2 1.3
v -0.4 0.3 1.3
v -0.3 -0.3 1.3
v -0.3 -0.2 1.3
v -0.3 0.2 1.3
v -0.3 0.3 1.3
v 0.3 -0.3 1.3
v 0.3 -0.2 1.3
v 0.3 0.2 1.3
v 0.3 0.3 1.3
v 0.4 -0.3 1.3
v 0.4 -0.2 1.3
v 0.4 0.2 1.3
v 0.4 0.3 1.3
v 0.8 0.4 1.3
v 0.8 0.6 1.3
v 0.9 -0.3 1.3
v 0.9 -0.2 1.3
v 0.9 0.2 1.3
v 0.9 0.3 1.3
v 0.9 0.4 1.3
v 0.9 0.6 1.3
v 1.6 -0.7 1.3
v 1.6 -0.6 1.3
v -1.2 -1.2 1.2
v -1.2 -1 1.2
v -1.2 -0.7 1.2
v -1.2 -0.6 1.2
v -1.2 0.6 1.2
v -1.2 0.8 1.2
v -1.2 1 1.2
v -1.2 1.2 1.2
v -1.2 1.6 1.2
v -1.2 2 1.2
v -1.1 1.7 1.2
v -1.1 2 1.2
v -1 -0.4 1.2
v -1 0.6 1.2
v -0.9 -0.2 1.2
v -0.9 0.2 1.2
v -0.8 0.4 1.2
v -0.8 0.6 1.2
v -0.4 -0.2 1.2
v -0.4 0.2 1.2
v -0.3 -0.2 1.2
v -0.3 0.2 1.2
v 0.3 -0.2 1.2
v 0.3 0.2 1.2
v 0.4 -0.2 1.2
v 0.4 0.2 1.2
v 0.8 0.4 1.2
v 0.8 0.6 1.2
v 0.9 -0.2 1.2
v 0.9 0.2 1.2
v 1 -0.4 1.2
v 1 0.6 1.2
v 1.2 0.6 1.2
v 1.2 0.8 1.2
v 1.6 -1.2 1.2
v 1.6 -1 1.2
v 1.6 -0.7 1.2
v 1.6 -0.6 1.2
v 1.6 1 1.2
v 1.6 1.2 1.2
v 1.6 1.6 1.2
v 1.6 1.7 1.2
v -1.1 1.7 1.1
v -1.1 2 1.1
v 1.6 1.7 1.1
v 1.6 2 1.1
v 0.8 -0.2 0.8
v 0.8 0 0.8
v 1 -0.2 0.8
v 1 0 0.8
v -1.2 0.4 0.6
v -1.2 0.8 0.6
v -1.1 0.4 0.6
v -1.1 0.8 0.6
v -1.2 -0.2 0.2
v -1.2 0.3 0.2
v -1.2 0.4 0.2
v -1.2 0.8 0.2
v -1.1 -0.2 0.2
v -1.1 0.3 0.2
v -1.1 0.4 0.2
v -1.1 0.8 0.2
v -1 -1 -1
v -1 -0.6 -1
v -1 1 -1
v -1 1.2 -1
v -1 1.4 -1
v -0.8 -0.2 -1
v -0.8 0.5 -1
v -0.8 0.6 -1
v -0.8 0.8 -1
v -0.2 -0.2 -1
v -0.2 0.5 -1
v -0.0999999 -0.2 -1
v -0.0999999 0.5 -1
v 0.5 -0.2 -1
v 0.5 0.5 -1
v 0.5 0.6 -1
v 0.5 0.8 -1
v 0.8 1 -1
v 0.8 1.2 -1
v 1 -1 -1
v 1 -0.6 -1
v 1 1 -1
v 1 1.2 -1
v 1 1.4 -1
v -1.2 1.7 1.1
v -1.2 2 1.1
v -1.1 1.7 1.1
v -1.1 2 1.1
v -1 -1 1
v -1 -0.6 1
v -1 1 1
v -1 1.2 1
v -1 1.4 1
v -0.8 -0.2 1
v -0.8 0.2 1
v -0.8 0.4 1
v -0.8 0.6 1
v -0.4 -0.2 1
v -0.4 0.2 1
v -0.2 -0.2 1
v -0.2 0.2 1
v 0.2 -0.2 1
v 0.2 0.2 1
v 0.4 -0.2 1
v 0.4 0.2 1
v 0.8 -0.2 1
v 0.8 0.2 1
v 0.8 0.4 1
v 0.8 0.6 1
v 0.8 0.8 1
v 0.8 1 1
v 1 -1 1
v 1 -0.6 1
v 1 0.8 1
v 1 1 1
v 1 1.2 1
v 1 1.4 1
v -1.2 -0.2 0.8
v -1.2 0.3 0.8
v -1.2 0.4 0.8
v -1.2 0.8 0.8
v -1.1 -0.2 0.8
v -1.1 0.3 0.8
v -1.1 0.4 0.8
v -1.1 0.8 0.8
v 0.8 -0.2 0.6
v 0.8 0 0.6
v 0.8 0.8 0.6
v 0.8 1 0.6
v 1 -0.2 0.6
v 1 0 0.6
v 1 0.8 0.6
v 1 1 0.6
v -1.2 0.4 0.4
v -1.2 0.8 0.4
v -1.1 0.4 0.4
v -1.1 0.8 0.4
v -1.3 -0.7 -1.6
v -1.3 -0.6 -1.6
v -1.2 -1.2 -1.6
v -1.2 -1 -1.6
v -1.2 -0.7 -1.6
v -1.2 -0.6 -1.6
v -1.2 1 -1.6
v -1.2 1.2 -1.6
v -1.2 1.6 -1.6
v -1.2 1.7 -1.6
v -1.1 -1 -1.6
v -1.1 -0.7 -1.6
v -1.1 -0.6 -1.6
v -1.1 1 -1.6
v -1.1 1.7 -1.6
v -1.1 2 -1.6
v 1.1 -1 -1.6
v 1.1 -0.7 -1.6
v 1.1 -0.6 -1.6
v 1.1 1 -1.6
v 1.2 -0.7 -1.6
v 1.2 -0.6 -1.6
v 1.6 -1.2 -1.6
v 1.6 -1 -1.6
v 1.6 -0.7 -1.6
v 1.6 -0.6 -1.6
v 1.6 1 -1.6
v 1.6 1.2 -1.6
v 1.6 1.6 -1.6
v 1.6 1.7 -1.6
v 1.6 2 -1.6
v -1.2 -1.2 1.2
v 1.6 -1.2 1.2
v -1.1 -1.2 -1.2
v 0.8 -1.2 -1.2
v 1 -1.2 -1.2
v 1.1 -1.2 -1.2
v 0.8 -1.2 -1.4
v 1 -1.2 -1.4
v -1.1 -1.2 -1.5
v 1.1 -1.2 -1.5
v -1.2 -1.2 -1.6
v 1.6 -1.2 -1.6
v -1.3 -0.7 1.3
v 1.6 -0.7 1.3
v -1.2 -0.7 1.2
v 1.6 -0.7 1.2
v -1.3 -0.7 -1.6
v -1.2 -0.7 -1.6
v -1 -0.4 1.4
v 1 -0.4 1.4
v -1 -0.4 1.2
v 1 -0.4 1.2
v 0.8 -0.2 0.8
v 1 -0.2 0.8
v 0.8 -0.2 0.6
v 1 -0.2 0.6
v -0.9 0.2 1.3
v -0.4 0.2 1.3
v -0.3 0.2 1.3
v 0.3 0.2 1.3
v 0.4 0.2 1.3
v 0.9 0.2 1.3
v -0.9 0.2 1.2
v -0.4 0.2 1.2
v -0.3 0.2 1.2
v 0.3 0.2 1.2
v 0.4 0.2 1.2
v 0.9 0.2 1.2
v -0.9 0.3 1.4
v -0.4 0.3 1.4
v -0.3 0.3 1.4
v 0.3 0.3 1.4
v 0.4 0.3 1.4
v 0.9 0.3 1.4
v -0.9 0.3 1.3
v -0.4 0.3 1.3
v -0.3 0.3 1.3
v 0.3 0.3 1.3
v 0.4 0.3 1.3
v 0.9 0.3 1.3
v -1.2 0.3 0.8
v -1.1 0.3 0.8
v -1.2 0.3 0.2
v -1.1 0.3 0.2
v -1.2 0.6 1.6
v 1.2 0.6 1.6
v -1 0.6 1.4
v -0.9 0.6 1.4
v 0.9 0.6 1.4
v 1 0.6 1.4
v -0.9 0.6 1.3
v -0.8 0.6 1.3
v 0.8 0.6 1.3
v 0.9 0.6 1.3
v -1.2 0.6 1.2
v -1 0.6 1.2
v -0.8 0.6 1.2
v 0.8 0.6 1.2
v 1 0.6 1.2
v 1.2 0.6 1.2
v 0.8 0.8 1
v 1 0.8 1
v -1.2 0.8 0.8
v -1.1 0.8 0.8
v -1.2 0.8 0.6
v -1.1 0.8 0.6
v 0.8 0.8 0.6
v 1 0.8 0.6
v -1.2 0.8 0.4
v -1.1 0.8 0.4
v -1.2 0.8 0.2
v -1.1 0.8 0.2
v -1 1.4 1
v 1 1.4 1
v -1 1.4 -1
v 1 1.4 -1
v -1 -1 1
v 1 -1 1
v -1 -1 -0.4
v -1 -1 -0.8
v -1 -1 -1
v 1 -1 -1
v -1.3 -0.6 1.3
v 1.6 -0.6 1.3
v -1.2 -0.6 1.2
v 1.6 -0.6 1.2
v -1.3 -0.6 -1.6
v -1.2 -0.6 -1.6
v -0.9 -0.3 1.4
v -0.4 -0.3 1.4
v -0.3 -0.3 1.4
v 0.3 -0.3 1.4
v 0.4 -0.3 1.4
v 0.9 -0.3 1.4
v -0.9 -0.3 1.3
v -0.4 -0.3 1.3
v -0.3 -0.3 1.3
v 0.3 -0.3 1.3
v 0.4 -0.3 1.3
v 0.9 -0.3 1.3
v -0.9 -0.2 1.3
v -0.4 -0.2 1.3
v -0.3 -0.2 1.3
v 0.3 -0.2 1.3
v 0.4 -0.2 1.3
v 0.9 -0.2 1.3
v -0.9 -0.2 1.2
v -0.4 -0.2 1.2
v -0.3 -0.2 1.2
v 0.3 -0.2 1.2
v 0.4 -0.2 1.2
v 0.9 -0.2 1.2
v -1.2 -0.2 0.8
v -1.1 -0.2 0.8
v -1.2 -0.2 0.2
v -1.1 -0.2 0.2
v 0.8 0 0.8
v 1 0 0.8
v 0.8 0 0.6
v 1 0 0.6
v -0.9 0.4 1.4
v 0.9 0.4 1.4
v -0.9 0.4 1.3
v -0.8 0.4 1.3
v 0.8 0.4 1.3
v 0.9 0.4 1.3
v -0.8 0.4 1.2
v 0.8 0.4 1.2
v -1.2 0.4 0.8
v -1.1 0.4 0.8
v -1.2 0.4 0.6
v -1.1 0.4 0.6
v -1.2 0.4 0.4
v -1.1 0.4 0.4
v -1.2 0.4 0.2
v -1.1 0.4 0.2
v -1.2 0.8 1.6
v 1.2 0.8 1.6
v -1.2 0.8 1.2
v 1.2 0.8 1.2
v 0.8 1 1
v 1 1 1
v 0.8 1 0.6
v 1 1 0.6
v -1.1 1.7 1.2
v 1.6 1.7 1.2
v -1.2 1.7 1.1
v -1.1 1.7 1.1
v 1.6 1.7 1.1
v -1.2 1.7 -1.6
v -1.1 1.7 -1.6
v -1.2 2 1.2
v -1.1 2 1.2
v -1.2 2 1.1
v -1.1 2 1.1
v 1.6 2 1.1
v -1.1 2 -1.6
v 1.6 2 -1.6

# faces
f 3/5/1 2/5/1 1/5/1
f 4/5/1 2/5/1 3/5/1
f 7/8/1 6/8/1 5/8/1
f 8/8/1 6/8/1 7/8/1
f 9/2/1 8/2/1 7/2/1
f 10/2/1 8/2/1 9/2/1
f 13/4/1 12/4/1 11/4/1
f 14/4/1 12/4/1 13/4/1
f 15/6/1 14/6/1 13/6/1
f 16/6/1 14/6/1 15/6/1
f 17/6/1 15/6/1 13/6/1
f 18/6/1 14/6/1 16/6/1
f 19/6/1 17/6/1 13/6/1
f 19/6/1 18/6/1 17/6/1
f 20/6/1 18/6/1 19/6/1
f 21/6/1 18/6/1 20/6/1
f 22/6/1 14/6/1 18/6/1
f 22/6/1 18/6/1 21/6/1
f 24/4/1 13/4/1 11/4/1
f 25/3/1 24/3/1 23/3/1
f 26/4/1 13/4/1 24/4/1
f 26/3/1 24/3/1 25/3/1
f 27/6/1 19/6/1 13/6/1
f 28/6/1 21/6/1 20/6/1
f 29/6/1 21/6/1 28/6/1
f 30/6/1 14/6/1 22/6/1
f 31/6/1 29/6/1 28/6/1
f 31/6/1 30/6/1 29/6/1
f 31/6/1 27/6/1 13/6/1
f 31/4/1 13/4/1 26/4/1
f 31/6/1 28/6/1 27/6/1
f 32/6/1 14/6/1 30/6/1
f 32/6/1 30/6/1 31/6/1
f 32/4/1 12/4/1 14/4/1
f 33/4/1 31/4/1 26/4/1
f 33/4/1 32/4/1 31/4/1
f 34/4/1 12/4/1 32/4/1
f 34/4/1 32/4/1 33/4/1
f 35/1/1 34/1/1 33/1/1
f 36/1/1 34/1/1 35/1/1
f 37/6/1 36/6/1 35/6/1
f 38/6/1 36/6/1 37/6/1
f 39/5/1 38/5/1 37/5/1
f 40/5/1 38/5/1 39/5/1
f 41/5/1 39/5/1 37/5/1
f 42/5/1 39/5/1 41/5/1
f 45/7/1 44/7/1 43/7/1
f 46/7/1 44/7/1 45/7/1
f 51/7/1 48/7/1 47/7/1
f 52/7/1 48/7/1 51/7/1
f 53/7/1 50/7/1 49/7/1
f 54/7/1 50/7/1 53/7/1
f 57/8/1 56/8/1 55/8/1
f 58/8/1 56/8/1 57/8/1
f 61/6/1 60/6/1 59/6/1
f 62/6/1 60/6/1 61/6/1
f 65/6/1 64/6/1 63/6/1
f 67/6/1 65/6/1 63/6/1
f 67/6/1 66/6/1 65/6/1
f 68/6/1 66/6/1 67/6/1
f 69/6/1 67/6/1 63/6/1
f 70/6/1 67/6/1 69/6/1
f 73/6/1 72/6/1 71/6/1
f 75/6/1 73/6/1 71/6/1
f 75/6/1 74/6/1 73/6/1
f 76/6/1 74/6/1 75/6/1
f 77/6/1 75/6/1 71/6/1
f 78/6/1 75/6/1 77/6/1
f 81/7/1 80/7/1 79/7/1
f 82/7/1 80/7/1 81/7/1
f 85/6/1 84/6/1 83/6/1
f 86/6/1 84/6/1 85/6/1
f 89/4/1 88/4/1 87/4/1
f 90/4/1 88/4/1 89/4/1
f 93/6/1 92/6/1 91/6/1
f 95/6/1 93/6/1 91/6/1
f 95/6/1 94/6/1 93/6/1
f 96/6/1 94/6/1 95/6/1
f 97/6/1 95/6/1 91/6/1
f 98/6/1 95/6/1 97/6/1
f 101/6/1 100/6/1 99/6/1
f 102/6/1 100/6/1 101/6/1
f 105/2/1 104/2/1 103/2/1
f 106/2/1 104/2/1 105/2/1
f 107/4/1 106/4/1 105/4/1
f 108/4/1 106/4/1 107/4/1
f 109/4/1 106/4/1 108/4/1
f 110/4/1 106/4/1 109/4/1
f 111/4/1 107/4/1 105/4/1
f 112/4/1 107/4/1 111/4/1
f 113/4/1 111/4/1 105/4/1
f 114/4/1 107/4/1 112/4/1
f 115/7/1 108/7/1 107/7/1
f 115/4/1 114/4/1 113/4/1
f 115/4/1 107/4/1 114/4/1
f 116/4/1 109/4/1 108/4/1
f 116/7/1 108/7/1 115/7/1
f 117/7/1 110/7/1 109/7/1
f 117/4/1 109/4/1 116/4/1
f 118/4/1 106/4/1 110/4/1
f 118/7/1 110/7/1 117/7/1
f 119/4/1 117/4/1 116/4/1
f 119/4/1 115/4/1 113/4/1
f 119/4/1 118/4/1 117/4/1
f 119/4/1 116/4/1 115/4/1
f 120/4/1 106/4/1 118/4/1
f 120/4/1 118/4/1 119/4/1
f 121/4/1 119/4/1 113/4/1
f 121/7/1 120/7/1 119/7/1
f 122/4/1 106/4/1 120/4/1
f 122/7/1 120/7/1 121/7/1
f 123/4/1 121/4/1 113/4/1
f 123/4/1 113/4/1 105/4/1
f 123/4/1 122/4/1 121/4/1
f 124/4/1 122/4/1 123/4/1
f 126/4/1 122/4/1 124/4/1
f 127/4/1 106/4/1 122/4/1
f 127/4/1 122/4/1 126/4/1
f 128/1/1 126/1/1 125/1/1
f 128/1/1 127/1/1 126/1/1
f 129/1/1 127/1/1 128/1/1
f 130/6/1 129/6/1 128/6/1
f 131/6/1 129/6/1 130/6/1
f 132/5/2 133/5/2 134/5/2
f 134/5/2 133/5/2 135/5/2
f 136/2/2 137/2/2 140/2/2
f 137/8/2 138/8/2 141/8/2
f 140/2/2 137/2/2 141/2/2
f 138/2/2 139/2/2 142/2/2
f 141/8/2 138/8/2 142/8/2
f 142/2/2 139/2/2 143/2/2
f 140/4/2 141/4/2 144/4/2
f 144/4/2 141/4/2 145/4/2
f 141/8/2 142/8/2 146/8/2
f 145/4/2 141/4/2 146/4/2
f 142/4/2 143/4/2 147/4/2
f 146/8/2 142/8/2 147/8/2
f 144/7/2 145/7/2 148/7/2
f 140/4/2 144/4/2 148/4/2
f 145/4/2 146/4/2 149/4/2
f 148/7/2 145/7/2 149/7/2
f 146/4/2 147/4/2 149/4/2
f 140/4/2 148/4/2 150/4/2
f 148/4/2 149/4/2 150/4/2
f 147/4/2 143/4/2 151/4/2
f 150/4/2 149/4/2 151/4/2
f 149/4/2 147/4/2 151/4/2
f 150/1/2 151/1/2 152/1/2
f 152/1/2 151/1/2 153/1/2
f 152/6/2 153/6/2 154/6/2
f 154/6/2 153/6/2 155/6/2
f 156/6/2 157/6/2 158/6/2
f 156/6/2 158/6/2 160/6/2
f 158/6/2 159/6/2 160/6/2
f 160/6/2 159/6/2 161/6/2
f 156/6/2 160/6/2 162/6/2
f 162/6/2 160/6/2 163/6/2
f 164/6/2 165/6/2 166/6/2
f 166/6/2 165/6/2 167/6/2
f 168/6/2 169/6/2 170/6/2
f 170/6/2 169/6/2 171/6/2
f 172/6/2 173/6/2 174/6/2
f 172/6/2 174/6/2 176/6/2
f 174/6/2 175/6/2 176/6/2
f 176/6/2 175/6/2 177/6/2
f 172/6/2 176/6/2 178/6/2
f 178/6/2 176/6/2 179/6/2
f 180/6/2 181/6/2 182/6/2
f 180/6/2 182/6/2 184/6/2
f 182/6/2 183/6/2 184/6/2
f 184/6/2 183/6/2 185/6/2
f 180/6/2 184/6/2 186/6/2
f 186/6/2 184/6/2 187/6/2
f 188/6/2 189/6/2 190/6/2
f 190/6/2 189/6/2 191/6/2
f 192/3/2 193/3/2 194/3/2
f 194/3/2 193/3/2 195/3/2
f 196/8/2 197/8/2 198/8/2
f 198/8/2 197/8/2 199/8/2
f 198/2/2 199/2/2 201/2/2
f 201/2/2 199/2/2 202/2/2
f 200/5/2 201/5/2 203/5/2
f 201/5/2 202/5/2 203/5/2
f 203/5/2 202/5/2 204/5/2
f 204/5/2 202/5/2 205/5/2
f 204/4/2 205/4/2 206/4/2
f 206/4/2 205/4/2 207/4/2
f 206/1/2 207/1/2 208/1/2
f 208/1/2 207/1/2 209/1/2
f 208/6/2 209/6/2 210/6/2
f 210/6/2 209/6/2 211/6/2
f 211/6/2 209/6/2 212/6/2
f 212/6/2 209/6/2 213/6/2
f 210/5/2 211/5/2 214/5/2
f 211/6/2 212/6/2 215/6/2
f 214/5/2 211/5/2 215/5/2
f 212/5/2 213/5/2 216/5/2
f 215/6/2 212/6/2 216/6/2
f 216/5/2 213/5/2 217/5/2
f 215/8/2 216/8/2 218/8/2
f 216/8/2 217/8/2 218/8/2
f 218/8/2 217/8/2 219/8/2
f 222/3/3 221/3/3 220/3/3
f 223/3/3 221/3/3 222/3/3
f 226/6/3 225/6/3 224/6/3
f 227/6/3 225/6/3 226/6/3
f 228/6/3 225/6/3 227/6/3
f 229/6/3 225/6/3 228/6/3
f 230/6/3 226/6/3 224/6/3
f 231/6/3 228/6/3 227/6/3
f 232/6/3 230/6/3 224/6/3
f 232/6/3 231/6/3 230/6/3
f 233/6/3 228/6/3 231/6/3
f 233/6/3 231/6/3 232/6/3
f 234/6/3 232/6/3 224/6/3
f 235/6/3 228/6/3 233/6/3
f 236/6/3 234/6/3 224/6/3
f 236/6/3 235/6/3 234/6/3
f 237/6/3 228/6/3 235/6/3
f 237/6/3 235/6/3 236/6/3
f 238/6/3 236/6/3 224/6/3
f 239/6/3 228/6/3 237/6/3
f 240/6/3 228/6/3 239/6/3
f 242/6/3 238/6/3 224/6/3
f 242/6/3 241/6/3 240/6/3
f 242/6/3 240/6/3 239/6/3
f 242/6/3 239/6/3 238/6/3
f 243/6/3 241/6/3 242/6/3
f 252/6/3 251/6/3 250/6/3
f 253/6/3 251/6/3 252/6/3
f 254/4/3 247/4/3 246/4/3
f 255/4/3 247/4/3 254/4/3
f 256/4/3 249/4/3 248/4/3
f 257/4/3 249/4/3 256/4/3
f 262/4/3 259/4/3 258/4/3
f 263/4/3 259/4/3 262/4/3
f 264/4/3 261/4/3 260/4/3
f 265/4/3 261/4/3 264/4/3
f 272/4/3 267/4/3 266/4/3
f 273/4/3 267/4/3 272/4/3
f 274/4/3 269/4/3 268/4/3
f 275/4/3 269/4/3 274/4/3
f 276/6/3 271/6/3 270/6/3
f 277/6/3 271/6/3 276/6/3
f 278/5/3 245/5/3 244/5/3
f 279/5/3 245/5/3 278/5/3
f 290/5/3 289/5/3 288/5/3
f 291/5/3 289/5/3 290/5/3
f 292/4/3 284/4/3 283/4/3
f 293/4/3 284/4/3 292/4/3
f 298/7/3 295/7/3 294/7/3
f 299/7/3 295/7/3 298/7/3
f 302/7/3 301/7/3 300/7/3
f 303/7/3 301/7/3 302/7/3
f 306/7/3 297/7/3 296/7/3
f 307/7/3 297/7/3 306/7/3
f 308/7/3 305/7/3 304/7/3
f 309/7/3 305/7/3 308/7/3
f 310/4/3 292/4/3 283/4/3
f 312/4/3 311/4/3 310/4/3
f 313/4/3 286/4/3 285/4/3
f 314/8/3 281/8/3 280/8/3
f 315/2/3 282/2/3 281/2/3
f 315/8/3 281/8/3 314/8/3
f 316/2/3 282/2/3 315/2/3
f 317/4/3 313/4/3 312/4/3
f 317/4/3 312/4/3 310/4/3
f 317/4/3 310/4/3 283/4/3
f 318/1/3 287/1/3 286/1/3
f 318/4/3 313/4/3 317/4/3
f 318/4/3 286/4/3 313/4/3
f 319/6/3 288/6/3 287/6/3
f 319/1/3 287/1/3 318/1/3
f 320/5/3 290/5/3 288/5/3
f 320/6/3 288/6/3 319/6/3
f 321/5/3 290/5/3 320/5/3
f 324/8/3 323/8/3 322/8/3
f 325/8/3 323/8/3 324/8/3
f 328/7/3 327/7/3 326/7/3
f 329/7/3 327/7/3 328/7/3
f 332/6/3 331/6/3 330/6/3
f 333/6/3 331/6/3 332/6/3
f 338/6/3 335/6/3 334/6/3
f 339/6/3 335/6/3 338/6/3
f 340/6/3 337/6/3 336/6/3
f 341/6/3 337/6/3 340/6/3
f 347/4/3 344/4/3 343/4/3
f 348/4/3 344/4/3 347/4/3
f 349/4/3 344/4/3 348/4/3
f 350/4/3 344/4/3 349/4/3
f 351/4/3 347/4/3 343/4/3
f 351/7/3 348/7/3 347/7/3
f 352/4/3 349/4/3 348/4/3
f 352/7/3 348/7/3 351/7/3
f 353/4/3 351/4/3 343/4/3
f 353/4/3 352/4/3 351/4/3
f 354/4/3 349/4/3 352/4/3
f 354/4/3 352/4/3 353/4/3
f 355/4/3 353/4/3 343/4/3
f 355/7/3 354/7/3 353/7/3
f 356/4/3 349/4/3 354/4/3
f 356/7/3 354/7/3 355/7/3
f 357/7/3 350/7/3 349/7/3
f 357/4/3 349/4/3 356/4/3
f 358/4/3 344/4/3 350/4/3
f 358/7/3 350/7/3 357/7/3
f 359/1/3 345/1/3 344/1/3
f 359/4/3 344/4/3 358/4/3
f 359/4/3 358/4/3 357/4/3
f 359/4/3 357/4/3 356/4/3
f 359/4/3 356/4/3 355/4/3
f 360/6/3 346/6/3 345/6/3
f 360/1/3 345/1/3 359/1/3
f 361/2/3 343/2/3 342/2/3
f 362/4/3 359/4/3 355/4/3
f 362/2/3 343/2/3 361/2/3
f 362/4/3 355/4/3 343/4/3
f 362/4/3 360/4/3 359/4/3
f 363/4/3 360/4/3 362/4/3
f 364/6/3 346/6/3 360/6/3
f 364/4/3 360/4/3 363/4/3
f 365/6/3 346/6/3 364/6/3
f 366/5/4 367/5/4 368/5/4
f 368/5/4 367/5/4 369/5/4
f 371/4/4 372/4/4 375/4/4
f 375/4/4 372/4/4 376/4/4
f 376/4/4 372/4/4 377/4/4
f 377/4/4 372/4/4 378/4/4
f 371/4/4 375/4/4 379/4/4
f 375/7/4 376/7/4 379/7/4
f 376/4/4 377/4/4 380/4/4
f 379/7/4 376/7/4 380/7/4
f 371/4/4 379/4/4 381/4/4
f 379/4/4 380/4/4 381/4/4
f 380/4/4 377/4/4 382/4/4
f 381/4/4 380/4/4 382/4/4
f 371/4/4 381/4/4 383/4/4
f 381/7/4 382/7/4 383/7/4
f 382/4/4 377/4/4 384/4/4
f 383/7/4 382/7/4 384/7/4
f 371/4/4 383/4/4 385/4/4
f 383/4/4 384/4/4 385/4/4
f 384/4/4 377/4/4 386/4/4
f 385/4/4 384/4/4 386/4/4
f 371/4/4 385/4/4 387/4/4
f 385/7/4 386/7/4 387/7/4
f 386/4/4 377/4/4 388/4/4
f 387/7/4 386/7/4 388/7/4
f 377/7/4 378/7/4 389/7/4
f 388/4/4 377/4/4 389/4/4
f 378/4/4 372/4/4 390/4/4
f 389/7/4 378/7/4 390/7/4
f 390/4/4 372/4/4 391/4/4
f 372/1/4 373/1/4 392/1/4
f 391/4/4 372/4/4 392/4/4
f 370/2/4 371/2/4 393/2/4
f 390/4/4 391/4/4 394/4/4
f 393/2/4 371/2/4 394/2/4
f 388/4/4 389/4/4 394/4/4
f 389/4/4 390/4/4 394/4/4
f 371/4/4 387/4/4 394/4/4
f 387/4/4 388/4/4 394/4/4
f 394/4/4 391/4/4 395/4/4
f 392/1/4 373/1/4 396/1/4
f 373/6/4 374/6/4 397/6/4
f 396/1/4 373/1/4 397/1/4
f 397/6/4 374/6/4 398/6/4
f 399/6/4 400/6/4 403/6/4
f 403/6/4 400/6/4 404/6/4
f 401/6/4 402/6/4 405/6/4
f 405/6/4 402/6/4 406/6/4
f 407/7/4 408/7/4 411/7/4
f 411/7/4 408/7/4 412/7/4
f 409/4/4 410/4/4 413/4/4
f 413/4/4 410/4/4 414/4/4
f 415/6/4 416/6/4 417/6/4
f 417/6/4 416/6/4 418/6/4
f 419/5/4 420/5/4 423/5/4
f 423/5/4 420/5/4 424/5/4
f 421/8/4 422/8/4 429/8/4
f 422/2/4 423/2/4 429/2/4
f 423/6/4 424/6/4 430/6/4
f 429/2/4 423/2/4 430/2/4
f 424/4/4 425/4/4 431/4/4
f 430/6/4 424/6/4 431/6/4
f 425/1/4 426/1/4 432/1/4
f 431/4/4 425/4/4 432/4/4
f 427/5/4 428/5/4 433/5/4
f 421/8/4 429/8/4 435/8/4
f 429/6/4 430/6/4 435/6/4
f 430/6/4 431/6/4 435/6/4
f 431/6/4 432/6/4 435/6/4
f 435/6/4 432/6/4 436/6/4
f 436/6/4 432/6/4 437/6/4
f 432/1/4 426/1/4 438/1/4
f 437/6/4 432/6/4 438/6/4
f 436/6/4 437/6/4 439/6/4
f 435/2/4 436/2/4 439/2/4
f 437/4/4 438/4/4 440/4/4
f 439/6/4 437/6/4 440/6/4
f 421/8/4 435/8/4 441/8/4
f 435/2/4 439/2/4 442/2/4
f 441/8/4 435/8/4 442/8/4
f 439/5/4 440/5/4 443/5/4
f 442/2/4 439/2/4 443/2/4
f 440/4/4 438/4/4 444/4/4
f 443/5/4 440/5/4 444/5/4
f 438/1/4 426/1/4 445/1/4
f 444/4/4 438/4/4 445/4/4
f 426/6/4 427/6/4 446/6/4
f 445/1/4 426/1/4 446/1/4
f 427/5/4 433/5/4 447/5/4
f 446/6/4 427/6/4 447/6/4
f 433/8/4 434/8/4 448/8/4
f 447/5/4 433/5/4 448/5/4
f 448/8/4 434/8/4 449/8/4
f 452/8/5 451/8/5 450/8/5
f 453/8/5 451/8/5 452/8/5
f 454/8/5 451/8/5 453/8/5
f 455/8/5 451/8/5 454/8/5
f 456/6/5 453/6/5 452/6/5
f 456/3/5 454/3/5 453/3/5
f 457/6/5 455/6/5 454/6/5
f 457/3/5 454/3/5 456/3/5
f 458/8/5 452/8/5 450/8/5
f 458/6/5 456/6/5 452/6/5
f 458/6/5 457/6/5 456/6/5
f 459/6/5 455/6/5 457/6/5
f 459/6/5 457/6/5 458/6/5
f 459/8/5 451/8/5 455/8/5
f 460/8/5 458/8/5 450/8/5
f 460/8/5 459/8/5 458/8/5
f 461/8/5 451/8/5 459/8/5
f 461/8/5 459/8/5 460/8/5
f 464/5/5 463/5/5 462/5/5
f 465/5/5 463/5/5 464/5/5
f 466/5/5 464/5/5 462/5/5
f 467/5/5 464/5/5 466/5/5
f 470/6/5 469/6/5 468/6/5
f 471/6/5 469/6/5 470/6/5
f 474/7/5 473/7/5 472/7/5
f 475/7/5 473/7/5 474/7/5
f 482/4/5 477/4/5 476/4/5
f 483/4/5 477/4/5 482/4/5
f 484/4/5 479/4/5 478/4/5
f 485/4/5 479/4/5 484/4/5
f 486/4/5 481/4/5 480/4/5
f 487/4/5 481/4/5 486/4/5
f 494/6/5 489/6/5 488/6/5
f 495/6/5 489/6/5 494/6/5
f 496/6/5 491/6/5 490/6/5
f 497/6/5 491/6/5 496/6/5
f 498/6/5 493/6/5 492/6/5
f 499/6/5 493/6/5 498/6/5
f 502/6/5 501/6/5 500/6/5
f 503/6/5 501/6/5 502/6/5
f 506/3/5 505/3/5 504/3/5
f 507/3/5 505/3/5 506/3/5
f 508/3/5 505/3/5 507/3/5
f 509/3/5 505/3/5 508/3/5
f 510/3/5 508/3/5 507/3/5
f 511/3/5 508/3/5 510/3/5
f 512/3/5 508/3/5 511/3/5
f 513/3/5 508/3/5 512/3/5
f 514/3/5 506/3/5 504/3/5
f 515/3/5 506/3/5 514/3/5
f 516/3/5 512/3/5 511/3/5
f 517/3/5 512/3/5 516/3/5
f 518/3/5 505/3/5 509/3/5
f 519/3/5 505/3/5 518/3/5
f 524/6/5 523/6/5 522/6/5
f 525/6/5 523/6/5 524/6/5
f 526/4/5 521/4/5 520/4/5
f 527/4/5 521/4/5 526/4/5
f 530/6/5 529/6/5 528/6/5
f 531/6/5 529/6/5 530/6/5
f 534/6/5 533/6/5 532/6/5
f 535/6/5 533/6/5 534/6/5
f 536/8/6 537/8/6 538/8/6
f 538/8/6 537/8/6 539/8/6
f 539/8/6 537/8/6 540/8/6
f 540/8/6 537/8/6 541/8/6
f 542/5/6 543/5/6 544/5/6
f 544/5/6 543/5/6 545/5/6
f 542/5/6 544/5/6 546/5/6
f 546/5/6 544/5/6 547/5/6
f 548/6/6 549/6/6 554/6/6
f 554/6/6 549/6/6 555/6/6
f 550/6/6 551/6/6 556/6/6
f 556/6/6 551/6/6 557/6/6
f 552/6/6 553/6/6 558/6/6
f 558/6/6 553/6/6 559/6/6
f 560/4/6 561/4/6 566/4/6
f 566/4/6 561/4/6 567/4/6
f 562/4/6 563/4/6 568/4/6
f 568/4/6 563/4/6 569/4/6
f 564/4/6 565/4/6 570/4/6
f 570/4/6 565/4/6 571/4/6
f 572/6/6 573/6/6 574/6/6
f 574/6/6 573/6/6 575/6/6
f 576/7/6 577/7/6 578/7/6
f 578/7/6 577/7/6 579/7/6
f 580/6/6 581/6/6 582/6/6
f 582/6/6 581/6/6 583/6/6
f 583/6/6 581/6/6 584/6/6
f 584/6/6 581/6/6 585/6/6
f 583/4/6 584/4/6 586/4/6
f 586/4/6 584/4/6 587/4/6
f 588/6/6 589/6/6 590/6/6
f 590/6/6 589/6/6 591/6/6
f 592/6/6 593/6/6 594/6/6
f 594/6/6 593/6/6 595/6/6
f 596/3/6 597/3/6 598/3/6
f 598/3/6 597/3/6 599/3/6
f 600/4/6 601/4/6 602/4/6
f 602/4/6 601/4/6 603/4/6
f 604/5/6 605/5/6 607/5/6
f 607/5/6 605/5/6 608/5/6
f 606/5/6 607/5/6 609/5/6
f 609/5/6 607/5/6 610/5/6
f 611/5/6 612/5/6 613/5/6
f 613/5/6 612/5/6 614/5/6
f 614/8/6 615/8/6 616/8/6
f 616/8/6 615/8/6 617/8/6
