# MagicaVoxel @ Ephtracy

# group
o 

# material
mtllib tile_1_middle_nr.mtl
usemtl palette

# normals
vn -1 0 0
vn 1 0 0
vn 0 0 1
vn 0 0 -1
vn 0 -1 0
vn 0 1 0

# texcoords
vt 0.939453 0.5
vt 0.943359 0.5
vt 0.947266 0.5
vt 0.970703 0.5
vt 0.974609 0.5
vt 0.978516 0.5
vt 0.982422 0.5
vt 0.986328 0.5
vt 0.994141 0.5

# verts
v -1.6 -1.2 1.4
v -1.6 -1.2 1.1
v -1.6 -1.2 -1.2
v -1.6 -1.2 -1.4
v -1.6 -1.1 1.4
v -1.6 -1.1 1.2
v -1.6 -1 1.2
v -1.6 -1 1.1
v -1.6 -1 -1.1
v -1.6 -1 -1.2
v -1.6 -1 -1.4
v -1.6 -0.7 1.3
v -1.6 -0.7 1.2
v -1.6 -0.7 1.1
v -1.6 -0.7 -1.1
v -1.6 -0.7 -1.2
v -1.6 -0.7 -1.3
v -1.6 -0.6 1.3
v -1.6 -0.6 1.2
v -1.6 -0.6 -1.2
v -1.6 -0.6 -1.3
v -1.6 1 1.2
v -1.6 1 -1.2
v -1.6 1.2 1.2
v -1.6 1.2 -1.2
v -1.6 1.6 1.3
v -1.6 1.6 1.2
v -1.6 1.6 -1.2
v -1.6 1.6 -1.3
v -1.6 2 1.3
v -1.6 2 1.2
v -1.6 2 -1.2
v -1.6 2 -1.3
v -1.2 0.6 -1.2
v -1.2 0.6 -1.6
v -1.2 0.8 -1.2
v -1.2 0.8 -1.6
v -1 -0.4 -1.2
v -1 -0.4 -1.4
v -1 0.6 -1.2
v -1 0.6 -1.4
v -0.8 -0.2 -0.8
v -0.8 -0.2 -1
v -0.8 0 -0.8
v -0.8 0 -1
v -0.8 0.4 1.2
v -0.8 0.4 1.1
v -0.8 0.8 1.2
v -0.8 0.8 1.1
v -0.5 -0.3 -1.2
v -0.5 -0.3 -1.3
v -0.5 0.2 -1.2
v -0.5 0.2 -1.3
v -0.4 -0.2 1.2
v -0.4 -0.2 1.1
v -0.4 0.3 1.2
v -0.4 0.3 1.1
v -0.4 0.4 1.2
v -0.4 0.4 1.1
v -0.4 0.8 1.2
v -0.4 0.8 1.1
v 0.4 -0.3 -1.2
v 0.4 -0.3 -1.3
v 0.4 0.2 -1.2
v 0.4 0.2 -1.3
v 0.6 0.4 1.2
v 0.6 0.4 1.1
v 0.6 0.8 1.2
v 0.6 0.8 1.1
v 0.9 -0.3 -1.2
v 0.9 -0.3 -1.4
v 0.9 0.2 -1.2
v 0.9 0.2 -1.4
v 0.9 0.3 -1.2
v 0.9 0.3 -1.4
v 0.9 0.6 -1.2
v 0.9 0.6 -1.4
v 1 -1 1
v 1 -1 -1
v 1 -0.6 1
v 1 -0.6 -1
v 1 -0.2 1.2
v 1 -0.2 1.1
v 1 -0.2 1
v 1 0.3 1.2
v 1 0.3 1.1
v 1 0.3 1
v 1 0.4 1.2
v 1 0.4 1.1
v 1 0.4 1
v 1 0.8 1.2
v 1 0.8 1.1
v 1 0.8 1
v 1 1 1
v 1 1 -0.8
v 1 1 -1
v 1 1.2 1
v 1 1.2 -0.8
v 1 1.2 -1
v 1 1.4 1
v 1 1.4 -1
v 1.5 1.7 1.3
v 1.5 1.7 1.2
v 1.5 1.7 -1.2
v 1.5 1.7 -1.3
v 1.5 2 1.3
v 1.5 2 1.2
v 1.5 2 -1.2
v 1.5 2 -1.3
v -1.5 1.7 1.3
v -1.5 1.7 1.2
v -1.5 1.7 -1.2
v -1.5 1.7 -1.3
v -1.5 2 1.3
v -1.5 2 1.2
v -1.5 2 -1.2
v -1.5 2 -1.3
v -1 -1 1
v -1 -1 -1
v -1 -0.6 1
v -1 -0.6 -1
v -1 -0.2 1.2
v -1 -0.2 1.1
v -1 -0.2 1
v -1 0.3 1.2
v -1 0.3 1.1
v -1 0.3 1
v -1 0.4 1.2
v -1 0.4 1.1
v -1 0.4 1
v -1 0.8 1.2
v -1 0.8 1.1
v -1 0.8 1
v -1 0.8 -0.8
v -1 0.8 -1
v -1 1 1
v -1 1 -0.8
v -1 1 -1
v -1 1.2 1
v -1 1.2 -1
v -1 1.4 1
v -1 1.4 -1
v -0.9 -0.3 -1.2
v -0.9 -0.3 -1.4
v -0.9 0.2 -1.2
v -0.9 0.2 -1.4
v -0.9 0.3 -1.2
v -0.9 0.3 -1.4
v -0.9 0.6 -1.2
v -0.9 0.6 -1.4
v -0.6 -0.2 -0.8
v -0.6 -0.2 -1
v -0.6 0 -0.8
v -0.6 0 -1
v -0.6 0.4 1.2
v -0.6 0.4 1.1
v -0.6 0.8 1.2
v -0.6 0.8 1.1
v -0.6 0.8 -0.8
v -0.6 0.8 -1
v -0.6 1 -0.8
v -0.6 1 -1
v -0.4 -0.3 -1.2
v -0.4 -0.3 -1.3
v -0.4 0.2 -1.2
v -0.4 0.2 -1.3
v 0.4 -0.2 1.2
v 0.4 -0.2 1.1
v 0.4 0.3 1.2
v 0.4 0.3 1.1
v 0.4 0.4 1.2
v 0.4 0.4 1.1
v 0.4 0.8 1.2
v 0.4 0.8 1.1
v 0.5 -0.3 -1.2
v 0.5 -0.3 -1.3
v 0.5 0.2 -1.2
v 0.5 0.2 -1.3
v 0.8 0.4 1.2
v 0.8 0.4 1.1
v 0.8 0.8 1.2
v 0.8 0.8 1.1
v 1 -0.4 -1.2
v 1 -0.4 -1.4
v 1 0.6 -1.2
v 1 0.6 -1.4
v 1.2 0.6 -1.2
v 1.2 0.6 -1.6
v 1.2 0.8 -1.2
v 1.2 0.8 -1.6
v 1.6 -1.2 1.4
v 1.6 -1.2 -1.4
v 1.6 -1.1 1.4
v 1.6 -1.1 1.2
v 1.6 -1 1.2
v 1.6 -1 -1.2
v 1.6 -1 -1.4
v 1.6 -0.7 1.3
v 1.6 -0.7 1.2
v 1.6 -0.7 -1.2
v 1.6 -0.7 -1.3
v 1.6 -0.6 1.3
v 1.6 -0.6 1.2
v 1.6 -0.6 -1.2
v 1.6 -0.6 -1.3
v 1.6 1 1.2
v 1.6 1 -1.2
v 1.6 1.2 1.2
v 1.6 1.2 -1.2
v 1.6 1.6 1.3
v 1.6 1.6 1.2
v 1.6 1.6 -1.2
v 1.6 1.6 -1.3
v 1.6 2 1.3
v 1.6 2 1.2
v 1.6 2 -1.2
v 1.6 2 -1.3
v -1.6 -1.2 1.4
v -1.6 -1.1 1.4
v 1.6 -1.2 1.4
v 1.6 -1.1 1.4
v -1.6 -0.7 1.3
v -1.6 -0.6 1.3
v -1.6 1.6 1.3
v -1.6 2 1.3
v -1.5 1.7 1.3
v -1.5 2 1.3
v 1.5 1.7 1.3
v 1.5 2 1.3
v 1.6 -0.7 1.3
v 1.6 -0.6 1.3
v 1.6 1.6 1.3
v 1.6 2 1.3
v -1.6 -1.1 1.2
v -1.6 -1 1.2
v -1.6 -0.7 1.2
v -1.6 -0.6 1.2
v -1.6 1 1.2
v -1.6 1.2 1.2
v -1.6 1.6 1.2
v -1.5 1.7 1.2
v -1.5 2 1.2
v -1.1 -0.3 1.2
v -1.1 0.9 1.2
v -1 -0.2 1.2
v -1 0.3 1.2
v -1 0.4 1.2
v -1 0.8 1.2
v -0.8 0.4 1.2
v -0.8 0.8 1.2
v -0.6 0.4 1.2
v -0.6 0.8 1.2
v -0.4 -0.2 1.2
v -0.4 0.3 1.2
v -0.4 0.4 1.2
v -0.4 0.8 1.2
v -0.3 -0.3 1.2
v -0.3 0.9 1.2
v 0.3 -0.3 1.2
v 0.3 0.9 1.2
v 0.4 -0.2 1.2
v 0.4 0.3 1.2
v 0.4 0.4 1.2
v 0.4 0.8 1.2
v 0.6 0.4 1.2
v 0.6 0.8 1.2
v 0.8 0.4 1.2
v 0.8 0.8 1.2
v 1 -0.2 1.2
v 1 0.3 1.2
v 1 0.4 1.2
v 1 0.8 1.2
v 1.1 -0.3 1.2
v 1.1 0.9 1.2
v 1.5 1.7 1.2
v 1.5 2 1.2
v 1.6 -1.1 1.2
v 1.6 -1 1.2
v 1.6 -0.7 1.2
v 1.6 -0.6 1.2
v 1.6 1 1.2
v 1.6 1.2 1.2
v 1.6 1.6 1.2
v -1 -0.2 1.1
v -1 0.3 1.1
v -1 0.4 1.1
v -1 0.8 1.1
v -0.8 0.4 1.1
v -0.8 0.8 1.1
v -0.6 0.4 1.1
v -0.6 0.8 1.1
v -0.4 -0.2 1.1
v -0.4 0.3 1.1
v -0.4 0.4 1.1
v -0.4 0.8 1.1
v 0.4 -0.2 1.1
v 0.4 0.3 1.1
v 0.4 0.4 1.1
v 0.4 0.8 1.1
v 0.6 0.4 1.1
v 0.6 0.8 1.1
v 0.8 0.4 1.1
v 0.8 0.8 1.1
v 1 -0.2 1.1
v 1 0.3 1.1
v 1 0.4 1.1
v 1 0.8 1.1
v -1 0.8 -0.8
v -1 1 -0.8
v -0.8 -0.2 -0.8
v -0.8 0 -0.8
v -0.6 -0.2 -0.8
v -0.6 0 -0.8
v -0.6 0.8 -0.8
v -0.6 1 -0.8
v -1 -1 -1
v -1 -0.6 -1
v -1 0.8 -1
v -1 1 -1
v -1 1.2 -1
v -1 1.4 -1
v -0.8 -0.2 -1
v -0.8 0 -1
v -0.6 -0.2 -1
v -0.6 0 -1
v -0.6 0.8 -1
v -0.6 1 -1
v 1 -1 -1
v 1 -0.6 -1
v 1 1 -1
v 1 1.2 -1
v 1 1.4 -1
v -1 -1 1
v -1 -0.6 1
v -1 -0.2 1
v -1 0.3 1
v -1 0.4 1
v -1 0.8 1
v -1 1 1
v -1 1.2 1
v -1 1.4 1
v -0.8 0.3 1
v -0.8 0.4 1
v -0.2 -0.2 1
v -0.2 0.8 1
v 0.4 -1 1
v 0.4 -0.6 1
v 0.4 -0.2 1
v 0.4 0.3 1
v 0.4 0.4 1
v 0.4 0.8 1
v 0.5 -0.3 1
v 0.5 -0.2 1
v 0.8 -1 1
v 0.8 -0.6 1
v 0.8 -0.3 1
v 0.8 -0.2 1
v 1 -1 1
v 1 -0.6 1
v 1 -0.2 1
v 1 0.3 1
v 1 0.4 1
v 1 0.8 1
v 1 1 1
v 1 1.2 1
v 1 1.4 1
v -1.6 -1 -1.2
v -1.6 -0.7 -1.2
v -1.6 -0.6 -1.2
v -1.6 1 -1.2
v -1.6 1.2 -1.2
v -1.6 1.6 -1.2
v -1.5 1.7 -1.2
v -1.5 2 -1.2
v -1.2 0.6 -1.2
v -1.2 0.8 -1.2
v -1 -0.4 -1.2
v -1 0.6 -1.2
v -0.9 -0.3 -1.2
v -0.9 0.2 -1.2
v -0.9 0.3 -1.2
v -0.9 0.6 -1.2
v -0.5 -0.3 -1.2
v -0.5 0.2 -1.2
v -0.4 -0.3 -1.2
v -0.4 0.2 -1.2
v 0.4 -0.3 -1.2
v 0.4 0.2 -1.2
v 0.5 -0.3 -1.2
v 0.5 0.2 -1.2
v 0.9 -0.3 -1.2
v 0.9 0.2 -1.2
v 0.9 0.3 -1.2
v 0.9 0.6 -1.2
v 1 -0.4 -1.2
v 1 0.6 -1.2
v 1.2 0.6 -1.2
v 1.2 0.8 -1.2
v 1.5 1.7 -1.2
v 1.5 2 -1.2
v 1.6 -1 -1.2
v 1.6 -0.7 -1.2
v 1.6 -0.6 -1.2
v 1.6 1 -1.2
v 1.6 1.2 -1.2
v 1.6 1.6 -1.2
v -1.6 -0.7 -1.3
v -1.6 -0.6 -1.3
v -1.6 1.6 -1.3
v -1.6 2 -1.3
v -1.5 1.7 -1.3
v -1.5 2 -1.3
v -0.5 -0.3 -1.3
v -0.5 0.2 -1.3
v -0.4 -0.3 -1.3
v -0.4 0.2 -1.3
v 0.4 -0.3 -1.3
v 0.4 0.2 -1.3
v 0.5 -0.3 -1.3
v 0.5 0.2 -1.3
v 1.5 1.7 -1.3
v 1.5 2 -1.3
v 1.6 -0.7 -1.3
v 1.6 -0.6 -1.3
v 1.6 1.6 -1.3
v 1.6 2 -1.3
v -1.6 -1.2 -1.4
v -1.6 -1 -1.4
v -1 -0.4 -1.4
v -1 0.6 -1.4
v -0.9 -0.3 -1.4
v -0.9 0.2 -1.4
v -0.9 0.3 -1.4
v -0.9 0.6 -1.4
v 0.9 -0.3 -1.4
v 0.9 0.2 -1.4
v 0.9 0.3 -1.4
v 0.9 0.6 -1.4
v 1 -0.4 -1.4
v 1 0.6 -1.4
v 1.6 -1.2 -1.4
v 1.6 -1 -1.4
v -1.2 0.6 -1.6
v -1.2 0.8 -1.6
v 1.2 0.6 -1.6
v 1.2 0.8 -1.6
v -1.6 -1.2 1.4
v 1.6 -1.2 1.4
v -1.5 -1.2 1.2
v -1.4 -1.2 1.2
v -1.6 -1.2 1.1
v -1.5 -1.2 1.1
v -1.4 -1.2 1.1
v -1.6 -1.2 -1.2
v -1.5 -1.2 -1.2
v -1.5 -1.2 -1.3
v -1.4 -1.2 -1.3
v -1.6 -1.2 -1.4
v 1.6 -1.2 -1.4
v -1.6 -0.7 1.3
v 1.6 -0.7 1.3
v -1.6 -0.7 1.2
v 1.6 -0.7 1.2
v -1.6 -0.7 -1.2
v 1.6 -0.7 -1.2
v -1.6 -0.7 -1.3
v 1.6 -0.7 -1.3
v -1 -0.4 -1.2
v 1 -0.4 -1.2
v -1 -0.4 -1.4
v 1 -0.4 -1.4
v -0.8 -0.2 -0.8
v -0.6 -0.2 -0.8
v -0.8 -0.2 -1
v -0.6 -0.2 -1
v -0.9 0.2 -1.2
v -0.5 0.2 -1.2
v -0.4 0.2 -1.2
v 0.4 0.2 -1.2
v 0.5 0.2 -1.2
v 0.9 0.2 -1.2
v -0.5 0.2 -1.3
v -0.4 0.2 -1.3
v 0.4 0.2 -1.3
v 0.5 0.2 -1.3
v -0.9 0.2 -1.4
v 0.9 0.2 -1.4
v -1 0.3 1.2
v -0.4 0.3 1.2
v 0.4 0.3 1.2
v 1 0.3 1.2
v -1 0.3 1.1
v -0.4 0.3 1.1
v 0.4 0.3 1.1
v 1 0.3 1.1
v -1.2 0.6 -1.2
v -1 0.6 -1.2
v -0.9 0.6 -1.2
v 0.9 0.6 -1.2
v 1 0.6 -1.2
v 1.2 0.6 -1.2
v -1 0.6 -1.4
v -0.9 0.6 -1.4
v 0.9 0.6 -1.4
v 1 0.6 -1.4
v -1.2 0.6 -1.6
v 1.2 0.6 -1.6
v -1 0.8 1.2
v -0.8 0.8 1.2
v -0.6 0.8 1.2
v -0.4 0.8 1.2
v 0.4 0.8 1.2
v 0.6 0.8 1.2
v 0.8 0.8 1.2
v 1 0.8 1.2
v -1 0.8 1.1
v -0.8 0.8 1.1
v -0.6 0.8 1.1
v -0.4 0.8 1.1
v 0.4 0.8 1.1
v 0.6 0.8 1.1
v 0.8 0.8 1.1
v 1 0.8 1.1
v -1 0.8 -0.8
v -0.6 0.8 -0.8
v -1 0.8 -1
v -0.6 0.8 -1
v -1 1.4 1
v 1 1.4 1
v -1 1.4 -1
v 1 1.4 -1
v -1.6 1.6 1.3
v 1.6 1.6 1.3
v -1.6 1.6 1.2
v 1.6 1.6 1.2
v -1.6 1.6 -1.2
v 1.6 1.6 -1.2
v -1.6 1.6 -1.3
v 1.6 1.6 -1.3
v -1.6 -1.1 1.4
v 1.6 -1.1 1.4
v -1.6 -1.1 1.2
v 1.6 -1.1 1.2
v -1 -1 1
v 0.4 -1 1
v 0.8 -1 1
v 1 -1 1
v -1 -1 -1
v 1 -1 -1
v -1.6 -1 -1.2
v 1.6 -1 -1.2
v -1.6 -1 -1.4
v 1.6 -1 -1.4
v -1.6 -0.6 1.3
v 1.6 -0.6 1.3
v -1.6 -0.6 1.2
v 1.6 -0.6 1.2
v -1.6 -0.6 -1.2
v 1.6 -0.6 -1.2
v -1.6 -0.6 -1.3
v 1.6 -0.6 -1.3
v -0.9 -0.3 -1.2
v -0.5 -0.3 -1.2
v -0.4 -0.3 -1.2
v 0.4 -0.3 -1.2
v 0.5 -0.3 -1.2
v 0.9 -0.3 -1.2
v -0.5 -0.3 -1.3
v -0.4 -0.3 -1.3
v 0.4 -0.3 -1.3
v 0.5 -0.3 -1.3
v -0.9 -0.3 -1.4
v 0.9 -0.3 -1.4
v -1 -0.2 1.2
v -0.4 -0.2 1.2
v 0.4 -0.2 1.2
v 1 -0.2 1.2
v -1 -0.2 1.1
v -0.4 -0.2 1.1
v 0.4 -0.2 1.1
v 1 -0.2 1.1
v -0.8 0 -0.8
v -0.6 0 -0.8
v -0.8 0 -1
v -0.6 0 -1
v -0.9 0.3 -1.2
v 0.9 0.3 -1.2
v -0.9 0.3 -1.4
v 0.9 0.3 -1.4
v -1 0.4 1.2
v -0.8 0.4 1.2
v -0.6 0.4 1.2
v -0.4 0.4 1.2
v 0.4 0.4 1.2
v 0.6 0.4 1.2
v 0.8 0.4 1.2
v 1 0.4 1.2
v -1 0.4 1.1
v -0.8 0.4 1.1
v -0.6 0.4 1.1
v -0.4 0.4 1.1
v 0.4 0.4 1.1
v 0.6 0.4 1.1
v 0.8 0.4 1.1
v 1 0.4 1.1
v -1.2 0.8 -1.2
v 1.2 0.8 -1.2
v -1.2 0.8 -1.6
v 1.2 0.8 -1.6
v -1 1 -0.8
v -0.6 1 -0.8
v -1 1 -1
v -0.6 1 -1
v -1.5 1.7 1.3
v 1.5 1.7 1.3
v -1.5 1.7 1.2
v 1.5 1.7 1.2
v -1.5 1.7 -1.2
v 1.5 1.7 -1.2
v -1.5 1.7 -1.3
v 1.5 1.7 -1.3
v -1.6 2 1.3
v -1.5 2 1.3
v 1.5 2 1.3
v 1.6 2 1.3
v -1.6 2 1.2
v -1.5 2 1.2
v 1.5 2 1.2
v 1.6 2 1.2
v -1.6 2 -1.2
v -1.5 2 -1.2
v 1.5 2 -1.2
v 1.6 2 -1.2
v -1.6 2 -1.3
v -1.5 2 -1.3
v 1.5 2 -1.3
v 1.6 2 -1.3

# faces
f 5/8/1 2/8/1 1/8/1
f 6/8/1 2/8/1 5/8/1
f 7/8/1 2/8/1 6/8/1
f 8/4/1 3/4/1 2/4/1
f 8/8/1 2/8/1 7/8/1
f 9/4/1 3/4/1 8/4/1
f 10/8/1 4/8/1 3/8/1
f 10/4/1 3/4/1 9/4/1
f 11/8/1 4/8/1 10/8/1
f 13/2/1 8/2/1 7/2/1
f 14/4/1 9/4/1 8/4/1
f 14/2/1 8/2/1 13/2/1
f 15/2/1 10/2/1 9/2/1
f 15/4/1 9/4/1 14/4/1
f 16/2/1 10/2/1 15/2/1
f 18/5/1 13/5/1 12/5/1
f 19/4/1 14/4/1 13/4/1
f 19/5/1 13/5/1 18/5/1
f 19/4/1 15/4/1 14/4/1
f 19/4/1 16/4/1 15/4/1
f 20/5/1 17/5/1 16/5/1
f 20/4/1 16/4/1 19/4/1
f 21/5/1 17/5/1 20/5/1
f 22/4/1 20/4/1 19/4/1
f 23/4/1 20/4/1 22/4/1
f 24/1/1 23/1/1 22/1/1
f 25/1/1 23/1/1 24/1/1
f 27/6/1 25/6/1 24/6/1
f 28/6/1 25/6/1 27/6/1
f 30/5/1 27/5/1 26/5/1
f 31/8/1 28/8/1 27/8/1
f 31/5/1 27/5/1 30/5/1
f 32/5/1 29/5/1 28/5/1
f 32/8/1 28/8/1 31/8/1
f 33/5/1 29/5/1 32/5/1
f 36/3/1 35/3/1 34/3/1
f 37/3/1 35/3/1 36/3/1
f 40/6/1 39/6/1 38/6/1
f 41/6/1 39/6/1 40/6/1
f 44/7/1 43/7/1 42/7/1
f 45/7/1 43/7/1 44/7/1
f 48/6/1 47/6/1 46/6/1
f 49/6/1 47/6/1 48/6/1
f 52/6/1 51/6/1 50/6/1
f 53/6/1 51/6/1 52/6/1
f 56/6/1 55/6/1 54/6/1
f 57/6/1 55/6/1 56/6/1
f 60/6/1 59/6/1 58/6/1
f 61/6/1 59/6/1 60/6/1
f 64/6/1 63/6/1 62/6/1
f 65/6/1 63/6/1 64/6/1
f 68/6/1 67/6/1 66/6/1
f 69/6/1 67/6/1 68/6/1
f 72/6/1 71/6/1 70/6/1
f 73/6/1 71/6/1 72/6/1
f 76/6/1 75/6/1 74/6/1
f 77/6/1 75/6/1 76/6/1
f 80/2/1 79/2/1 78/2/1
f 81/2/1 79/2/1 80/2/1
f 84/4/1 81/4/1 80/4/1
f 85/6/1 83/6/1 82/6/1
f 86/6/1 83/6/1 85/6/1
f 87/4/1 81/4/1 84/4/1
f 90/4/1 81/4/1 87/4/1
f 91/6/1 89/6/1 88/6/1
f 92/6/1 89/6/1 91/6/1
f 93/4/1 81/4/1 90/4/1
f 94/4/1 81/4/1 93/4/1
f 95/4/1 81/4/1 94/4/1
f 96/4/1 81/4/1 95/4/1
f 97/1/1 95/1/1 94/1/1
f 98/4/1 96/4/1 95/4/1
f 98/1/1 95/1/1 97/1/1
f 99/4/1 96/4/1 98/4/1
f 100/6/1 98/6/1 97/6/1
f 100/6/1 99/6/1 98/6/1
f 101/6/1 99/6/1 100/6/1
f 106/5/1 103/5/1 102/5/1
f 107/5/1 103/5/1 106/5/1
f 108/5/1 105/5/1 104/5/1
f 109/5/1 105/5/1 108/5/1
f 110/5/2 111/5/2 114/5/2
f 114/5/2 111/5/2 115/5/2
f 112/5/2 113/5/2 116/5/2
f 116/5/2 113/5/2 117/5/2
f 118/2/2 119/2/2 120/2/2
f 120/2/2 119/2/2 121/2/2
f 120/4/2 121/4/2 124/4/2
f 122/6/2 123/6/2 125/6/2
f 125/6/2 123/6/2 126/6/2
f 124/4/2 121/4/2 127/4/2
f 127/4/2 121/4/2 130/4/2
f 128/6/2 129/6/2 131/6/2
f 131/6/2 129/6/2 132/6/2
f 130/4/2 121/4/2 133/4/2
f 133/4/2 121/4/2 134/4/2
f 134/4/2 121/4/2 135/4/2
f 133/4/2 134/4/2 136/4/2
f 136/4/2 134/4/2 137/4/2
f 136/1/2 137/1/2 139/1/2
f 137/1/2 138/1/2 139/1/2
f 139/1/2 138/1/2 140/1/2
f 139/6/2 140/6/2 141/6/2
f 141/6/2 140/6/2 142/6/2
f 143/6/2 144/6/2 145/6/2
f 145/6/2 144/6/2 146/6/2
f 147/6/2 148/6/2 149/6/2
f 149/6/2 148/6/2 150/6/2
f 151/7/2 152/7/2 153/7/2
f 153/7/2 152/7/2 154/7/2
f 155/6/2 156/6/2 157/6/2
f 157/6/2 156/6/2 158/6/2
f 159/4/2 160/4/2 161/4/2
f 161/4/2 160/4/2 162/4/2
f 163/6/2 164/6/2 165/6/2
f 165/6/2 164/6/2 166/6/2
f 167/6/2 168/6/2 169/6/2
f 169/6/2 168/6/2 170/6/2
f 171/6/2 172/6/2 173/6/2
f 173/6/2 172/6/2 174/6/2
f 175/6/2 176/6/2 177/6/2
f 177/6/2 176/6/2 178/6/2
f 179/6/2 180/6/2 181/6/2
f 181/6/2 180/6/2 182/6/2
f 183/6/2 184/6/2 185/6/2
f 185/6/2 184/6/2 186/6/2
f 187/3/2 188/3/2 189/3/2
f 189/3/2 188/3/2 190/3/2
f 191/8/2 192/8/2 193/8/2
f 193/8/2 192/8/2 194/8/2
f 194/8/2 192/8/2 195/8/2
f 195/8/2 192/8/2 196/8/2
f 196/8/2 192/8/2 197/8/2
f 195/2/2 196/2/2 199/2/2
f 199/2/2 196/2/2 200/2/2
f 198/5/2 199/5/2 202/5/2
f 200/5/2 201/5/2 202/5/2
f 199/5/2 200/5/2 202/5/2
f 202/5/2 201/5/2 203/5/2
f 203/5/2 201/5/2 204/5/2
f 204/5/2 201/5/2 205/5/2
f 203/4/2 204/4/2 206/4/2
f 206/4/2 204/4/2 207/4/2
f 206/1/2 207/1/2 208/1/2
f 208/1/2 207/1/2 209/1/2
f 208/6/2 209/6/2 211/6/2
f 211/6/2 209/6/2 212/6/2
f 210/5/2 211/5/2 214/5/2
f 211/8/2 212/8/2 215/8/2
f 214/5/2 211/5/2 215/5/2
f 212/5/2 213/5/2 216/5/2
f 215/8/2 212/8/2 216/8/2
f 216/5/2 213/5/2 217/5/2
f 220/8/3 219/8/3 218/8/3
f 221/8/3 219/8/3 220/8/3
f 226/5/3 225/5/3 224/5/3
f 227/5/3 225/5/3 226/5/3
f 228/5/3 226/5/3 224/5/3
f 230/5/3 223/5/3 222/5/3
f 231/5/3 223/5/3 230/5/3
f 232/5/3 229/5/3 228/5/3
f 232/5/3 228/5/3 224/5/3
f 233/5/3 229/5/3 232/5/3
f 243/4/3 238/4/3 237/4/3
f 244/4/3 238/4/3 243/4/3
f 245/6/3 244/6/3 243/6/3
f 246/6/3 244/6/3 245/6/3
f 247/6/3 244/6/3 246/6/3
f 248/6/3 244/6/3 247/6/3
f 249/6/3 247/6/3 246/6/3
f 250/6/3 244/6/3 248/6/3
f 251/6/3 249/6/3 246/6/3
f 251/6/3 250/6/3 249/6/3
f 252/6/3 244/6/3 250/6/3
f 252/6/3 250/6/3 251/6/3
f 253/6/3 245/6/3 243/6/3
f 254/6/3 251/6/3 246/6/3
f 255/6/3 251/6/3 254/6/3
f 256/6/3 244/6/3 252/6/3
f 257/4/3 243/4/3 237/4/3
f 257/6/3 256/6/3 255/6/3
f 257/6/3 255/6/3 254/6/3
f 257/6/3 253/6/3 243/6/3
f 257/6/3 254/6/3 253/6/3
f 258/6/3 244/6/3 256/6/3
f 258/6/3 256/6/3 257/6/3
f 258/4/3 238/4/3 244/4/3
f 259/4/3 257/4/3 237/4/3
f 259/4/3 258/4/3 257/4/3
f 260/4/3 238/4/3 258/4/3
f 260/4/3 258/4/3 259/4/3
f 261/6/3 260/6/3 259/6/3
f 262/6/3 260/6/3 261/6/3
f 263/6/3 260/6/3 262/6/3
f 264/6/3 260/6/3 263/6/3
f 265/6/3 263/6/3 262/6/3
f 266/6/3 260/6/3 264/6/3
f 267/6/3 265/6/3 262/6/3
f 267/6/3 266/6/3 265/6/3
f 268/6/3 260/6/3 266/6/3
f 268/6/3 266/6/3 267/6/3
f 269/6/3 261/6/3 259/6/3
f 270/6/3 267/6/3 262/6/3
f 271/6/3 267/6/3 270/6/3
f 272/6/3 260/6/3 268/6/3
f 273/4/3 259/4/3 237/4/3
f 273/6/3 272/6/3 271/6/3
f 273/6/3 271/6/3 270/6/3
f 273/6/3 269/6/3 259/6/3
f 273/6/3 270/6/3 269/6/3
f 274/6/3 260/6/3 272/6/3
f 274/6/3 272/6/3 273/6/3
f 274/4/3 238/4/3 260/4/3
f 275/8/3 242/8/3 241/8/3
f 276/8/3 242/8/3 275/8/3
f 277/8/3 235/8/3 234/8/3
f 278/2/3 236/2/3 235/2/3
f 278/8/3 235/8/3 277/8/3
f 279/2/3 236/2/3 278/2/3
f 280/4/3 273/4/3 237/4/3
f 280/4/3 274/4/3 273/4/3
f 281/4/3 238/4/3 274/4/3
f 281/4/3 274/4/3 280/4/3
f 281/1/3 239/1/3 238/1/3
f 282/6/3 240/6/3 239/6/3
f 282/1/3 239/1/3 281/1/3
f 283/6/3 240/6/3 282/6/3
f 288/7/3 287/7/3 286/7/3
f 289/7/3 287/7/3 288/7/3
f 292/7/3 285/7/3 284/7/3
f 293/7/3 285/7/3 292/7/3
f 294/7/3 291/7/3 290/7/3
f 295/7/3 291/7/3 294/7/3
f 300/7/3 299/7/3 298/7/3
f 301/7/3 299/7/3 300/7/3
f 304/7/3 297/7/3 296/7/3
f 305/7/3 297/7/3 304/7/3
f 306/7/3 303/7/3 302/7/3
f 307/7/3 303/7/3 306/7/3
f 312/7/3 311/7/3 310/7/3
f 313/7/3 311/7/3 312/7/3
f 314/4/3 309/4/3 308/4/3
f 315/4/3 309/4/3 314/4/3
f 322/4/3 318/4/3 317/4/3
f 323/4/3 318/4/3 322/4/3
f 324/4/3 322/4/3 317/4/3
f 325/4/3 318/4/3 323/4/3
f 326/4/3 318/4/3 325/4/3
f 327/1/3 320/1/3 319/1/3
f 328/2/3 317/2/3 316/2/3
f 329/4/3 327/4/3 326/4/3
f 329/2/3 317/2/3 328/2/3
f 329/4/3 326/4/3 325/4/3
f 329/4/3 324/4/3 317/4/3
f 329/4/3 325/4/3 324/4/3
f 330/1/3 320/1/3 327/1/3
f 330/4/3 327/4/3 329/4/3
f 331/6/3 321/6/3 320/6/3
f 331/1/3 320/1/3 330/1/3
f 332/6/3 321/6/3 331/6/3
f 335/7/4 336/7/4 342/7/4
f 336/4/4 337/4/4 342/4/4
f 337/7/4 338/7/4 343/7/4
f 342/4/4 337/4/4 343/4/4
f 334/4/4 335/4/4 344/4/4
f 335/7/4 342/7/4 344/7/4
f 342/7/4 343/7/4 344/7/4
f 343/7/4 338/7/4 345/7/4
f 344/7/4 343/7/4 345/7/4
f 338/4/4 339/4/4 345/4/4
f 333/2/4 334/2/4 346/2/4
f 334/4/4 344/4/4 347/4/4
f 346/2/4 334/2/4 347/2/4
f 344/4/4 345/4/4 347/4/4
f 347/4/4 345/4/4 348/4/4
f 348/4/4 345/4/4 349/4/4
f 349/4/4 345/4/4 350/4/4
f 345/4/4 339/4/4 351/4/4
f 350/4/4 345/4/4 351/4/4
f 347/4/4 348/4/4 352/4/4
f 348/7/4 349/7/4 353/7/4
f 352/4/4 348/4/4 353/4/4
f 346/8/4 347/8/4 354/8/4
f 347/4/4 352/4/4 355/4/4
f 354/8/4 347/8/4 355/8/4
f 352/8/4 353/8/4 356/8/4
f 355/4/4 352/4/4 356/4/4
f 353/7/4 349/7/4 357/7/4
f 356/8/4 353/8/4 357/8/4
f 354/2/4 355/2/4 358/2/4
f 355/4/4 356/4/4 359/4/4
f 358/2/4 355/2/4 359/2/4
f 356/4/4 357/4/4 359/4/4
f 357/7/4 349/7/4 360/7/4
f 359/4/4 357/4/4 360/4/4
f 349/4/4 350/4/4 361/4/4
f 360/7/4 349/7/4 361/7/4
f 350/7/4 351/7/4 362/7/4
f 361/4/4 350/4/4 362/4/4
f 351/4/4 339/4/4 363/4/4
f 362/7/4 351/7/4 363/7/4
f 339/1/4 340/1/4 364/1/4
f 363/4/4 339/4/4 364/4/4
f 340/6/4 341/6/4 365/6/4
f 364/1/4 340/1/4 365/1/4
f 365/6/4 341/6/4 366/6/4
f 369/4/4 370/4/4 375/4/4
f 375/4/4 370/4/4 376/4/4
f 369/4/4 375/4/4 377/4/4
f 377/4/4 375/4/4 378/4/4
f 379/7/4 380/7/4 383/7/4
f 383/7/4 380/7/4 384/7/4
f 385/7/4 386/7/4 387/7/4
f 387/7/4 386/7/4 388/7/4
f 389/7/4 390/7/4 391/7/4
f 391/7/4 390/7/4 392/7/4
f 381/7/4 382/7/4 393/7/4
f 393/7/4 382/7/4 394/7/4
f 369/4/4 377/4/4 395/4/4
f 395/4/4 396/4/4 397/4/4
f 376/4/4 370/4/4 398/4/4
f 373/8/4 374/8/4 399/8/4
f 399/8/4 374/8/4 400/8/4
f 367/2/4 368/2/4 401/2/4
f 401/2/4 368/2/4 402/2/4
f 397/4/4 398/4/4 403/4/4
f 395/4/4 397/4/4 403/4/4
f 369/4/4 395/4/4 403/4/4
f 370/1/4 371/1/4 404/1/4
f 403/4/4 398/4/4 404/4/4
f 398/4/4 370/4/4 404/4/4
f 371/6/4 372/6/4 405/6/4
f 404/1/4 371/1/4 405/1/4
f 405/6/4 372/6/4 406/6/4
f 409/5/4 410/5/4 411/5/4
f 411/5/4 410/5/4 412/5/4
f 413/6/4 414/6/4 415/6/4
f 415/6/4 414/6/4 416/6/4
f 417/6/4 418/6/4 419/6/4
f 419/6/4 418/6/4 420/6/4
f 409/5/4 411/5/4 421/5/4
f 407/5/4 408/5/4 423/5/4
f 423/5/4 408/5/4 424/5/4
f 421/5/4 422/5/4 425/5/4
f 409/5/4 421/5/4 425/5/4
f 425/5/4 422/5/4 426/5/4
f 429/6/4 430/6/4 431/6/4
f 431/6/4 430/6/4 432/6/4
f 432/6/4 430/6/4 433/6/4
f 433/6/4 430/6/4 434/6/4
f 429/6/4 431/6/4 435/6/4
f 432/6/4 433/6/4 436/6/4
f 436/6/4 433/6/4 437/6/4
f 429/6/4 435/6/4 439/6/4
f 437/6/4 438/6/4 439/6/4
f 436/6/4 437/6/4 439/6/4
f 435/6/4 436/6/4 439/6/4
f 439/6/4 438/6/4 440/6/4
f 427/8/4 428/8/4 441/8/4
f 441/8/4 428/8/4 442/8/4
f 443/3/4 444/3/4 445/3/4
f 445/3/4 444/3/4 446/3/4
f 449/8/5 448/8/5 447/8/5
f 450/8/5 448/8/5 449/8/5
f 451/8/5 449/8/5 447/8/5
f 452/2/5 450/2/5 449/2/5
f 452/8/5 449/8/5 451/8/5
f 453/8/5 448/8/5 450/8/5
f 453/2/5 450/2/5 452/2/5
f 454/4/5 452/4/5 451/4/5
f 454/4/5 453/4/5 452/4/5
f 455/4/5 453/4/5 454/4/5
f 456/8/5 455/8/5 454/8/5
f 456/4/5 453/4/5 455/4/5
f 457/8/5 448/8/5 453/8/5
f 457/4/5 453/4/5 456/4/5
f 458/8/5 456/8/5 454/8/5
f 458/8/5 457/8/5 456/8/5
f 459/8/5 448/8/5 457/8/5
f 459/8/5 457/8/5 458/8/5
f 462/5/5 461/5/5 460/5/5
f 463/5/5 461/5/5 462/5/5
f 466/5/5 465/5/5 464/5/5
f 467/5/5 465/5/5 466/5/5
f 470/6/5 469/6/5 468/6/5
f 471/6/5 469/6/5 470/6/5
f 474/7/5 473/7/5 472/7/5
f 475/7/5 473/7/5 474/7/5
f 482/6/5 477/6/5 476/6/5
f 483/6/5 479/6/5 478/6/5
f 484/6/5 479/6/5 483/6/5
f 485/6/5 481/6/5 480/6/5
f 486/6/5 484/6/5 483/6/5
f 486/6/5 485/6/5 484/6/5
f 486/6/5 482/6/5 476/6/5
f 486/6/5 483/6/5 482/6/5
f 487/6/5 481/6/5 485/6/5
f 487/6/5 485/6/5 486/6/5
f 492/6/5 489/6/5 488/6/5
f 493/6/5 489/6/5 492/6/5
f 494/6/5 491/6/5 490/6/5
f 495/6/5 491/6/5 494/6/5
f 502/3/5 497/3/5 496/3/5
f 503/3/5 499/3/5 498/3/5
f 504/3/5 499/3/5 503/3/5
f 505/3/5 501/3/5 500/3/5
f 506/3/5 504/3/5 503/3/5
f 506/3/5 505/3/5 504/3/5
f 506/3/5 502/3/5 496/3/5
f 506/3/5 503/3/5 502/3/5
f 507/3/5 501/3/5 505/3/5
f 507/3/5 505/3/5 506/3/5
f 516/6/5 509/6/5 508/6/5
f 517/6/5 509/6/5 516/6/5
f 518/6/5 511/6/5 510/6/5
f 519/6/5 511/6/5 518/6/5
f 520/6/5 513/6/5 512/6/5
f 521/6/5 513/6/5 520/6/5
f 522/6/5 515/6/5 514/6/5
f 523/6/5 515/6/5 522/6/5
f 526/4/5 525/4/5 524/4/5
f 527/4/5 525/4/5 526/4/5
f 530/6/5 529/6/5 528/6/5
f 531/6/5 529/6/5 530/6/5
f 534/5/5 533/5/5 532/5/5
f 535/5/5 533/5/5 534/5/5
f 538/5/5 537/5/5 536/5/5
f 539/5/5 537/5/5 538/5/5
f 540/8/6 541/8/6 542/8/6
f 542/8/6 541/8/6 543/8/6
f 544/8/6 545/8/6 548/8/6
f 546/8/6 547/8/6 548/8/6
f 545/8/6 546/8/6 548/8/6
f 548/8/6 547/8/6 549/8/6
f 550/8/6 551/8/6 552/8/6
f 552/8/6 551/8/6 553/8/6
f 554/5/6 555/5/6 556/5/6
f 556/5/6 555/5/6 557/5/6
f 558/5/6 559/5/6 560/5/6
f 560/5/6 559/5/6 561/5/6
f 562/6/6 563/6/6 568/6/6
f 564/6/6 565/6/6 569/6/6
f 569/6/6 565/6/6 570/6/6
f 566/6/6 567/6/6 571/6/6
f 569/6/6 570/6/6 572/6/6
f 570/6/6 571/6/6 572/6/6
f 562/6/6 568/6/6 572/6/6
f 568/6/6 569/6/6 572/6/6
f 571/6/6 567/6/6 573/6/6
f 572/6/6 571/6/6 573/6/6
f 574/6/6 575/6/6 578/6/6
f 578/6/6 575/6/6 579/6/6
f 576/6/6 577/6/6 580/6/6
f 580/6/6 577/6/6 581/6/6
f 582/7/6 583/7/6 584/7/6
f 584/7/6 583/7/6 585/7/6
f 586/6/6 587/6/6 588/6/6
f 588/6/6 587/6/6 589/6/6
f 590/6/6 591/6/6 598/6/6
f 598/6/6 591/6/6 599/6/6
f 592/6/6 593/6/6 600/6/6
f 600/6/6 593/6/6 601/6/6
f 594/6/6 595/6/6 602/6/6
f 602/6/6 595/6/6 603/6/6
f 596/6/6 597/6/6 604/6/6
f 604/6/6 597/6/6 605/6/6
f 606/3/6 607/3/6 608/3/6
f 608/3/6 607/3/6 609/3/6
f 610/4/6 611/4/6 612/4/6
f 612/4/6 611/4/6 613/4/6
f 614/5/6 615/5/6 616/5/6
f 616/5/6 615/5/6 617/5/6
f 618/5/6 619/5/6 620/5/6
f 620/5/6 619/5/6 621/5/6
f 622/5/6 623/5/6 626/5/6
f 626/5/6 623/5/6 627/5/6
f 624/5/6 625/5/6 628/5/6
f 628/5/6 625/5/6 629/5/6
f 626/8/6 627/8/6 630/8/6
f 627/8/6 628/8/6 630/8/6
f 628/8/6 629/8/6 630/8/6
f 630/8/6 629/8/6 631/8/6
f 631/8/6 629/8/6 632/8/6
f 632/8/6 629/8/6 633/8/6
f 630/5/6 631/5/6 634/5/6
f 634/5/6 631/5/6 635/5/6
f 632/5/6 633/5/6 636/5/6
f 636/5/6 633/5/6 637/5/6
