# MagicaVoxel @ Ephtracy

# group
o 

# material
mtllib tile_4_right_nr_90.mtl
usemtl palette

# normals
vn -1 0 0
vn 1 0 0
vn 0 0 1
vn 0 0 -1
vn 0 -1 0
vn 0 1 0

# texcoords
vt 0.939453 0.5
vt 0.943359 0.5
vt 0.947266 0.5
vt 0.970703 0.5
vt 0.974609 0.5
vt 0.978516 0.5
vt 0.982422 0.5
vt 0.986328 0.5
vt 0.994141 0.5

# verts
v -1.3 -0.7 1.6
v -1.3 -0.7 1.3
v -1.3 -0.6 1.6
v -1.3 -0.6 1.3
v -1.3 1.6 1.6
v -1.3 1.6 1.3
v -1.3 1.7 1.6
v -1.3 1.7 1.3
v -1.2 -1.2 1.6
v -1.2 -1.2 1.1
v -1.2 -1 1.6
v -1.2 -1 1.4
v -1.2 -1 1.1
v -1.2 -0.7 1.6
v -1.2 -0.7 1.4
v -1.2 -0.7 1.3
v -1.2 -0.7 1.1
v -1.2 -0.6 1.6
v -1.2 -0.6 1.4
v -1.2 -0.6 1.3
v -1.2 -0.6 1.1
v -1.2 1 1.6
v -1.2 1 1.4
v -1.2 1.2 1.6
v -1.2 1.2 1.4
v -1.2 1.6 1.6
v -1.2 1.6 1.4
v -1.2 1.7 1.6
v -1.2 1.7 1.4
v -1.2 2 1.6
v -1.2 2 1.4
v -1.1 -1.2 1.1
v -1.1 -1.2 1
v -1.1 -1 1.1
v -1.1 -1 1
v -1.1 -0.7 1.1
v -1.1 -0.6 1.1
v -1.1 -0.6 1
v -1.1 0.2 1.4
v -1.1 0.2 1.2
v -1.1 0.3 1.4
v -1.1 0.3 1.2
v -1 -1.2 1
v -1 -1.2 0.9
v -1 -1 1
v -1 -1 0.9
v -1 -0.7 1
v -1 -0.7 0.9
v -1 -0.6 1
v -1 -0.6 0.9
v -0.9 -1.2 0.9
v -0.9 -1.2 0.8
v -0.9 -1 0.9
v -0.9 -1 0.8
v -0.9 -0.7 0.9
v -0.9 -0.7 0.8
v -0.9 -0.6 0.9
v -0.9 -0.6 0.8
v -0.8 -1 0.9
v -0.8 -1 0.8
v -0.8 -0.7 0.9
v -0.8 -0.7 0.8
v -0.5 -1 1.5
v -0.5 -1 1.4
v -0.5 -1 0.9
v -0.5 -1 0.8
v -0.5 -0.9 1.5
v -0.5 -0.7 1.5
v -0.5 -0.7 1.4
v -0.5 -0.7 1.3
v -0.5 -0.7 0.9
v -0.5 -0.7 0.8
v -0.5 -0.6 1.5
v -0.5 -0.6 1.4
v -0.5 -0.6 1.3
v -0.5 0.0999999 1.5
v -0.5 0.0999999 1.4
v -0.3 -1 1
v -0.3 -1 0.9
v -0.3 -0.7 0.9
v -0.3 -0.6 1
v -0.3 -0.6 0.9
v -0.2 -0.7 1.1
v -0.2 -0.7 1
v -0.2 -0.6 1.1
v -0.2 -0.6 1
v -0.0999999 -1 1.2
v -0.0999999 -1 1.1
v -0.0999999 -0.7 1.3
v -0.0999999 -0.7 1.2
v -0.0999999 -0.7 1.1
v -0.0999999 -0.6 1.3
v -0.0999999 -0.6 1.1
v 0.1 0 1.5
v 0.1 0 1.4
v 0.1 0.5 1.5
v 0.1 0.5 1.4
v 0.8 0.3 1.5
v 0.8 0.3 1.4
v 0.8 0.8 1.5
v 0.8 0.8 1.4
v -1.1 -0.7 1.3
v -1.1 -0.7 1.1
v -1.1 -0.6 1.3
v -1.1 -0.6 1.1
v -1 -1 1.1
v -1 -1 1
v -1 -0.7 1
v -1 -0.6 1.1
v -1 -0.6 1
v -0.9 -1 1.5
v -0.9 -1 1.4
v -0.9 -0.9 1.5
v -0.9 -0.7 1.5
v -0.9 -0.7 1.4
v -0.9 -0.7 1.3
v -0.9 -0.7 1
v -0.9 -0.7 0.9
v -0.9 -0.6 1.5
v -0.9 -0.6 1.4
v -0.9 -0.6 1.3
v -0.9 -0.6 1
v -0.9 -0.6 0.9
v -0.9 0.0999999 1.5
v -0.9 0.0999999 1.4
v -0.7 -1 0.9
v -0.7 -1 0.8
v -0.7 -0.7 0.9
v -0.7 -0.7 0.8
v -0.4 -1 0.9
v -0.4 -1 0.8
v -0.4 -0.7 0.9
v -0.4 -0.7 0.8
v -0.3 -1.2 0.9
v -0.3 -1.2 0.8
v -0.3 -1 0.9
v -0.3 -1 0.8
v -0.3 -0.7 0.9
v -0.3 -0.7 0.8
v -0.3 -0.6 0.9
v -0.3 -0.6 0.8
v -0.3 0.2 1.4
v -0.3 0.2 1.2
v -0.3 0.3 1.4
v -0.3 0.3 1.2
v -0.2 -1.2 1
v -0.2 -1.2 0.9
v -0.2 -1 1
v -0.2 -1 0.9
v -0.2 -0.7 1
v -0.2 -0.6 1
v -0.2 -0.6 0.9
v -0.0999999 -1.2 1.1
v -0.0999999 -1.2 1
v -0.0999999 -1 1.1
v -0.0999999 -1 1
v -0.0999999 -0.7 1.1
v -0.0999999 -0.7 1
v -0.0999999 -0.6 1.1
v -0.0999999 -0.6 1
v -0.0999999 0 1.5
v -0.0999999 0 1.4
v -0.0999999 0.5 1.5
v -0.0999999 0.5 1.4
v 0 -1.2 1.4
v 0 -1.2 1.1
v 0 -1 1.4
v 0 -1 1.2
v 0 -1 1.1
v 0 -0.7 1.3
v 0 -0.7 1.2
v 0 -0.6 1.3
v 0 -0.6 1.1
v 0.6 0.3 1.5
v 0.6 0.3 1.4
v 0.6 0.8 1.5
v 0.6 0.8 1.4
v 1.2 -1.2 1.6
v 1.2 -1.2 1.4
v 1.2 -1 1.6
v 1.2 -1 1.4
v 1.2 -0.7 1.6
v 1.2 -0.7 1.4
v 1.2 -0.6 1.6
v 1.2 -0.6 1.4
v 1.2 1 1.6
v 1.2 1 1.4
v 1.2 1.2 1.6
v 1.2 1.2 1.4
v 1.2 1.6 1.6
v 1.2 1.6 1.4
v 1.2 1.7 1.6
v 1.2 1.7 1.4
v 1.2 2 1.6
v 1.2 2 1.4
v 1.3 -0.7 1.6
v 1.3 -0.7 1.3
v 1.3 -0.6 1.6
v 1.3 -0.6 1.3
v 1.3 1.6 1.6
v 1.3 1.6 1.3
v 1.3 1.7 1.6
v 1.3 1.7 1.3
v -1.3 -0.7 1.6
v -1.3 -0.6 1.6
v -1.3 1.6 1.6
v -1.3 1.7 1.6
v -1.2 -1.2 1.6
v -1.2 -1 1.6
v -1.2 -0.7 1.6
v -1.2 -0.6 1.6
v -1.2 1 1.6
v -1.2 1.2 1.6
v -1.2 1.6 1.6
v -1.2 1.7 1.6
v -1.2 2 1.6
v -0.9 -0.9 1.6
v -0.9 -0.7 1.6
v -0.9 0.0999999 1.6
v -0.5 -0.9 1.6
v -0.5 -0.7 1.6
v -0.5 0.0999999 1.6
v -0.0999999 0 1.6
v -0.0999999 0.5 1.6
v 0.1 0 1.6
v 0.1 0.5 1.6
v 0.6 0.3 1.6
v 0.6 0.8 1.6
v 0.8 0.3 1.6
v 0.8 0.8 1.6
v 1.2 -1.2 1.6
v 1.2 -1 1.6
v 1.2 -0.7 1.6
v 1.2 -0.6 1.6
v 1.2 1 1.6
v 1.2 1.2 1.6
v 1.2 1.6 1.6
v 1.2 1.7 1.6
v 1.2 2 1.6
v 1.3 -0.7 1.6
v 1.3 -0.6 1.6
v 1.3 1.6 1.6
v 1.3 1.7 1.6
v -0.0999999 -1 1.2
v -0.0999999 -0.7 1.2
v 0 -1 1.2
v 0 -0.7 1.2
v -1.1 -1 1.1
v -1.1 -0.7 1.1
v -1.1 -0.6 1.1
v -1 -1 1.1
v -1 -0.6 1.1
v -0.2 -0.7 1.1
v -0.2 -0.6 1.1
v -0.0999999 -0.7 1.1
v -0.0999999 -0.6 1.1
v -1 -0.7 1
v -1 -0.6 1
v -0.9 -0.7 1
v -0.9 -0.6 1
v -0.3 -1 1
v -0.3 -0.6 1
v -0.2 -1 1
v -0.2 -0.7 1
v -0.2 -0.6 1
v -0.9 -0.7 0.9
v -0.9 -0.6 0.9
v -0.8 -1 0.9
v -0.8 -0.7 0.9
v -0.7 -1 0.9
v -0.7 -0.7 0.9
v -0.5 -1 0.9
v -0.5 -0.7 0.9
v -0.4 -1 0.9
v -0.4 -0.7 0.9
v -0.3 -0.7 0.9
v -0.3 -0.6 0.9
v -0.9 -1 1.5
v -0.9 -0.9 1.5
v -0.9 -0.7 1.5
v -0.9 -0.6 1.5
v -0.9 0.0999999 1.5
v -0.5 -1 1.5
v -0.5 -0.9 1.5
v -0.5 -0.7 1.5
v -0.5 -0.6 1.5
v -0.5 0.0999999 1.5
v -0.0999999 0 1.5
v -0.0999999 0.5 1.5
v 0.1 0 1.5
v 0.1 0.5 1.5
v 0.6 0.3 1.5
v 0.6 0.8 1.5
v 0.8 0.3 1.5
v 0.8 0.8 1.5
v -1.2 -1 1.4
v -1.2 -0.7 1.4
v -1.2 -0.6 1.4
v -1.2 1 1.4
v -1.2 1.2 1.4
v -1.2 1.6 1.4
v -1.2 1.7 1.4
v -1.2 2 1.4
v -1.1 0.2 1.4
v -1.1 0.3 1.4
v -1 -0.6 1.4
v -1 0.2 1.4
v -0.9 -1 1.4
v -0.9 -0.7 1.4
v -0.9 -0.6 1.4
v -0.9 0.0999999 1.4
v -0.5 -1 1.4
v -0.5 -0.7 1.4
v -0.5 -0.6 1.4
v -0.5 0.0999999 1.4
v -0.4 -0.6 1.4
v -0.4 0.2 1.4
v -0.3 0.2 1.4
v -0.3 0.3 1.4
v -0.2 -0.1 1.4
v -0.2 0.6 1.4
v -0.0999999 0 1.4
v -0.0999999 0.5 1.4
v 0 -1.2 1.4
v 0 -1 1.4
v 0.1 0 1.4
v 0.1 0.5 1.4
v 0.2 -0.1 1.4
v 0.2 0.6 1.4
v 0.5 0.2 1.4
v 0.5 0.9 1.4
v 0.6 0.3 1.4
v 0.6 0.8 1.4
v 0.8 0.3 1.4
v 0.8 0.8 1.4
v 0.9 0.2 1.4
v 0.9 0.9 1.4
v 1.2 -1.2 1.4
v 1.2 -1 1.4
v 1.2 -0.7 1.4
v 1.2 -0.6 1.4
v 1.2 1 1.4
v 1.2 1.2 1.4
v 1.2 1.6 1.4
v 1.2 1.7 1.4
v 1.2 2 1.4
v -1.3 -0.7 1.3
v -1.3 -0.6 1.3
v -1.3 1.6 1.3
v -1.3 1.7 1.3
v -1.2 -0.7 1.3
v -1.2 -0.6 1.3
v -1.1 -0.7 1.3
v -1.1 -0.6 1.3
v -0.9 -0.7 1.3
v -0.9 -0.6 1.3
v -0.5 -0.7 1.3
v -0.5 -0.6 1.3
v -0.0999999 -0.7 1.3
v -0.0999999 -0.6 1.3
v 0 -0.7 1.3
v 0 -0.6 1.3
v 1.3 -0.7 1.3
v 1.3 -0.6 1.3
v 1.3 1.6 1.3
v 1.3 1.7 1.3
v -1.1 0.2 1.2
v -1.1 0.3 1.2
v -0.3 0.2 1.2
v -0.3 0.3 1.2
v -1.2 -1.2 1.1
v -1.2 -1 1.1
v -1.2 -0.7 1.1
v -1.2 -0.6 1.1
v -1.1 -1.2 1.1
v -1.1 -1 1.1
v -1.1 -0.7 1.1
v -1.1 -0.6 1.1
v -0.0999999 -1.2 1.1
v -0.0999999 -1 1.1
v -0.0999999 -0.7 1.1
v -0.0999999 -0.6 1.1
v 0 -1.2 1.1
v 0 -1 1.1
v 0 -0.6 1.1
v -1.1 -1.2 1
v -1.1 -1 1
v -1.1 -0.6 1
v -1 -1.2 1
v -1 -1 1
v -1 -0.7 1
v -1 -0.6 1
v -0.2 -1.2 1
v -0.2 -1 1
v -0.2 -0.7 1
v -0.2 -0.6 1
v -0.0999999 -1.2 1
v -0.0999999 -1 1
v -0.0999999 -0.7 1
v -0.0999999 -0.6 1
v -1 -1.2 0.9
v -1 -1 0.9
v -1 -0.7 0.9
v -1 -0.6 0.9
v -0.9 -1.2 0.9
v -0.9 -1 0.9
v -0.9 -0.7 0.9
v -0.9 -0.6 0.9
v -0.3 -1.2 0.9
v -0.3 -1 0.9
v -0.3 -0.7 0.9
v -0.3 -0.6 0.9
v -0.2 -1.2 0.9
v -0.2 -1 0.9
v -0.2 -0.6 0.9
v -0.9 -1.2 0.8
v -0.9 -1 0.8
v -0.9 -0.7 0.8
v -0.9 -0.6 0.8
v -0.8 -1 0.8
v -0.8 -0.7 0.8
v -0.7 -1 0.8
v -0.7 -0.7 0.8
v -0.5 -1 0.8
v -0.5 -0.7 0.8
v -0.4 -1 0.8
v -0.4 -0.7 0.8
v -0.3 -1.2 0.8
v -0.3 -1 0.8
v -0.3 -0.7 0.8
v -0.3 -0.6 0.8
v -1.2 -1.2 1.6
v 1.2 -1.2 1.6
v 0 -1.2 1.4
v 1.2 -1.2 1.4
v -1.2 -1.2 1.1
v -1.1 -1.2 1.1
v -0.0999999 -1.2 1.1
v 0 -1.2 1.1
v -1.1 -1.2 1
v -1 -1.2 1
v -0.2 -1.2 1
v -0.0999999 -1.2 1
v -1 -1.2 0.9
v -0.9 -1.2 0.9
v -0.3 -1.2 0.9
v -0.2 -1.2 0.9
v -0.9 -1.2 0.8
v -0.3 -1.2 0.8
v -1.3 -0.7 1.6
v -1.2 -0.7 1.6
v 1.2 -0.7 1.6
v 1.3 -0.7 1.6
v -1.2 -0.7 1.4
v -0.9 -0.7 1.4
v -0.5 -0.7 1.4
v 1.2 -0.7 1.4
v -1.3 -0.7 1.3
v -1.2 -0.7 1.3
v -1.1 -0.7 1.3
v -0.9 -0.7 1.3
v -0.5 -0.7 1.3
v -0.0999999 -0.7 1.3
v 0 -0.7 1.3
v 1.3 -0.7 1.3
v -0.0999999 -0.7 1.2
v 0 -0.7 1.2
v -1.2 -0.7 1.1
v -1.1 -0.7 1.1
v -0.2 -0.7 1.1
v -0.0999999 -0.7 1.1
v -1 -0.7 1
v -0.9 -0.7 1
v -0.2 -0.7 1
v -0.0999999 -0.7 1
v -1 -0.7 0.9
v -0.9 -0.7 0.9
v -0.8 -0.7 0.9
v -0.7 -0.7 0.9
v -0.5 -0.7 0.9
v -0.4 -0.7 0.9
v -0.3 -0.7 0.9
v -0.9 -0.7 0.8
v -0.8 -0.7 0.8
v -0.7 -0.7 0.8
v -0.5 -0.7 0.8
v -0.4 -0.7 0.8
v -0.3 -0.7 0.8
v -0.9 0.0999999 1.5
v -0.5 0.0999999 1.5
v -0.9 0.0999999 1.4
v -0.5 0.0999999 1.4
v -1.1 0.2 1.4
v -1 0.2 1.4
v -0.4 0.2 1.4
v -0.3 0.2 1.4
v -1.1 0.2 1.2
v -0.3 0.2 1.2
v -0.0999999 0.5 1.5
v 0.1 0.5 1.5
v -0.0999999 0.5 1.4
v 0.1 0.5 1.4
v 0.6 0.8 1.5
v 0.8 0.8 1.5
v 0.6 0.8 1.4
v 0.8 0.8 1.4
v -1.3 1.6 1.6
v -1.2 1.6 1.6
v 1.2 1.6 1.6
v 1.3 1.6 1.6
v -1.2 1.6 1.4
v 1.2 1.6 1.4
v -1.3 1.6 1.3
v 1.3 1.6 1.3
v -0.9 -1 1.5
v -0.5 -1 1.5
v -1.2 -1 1.4
v -0.9 -1 1.4
v -0.5 -1 1.4
v 0 -1 1.4
v -0.0999999 -1 1.2
v 0 -1 1.2
v -1.2 -1 1.1
v -1.1 -1 1.1
v -1 -1 1.1
v -0.0999999 -1 1.1
v -1 -1 1
v -0.3 -1 1
v -0.2 -1 1
v -0.0999999 -1 1
v -1 -1 0.9
v -0.9 -1 0.9
v -0.8 -1 0.9
v -0.7 -1 0.9
v -0.5 -1 0.9
v -0.4 -1 0.9
v -0.3 -1 0.9
v -0.9 -1 0.8
v -0.8 -1 0.8
v -0.7 -1 0.8
v -0.5 -1 0.8
v -0.4 -1 0.8
v -0.3 -1 0.8
v -1.3 -0.6 1.6
v -1.2 -0.6 1.6
v 1.2 -0.6 1.6
v 1.3 -0.6 1.6
v -1.2 -0.6 1.4
v -1 -0.6 1.4
v -0.9 -0.6 1.4
v -0.5 -0.6 1.4
v -0.4 -0.6 1.4
v 1.2 -0.6 1.4
v -1.3 -0.6 1.3
v -1.2 -0.6 1.3
v -1.1 -0.6 1.3
v -0.9 -0.6 1.3
v -0.5 -0.6 1.3
v -0.0999999 -0.6 1.3
v 0 -0.6 1.3
v 1.3 -0.6 1.3
v -1.2 -0.6 1.1
v -1.1 -0.6 1.1
v -1 -0.6 1.1
v -0.2 -0.6 1.1
v -0.0999999 -0.6 1.1
v 0 -0.6 1.1
v -1.1 -0.6 1
v -1 -0.6 1
v -0.9 -0.6 1
v -0.3 -0.6 1
v -0.2 -0.6 1
v -0.0999999 -0.6 1
v -1 -0.6 0.9
v -0.9 -0.6 0.9
v -0.3 -0.6 0.9
v -0.2 -0.6 0.9
v -0.9 -0.6 0.8
v -0.3 -0.6 0.8
v -0.0999999 0 1.5
v 0.1 0 1.5
v -0.0999999 0 1.4
v 0.1 0 1.4
v 0.6 0.3 1.5
v 0.8 0.3 1.5
v -1.1 0.3 1.4
v -0.3 0.3 1.4
v 0.6 0.3 1.4
v 0.8 0.3 1.4
v -1.1 0.3 1.2
v -0.3 0.3 1.2
v -1.3 1.7 1.6
v -1.2 1.7 1.6
v 1.2 1.7 1.6
v 1.3 1.7 1.6
v -1.2 1.7 1.4
v 1.2 1.7 1.4
v -1.3 1.7 1.3
v 1.3 1.7 1.3
v -1.2 2 1.6
v 1.2 2 1.6
v -1.2 2 1.4
v 1.2 2 1.4

# faces
f 3/5/1 2/5/1 1/5/1
f 4/5/1 2/5/1 3/5/1
f 7/5/1 6/5/1 5/5/1
f 8/5/1 6/5/1 7/5/1
f 11/8/1 10/8/1 9/8/1
f 12/8/1 10/8/1 11/8/1
f 13/8/1 10/8/1 12/8/1
f 14/2/1 12/2/1 11/2/1
f 15/2/1 12/2/1 14/2/1
f 20/3/1 17/3/1 16/3/1
f 21/3/1 17/3/1 20/3/1
f 22/4/1 19/4/1 18/4/1
f 23/4/1 19/4/1 22/4/1
f 24/1/1 23/1/1 22/1/1
f 25/1/1 23/1/1 24/1/1
f 26/6/1 25/6/1 24/6/1
f 27/6/1 25/6/1 26/6/1
f 30/8/1 29/8/1 28/8/1
f 31/8/1 29/8/1 30/8/1
f 34/8/1 33/8/1 32/8/1
f 35/8/1 33/8/1 34/8/1
f 36/3/1 35/3/1 34/3/1
f 37/3/1 35/3/1 36/3/1
f 38/3/1 35/3/1 37/3/1
f 41/3/1 40/3/1 39/3/1
f 42/3/1 40/3/1 41/3/1
f 45/8/1 44/8/1 43/8/1
f 46/8/1 44/8/1 45/8/1
f 49/3/1 48/3/1 47/3/1
f 50/3/1 48/3/1 49/3/1
f 53/8/1 52/8/1 51/8/1
f 54/8/1 52/8/1 53/8/1
f 57/3/1 56/3/1 55/3/1
f 58/3/1 56/3/1 57/3/1
f 61/3/1 60/3/1 59/3/1
f 62/3/1 60/3/1 61/3/1
f 67/2/1 64/2/1 63/2/1
f 68/2/1 64/2/1 67/2/1
f 69/2/1 64/2/1 68/2/1
f 71/3/1 66/3/1 65/3/1
f 72/3/1 66/3/1 71/3/1
f 73/5/1 70/5/1 69/5/1
f 73/5/1 69/5/1 68/5/1
f 74/5/1 70/5/1 73/5/1
f 75/5/1 70/5/1 74/5/1
f 76/3/1 74/3/1 73/3/1
f 77/3/1 74/3/1 76/3/1
f 80/3/1 79/3/1 78/3/1
f 81/3/1 80/3/1 78/3/1
f 82/3/1 80/3/1 81/3/1
f 85/3/1 84/3/1 83/3/1
f 86/3/1 84/3/1 85/3/1
f 90/3/1 88/3/1 87/3/1
f 91/3/1 88/3/1 90/3/1
f 92/3/1 90/3/1 89/3/1
f 92/3/1 91/3/1 90/3/1
f 93/3/1 91/3/1 92/3/1
f 96/6/1 95/6/1 94/6/1
f 97/6/1 95/6/1 96/6/1
f 100/6/1 99/6/1 98/6/1
f 101/6/1 99/6/1 100/6/1
f 102/3/2 103/3/2 104/3/2
f 104/3/2 103/3/2 105/3/2
f 106/3/2 107/3/2 108/3/2
f 106/3/2 108/3/2 109/3/2
f 109/3/2 108/3/2 110/3/2
f 111/2/2 112/2/2 113/2/2
f 113/2/2 112/2/2 114/2/2
f 114/2/2 112/2/2 115/2/2
f 114/5/2 115/5/2 119/5/2
f 115/5/2 116/5/2 119/5/2
f 119/5/2 116/5/2 120/5/2
f 120/5/2 116/5/2 121/5/2
f 117/3/2 118/3/2 122/3/2
f 122/3/2 118/3/2 123/3/2
f 119/3/2 120/3/2 124/3/2
f 124/3/2 120/3/2 125/3/2
f 126/3/2 127/3/2 128/3/2
f 128/3/2 127/3/2 129/3/2
f 130/3/2 131/3/2 132/3/2
f 132/3/2 131/3/2 133/3/2
f 134/8/2 135/8/2 136/8/2
f 136/8/2 135/8/2 137/8/2
f 138/3/2 139/3/2 140/3/2
f 140/3/2 139/3/2 141/3/2
f 142/3/2 143/3/2 144/3/2
f 144/3/2 143/3/2 145/3/2
f 146/8/2 147/8/2 148/8/2
f 148/8/2 147/8/2 149/8/2
f 148/3/2 149/3/2 150/3/2
f 150/3/2 149/3/2 151/3/2
f 151/3/2 149/3/2 152/3/2
f 153/8/2 154/8/2 155/8/2
f 155/8/2 154/8/2 156/8/2
f 157/3/2 158/3/2 159/3/2
f 159/3/2 158/3/2 160/3/2
f 161/6/2 162/6/2 163/6/2
f 163/6/2 162/6/2 164/6/2
f 165/8/2 166/8/2 167/8/2
f 167/8/2 166/8/2 168/8/2
f 168/8/2 166/8/2 169/8/2
f 168/3/2 169/3/2 171/3/2
f 170/3/2 171/3/2 172/3/2
f 171/3/2 169/3/2 173/3/2
f 172/3/2 171/3/2 173/3/2
f 174/6/2 175/6/2 176/6/2
f 176/6/2 175/6/2 177/6/2
f 178/8/2 179/8/2 180/8/2
f 180/8/2 179/8/2 181/8/2
f 180/2/2 181/2/2 182/2/2
f 182/2/2 181/2/2 183/2/2
f 184/4/2 185/4/2 186/4/2
f 186/4/2 185/4/2 187/4/2
f 186/1/2 187/1/2 188/1/2
f 188/1/2 187/1/2 189/1/2
f 188/6/2 189/6/2 190/6/2
f 190/6/2 189/6/2 191/6/2
f 192/8/2 193/8/2 194/8/2
f 194/8/2 193/8/2 195/8/2
f 196/5/2 197/5/2 198/5/2
f 198/5/2 197/5/2 199/5/2
f 200/5/2 201/5/2 202/5/2
f 202/5/2 201/5/2 203/5/2
f 210/5/3 205/5/3 204/5/3
f 211/5/3 205/5/3 210/5/3
f 214/5/3 207/5/3 206/5/3
f 215/5/3 207/5/3 214/5/3
f 217/2/3 210/2/3 209/2/3
f 218/4/3 211/4/3 210/4/3
f 218/2/3 210/2/3 217/2/3
f 218/4/3 212/4/3 211/4/3
f 219/4/3 212/4/3 218/4/3
f 220/2/3 217/2/3 209/2/3
f 220/9/3 218/9/3 217/9/3
f 220/9/3 219/9/3 218/9/3
f 221/9/3 219/9/3 220/9/3
f 222/4/3 212/4/3 219/4/3
f 222/9/3 219/9/3 221/9/3
f 223/4/3 222/4/3 221/4/3
f 224/4/3 212/4/3 222/4/3
f 224/4/3 222/4/3 223/4/3
f 225/4/3 223/4/3 221/4/3
f 225/7/3 224/7/3 223/7/3
f 226/4/3 212/4/3 224/4/3
f 226/7/3 224/7/3 225/7/3
f 227/4/3 226/4/3 225/4/3
f 228/4/3 212/4/3 226/4/3
f 228/4/3 226/4/3 227/4/3
f 229/4/3 227/4/3 225/4/3
f 229/7/3 228/7/3 227/7/3
f 230/4/3 212/4/3 228/4/3
f 230/7/3 228/7/3 229/7/3
f 231/8/3 209/8/3 208/8/3
f 232/2/3 221/2/3 220/2/3
f 232/8/3 209/8/3 231/8/3
f 232/2/3 220/2/3 209/2/3
f 233/4/3 230/4/3 229/4/3
f 233/2/3 221/2/3 232/2/3
f 233/4/3 225/4/3 221/4/3
f 233/4/3 229/4/3 225/4/3
f 234/4/3 230/4/3 233/4/3
f 235/4/3 212/4/3 230/4/3
f 235/4/3 230/4/3 234/4/3
f 235/1/3 213/1/3 212/1/3
f 236/6/3 214/6/3 213/6/3
f 236/1/3 213/1/3 235/1/3
f 237/5/3 215/5/3 214/5/3
f 237/6/3 214/6/3 236/6/3
f 238/8/3 216/8/3 215/8/3
f 238/5/3 215/5/3 237/5/3
f 239/8/3 216/8/3 238/8/3
f 240/5/3 234/5/3 233/5/3
f 241/5/3 234/5/3 240/5/3
f 242/5/3 238/5/3 237/5/3
f 243/5/3 238/5/3 242/5/3
f 246/3/3 245/3/3 244/3/3
f 247/3/3 245/3/3 246/3/3
f 251/3/3 249/3/3 248/3/3
f 251/3/3 250/3/3 249/3/3
f 252/3/3 250/3/3 251/3/3
f 255/3/3 254/3/3 253/3/3
f 256/3/3 254/3/3 255/3/3
f 259/3/3 258/3/3 257/3/3
f 260/3/3 258/3/3 259/3/3
f 263/3/3 262/3/3 261/3/3
f 264/3/3 262/3/3 263/3/3
f 265/3/3 262/3/3 264/3/3
f 269/3/3 267/3/3 266/3/3
f 270/3/3 269/3/3 268/3/3
f 271/3/3 267/3/3 269/3/3
f 271/3/3 269/3/3 270/3/3
f 273/3/3 267/3/3 271/3/3
f 274/3/3 273/3/3 272/3/3
f 275/3/3 267/3/3 273/3/3
f 275/3/3 273/3/3 274/3/3
f 276/3/3 267/3/3 275/3/3
f 277/3/3 267/3/3 276/3/3
f 278/2/4 279/2/4 283/2/4
f 281/9/4 282/9/4 284/9/4
f 283/2/4 279/2/4 284/2/4
f 279/9/4 280/9/4 284/9/4
f 280/9/4 281/9/4 284/9/4
f 284/9/4 282/9/4 285/9/4
f 285/9/4 282/9/4 286/9/4
f 286/9/4 282/9/4 287/9/4
f 288/7/4 289/7/4 290/7/4
f 290/7/4 289/7/4 291/7/4
f 292/7/4 293/7/4 294/7/4
f 294/7/4 293/7/4 295/7/4
f 298/4/4 299/4/4 304/4/4
f 304/4/4 299/4/4 305/4/4
f 298/4/4 304/4/4 306/4/4
f 306/4/4 304/4/4 307/4/4
f 296/2/4 297/2/4 308/2/4
f 308/2/4 297/2/4 309/2/4
f 306/3/4 307/3/4 310/3/4
f 310/3/4 307/3/4 311/3/4
f 311/3/4 307/3/4 315/3/4
f 314/3/4 315/3/4 316/3/4
f 315/3/4 307/3/4 317/3/4
f 316/3/4 315/3/4 317/3/4
f 316/4/4 317/4/4 318/4/4
f 305/4/4 299/4/4 319/4/4
f 316/4/4 318/4/4 320/4/4
f 318/4/4 319/4/4 320/4/4
f 319/4/4 299/4/4 321/4/4
f 320/4/4 319/4/4 321/4/4
f 320/6/4 321/6/4 322/6/4
f 322/6/4 321/6/4 323/6/4
f 312/2/4 313/2/4 325/2/4
f 320/6/4 322/6/4 326/6/4
f 323/6/4 321/6/4 327/6/4
f 316/4/4 320/4/4 328/4/4
f 326/6/4 327/6/4 328/6/4
f 320/6/4 326/6/4 328/6/4
f 327/6/4 321/6/4 329/6/4
f 328/6/4 327/6/4 329/6/4
f 321/4/4 299/4/4 329/4/4
f 328/4/4 329/4/4 330/4/4
f 329/4/4 299/4/4 331/4/4
f 330/4/4 329/4/4 331/4/4
f 330/6/4 331/6/4 332/6/4
f 332/6/4 331/6/4 333/6/4
f 330/6/4 332/6/4 334/6/4
f 333/6/4 331/6/4 335/6/4
f 328/4/4 330/4/4 336/4/4
f 334/6/4 335/6/4 336/6/4
f 330/6/4 334/6/4 336/6/4
f 335/6/4 331/6/4 337/6/4
f 336/6/4 335/6/4 337/6/4
f 331/4/4 299/4/4 337/4/4
f 324/8/4 325/8/4 338/8/4
f 325/2/4 313/2/4 339/2/4
f 338/8/4 325/8/4 339/8/4
f 339/2/4 313/2/4 340/2/4
f 316/4/4 328/4/4 341/4/4
f 328/4/4 336/4/4 341/4/4
f 336/4/4 337/4/4 341/4/4
f 299/1/4 300/1/4 342/1/4
f 341/4/4 337/4/4 342/4/4
f 337/4/4 299/4/4 342/4/4
f 300/6/4 301/6/4 343/6/4
f 342/1/4 300/1/4 343/1/4
f 343/6/4 301/6/4 344/6/4
f 302/8/4 303/8/4 345/8/4
f 345/8/4 303/8/4 346/8/4
f 347/5/4 348/5/4 351/5/4
f 351/5/4 348/5/4 352/5/4
f 353/5/4 354/5/4 355/5/4
f 355/5/4 354/5/4 356/5/4
f 357/5/4 358/5/4 359/5/4
f 359/5/4 358/5/4 360/5/4
f 361/5/4 362/5/4 363/5/4
f 363/5/4 362/5/4 364/5/4
f 349/5/4 350/5/4 365/5/4
f 365/5/4 350/5/4 366/5/4
f 367/3/4 368/3/4 369/3/4
f 369/3/4 368/3/4 370/3/4
f 371/8/4 372/8/4 375/8/4
f 375/8/4 372/8/4 376/8/4
f 373/3/4 374/3/4 377/3/4
f 377/3/4 374/3/4 378/3/4
f 379/8/4 380/8/4 383/8/4
f 381/3/4 382/3/4 384/3/4
f 383/8/4 380/8/4 384/8/4
f 380/3/4 381/3/4 384/3/4
f 384/3/4 382/3/4 385/3/4
f 386/8/4 387/8/4 389/8/4
f 387/3/4 388/3/4 390/3/4
f 389/8/4 387/8/4 390/8/4
f 390/3/4 388/3/4 391/3/4
f 391/3/4 388/3/4 392/3/4
f 393/8/4 394/8/4 397/8/4
f 397/8/4 394/8/4 398/8/4
f 395/3/4 396/3/4 399/3/4
f 399/3/4 396/3/4 400/3/4
f 401/8/4 402/8/4 405/8/4
f 405/8/4 402/8/4 406/8/4
f 403/3/4 404/3/4 407/3/4
f 407/3/4 404/3/4 408/3/4
f 409/8/4 410/8/4 413/8/4
f 411/3/4 412/3/4 414/3/4
f 413/8/4 410/8/4 414/8/4
f 410/3/4 411/3/4 414/3/4
f 414/3/4 412/3/4 415/3/4
f 416/8/4 417/8/4 420/8/4
f 418/3/4 419/3/4 421/3/4
f 416/8/4 420/8/4 422/8/4
f 420/3/4 421/3/4 422/3/4
f 421/3/4 419/3/4 423/3/4
f 422/3/4 421/3/4 423/3/4
f 416/8/4 422/8/4 424/8/4
f 423/3/4 419/3/4 425/3/4
f 416/8/4 424/8/4 426/8/4
f 424/3/4 425/3/4 426/3/4
f 425/3/4 419/3/4 427/3/4
f 426/3/4 425/3/4 427/3/4
f 416/8/4 426/8/4 428/8/4
f 428/8/4 426/8/4 429/8/4
f 427/3/4 419/3/4 430/3/4
f 430/3/4 419/3/4 431/3/4
f 434/8/5 433/8/5 432/8/5
f 435/8/5 433/8/5 434/8/5
f 436/8/5 434/8/5 432/8/5
f 437/8/5 434/8/5 436/8/5
f 438/8/5 434/8/5 437/8/5
f 439/8/5 434/8/5 438/8/5
f 440/8/5 438/8/5 437/8/5
f 441/8/5 438/8/5 440/8/5
f 442/8/5 438/8/5 441/8/5
f 443/8/5 438/8/5 442/8/5
f 444/8/5 442/8/5 441/8/5
f 445/8/5 442/8/5 444/8/5
f 446/8/5 442/8/5 445/8/5
f 447/8/5 442/8/5 446/8/5
f 448/8/5 446/8/5 445/8/5
f 449/8/5 446/8/5 448/8/5
f 454/5/5 451/5/5 450/5/5
f 457/5/5 453/5/5 452/5/5
f 458/5/5 455/5/5 454/5/5
f 458/5/5 454/5/5 450/5/5
f 459/5/5 455/5/5 458/5/5
f 460/5/5 455/5/5 459/5/5
f 461/5/5 455/5/5 460/5/5
f 462/5/5 457/5/5 456/5/5
f 463/5/5 457/5/5 462/5/5
f 464/5/5 457/5/5 463/5/5
f 465/5/5 453/5/5 457/5/5
f 465/5/5 457/5/5 464/5/5
f 466/3/5 464/3/5 463/3/5
f 467/3/5 464/3/5 466/3/5
f 468/3/5 460/3/5 459/3/5
f 469/3/5 460/3/5 468/3/5
f 474/3/5 471/3/5 470/3/5
f 475/3/5 471/3/5 474/3/5
f 476/3/5 473/3/5 472/3/5
f 477/3/5 473/3/5 476/3/5
f 483/3/5 478/3/5 477/3/5
f 484/3/5 478/3/5 483/3/5
f 485/3/5 480/3/5 479/3/5
f 486/3/5 480/3/5 485/3/5
f 487/3/5 482/3/5 481/3/5
f 488/3/5 482/3/5 487/3/5
f 491/3/5 490/3/5 489/3/5
f 492/3/5 490/3/5 491/3/5
f 497/3/5 494/3/5 493/3/5
f 497/3/5 496/3/5 495/3/5
f 497/3/5 495/3/5 494/3/5
f 498/3/5 496/3/5 497/3/5
f 501/6/5 500/6/5 499/6/5
f 502/6/5 500/6/5 501/6/5
f 505/6/5 504/6/5 503/6/5
f 506/6/5 504/6/5 505/6/5
f 511/5/5 508/5/5 507/5/5
f 512/5/5 510/5/5 509/5/5
f 513/5/5 511/5/5 507/5/5
f 513/5/5 512/5/5 511/5/5
f 514/5/5 510/5/5 512/5/5
f 514/5/5 512/5/5 513/5/5
f 515/8/6 516/8/6 518/8/6
f 518/8/6 516/8/6 519/8/6
f 517/8/6 518/8/6 521/8/6
f 519/8/6 520/8/6 521/8/6
f 518/8/6 519/8/6 521/8/6
f 521/8/6 520/8/6 522/8/6
f 517/8/6 521/8/6 523/8/6
f 523/8/6 521/8/6 524/8/6
f 524/8/6 521/8/6 525/8/6
f 525/8/6 521/8/6 526/8/6
f 525/8/6 526/8/6 527/8/6
f 527/8/6 526/8/6 528/8/6
f 528/8/6 526/8/6 529/8/6
f 529/8/6 526/8/6 530/8/6
f 527/8/6 528/8/6 531/8/6
f 531/8/6 528/8/6 532/8/6
f 532/8/6 528/8/6 533/8/6
f 533/8/6 528/8/6 534/8/6
f 534/8/6 528/8/6 535/8/6
f 535/8/6 528/8/6 536/8/6
f 536/8/6 528/8/6 537/8/6
f 532/8/6 533/8/6 538/8/6
f 538/8/6 533/8/6 539/8/6
f 534/8/6 535/8/6 540/8/6
f 540/8/6 535/8/6 541/8/6
f 536/8/6 537/8/6 542/8/6
f 542/8/6 537/8/6 543/8/6
f 544/5/6 545/5/6 548/5/6
f 546/5/6 547/5/6 553/5/6
f 544/5/6 548/5/6 554/5/6
f 548/5/6 549/5/6 554/5/6
f 549/5/6 550/5/6 554/5/6
f 554/5/6 550/5/6 555/5/6
f 555/5/6 550/5/6 556/5/6
f 556/5/6 550/5/6 557/5/6
f 551/5/6 552/5/6 558/5/6
f 552/5/6 553/5/6 558/5/6
f 558/5/6 553/5/6 559/5/6
f 559/5/6 553/5/6 560/5/6
f 553/5/6 547/5/6 561/5/6
f 560/5/6 553/5/6 561/5/6
f 555/3/6 556/3/6 562/3/6
f 562/3/6 556/3/6 563/3/6
f 559/3/6 560/3/6 566/3/6
f 566/3/6 560/3/6 567/3/6
f 563/3/6 564/3/6 568/3/6
f 568/3/6 564/3/6 569/3/6
f 565/3/6 566/3/6 572/3/6
f 572/3/6 566/3/6 573/3/6
f 569/3/6 570/3/6 574/3/6
f 574/3/6 570/3/6 575/3/6
f 571/3/6 572/3/6 576/3/6
f 576/3/6 572/3/6 577/3/6
f 575/3/6 576/3/6 578/3/6
f 578/3/6 576/3/6 579/3/6
f 580/6/6 581/6/6 582/6/6
f 582/6/6 581/6/6 583/6/6
f 584/6/6 585/6/6 588/6/6
f 588/6/6 585/6/6 589/6/6
f 586/3/6 587/3/6 590/3/6
f 590/3/6 587/3/6 591/3/6
f 592/5/6 593/5/6 596/5/6
f 594/5/6 595/5/6 597/5/6
f 592/5/6 596/5/6 598/5/6
f 596/5/6 597/5/6 598/5/6
f 597/5/6 595/5/6 599/5/6
f 598/5/6 597/5/6 599/5/6
f 600/8/6 601/8/6 602/8/6
f 602/8/6 601/8/6 603/8/6
