<?xml version="1.0" encoding="utf-8" standalone="no"?>
<!DOCTYPE svg PUBLIC "-//W3C//DTD SVG 1.1//EN"
  "http://www.w3.org/Graphics/SVG/1.1/DTD/svg11.dtd">
<!-- Created with matplotlib (http://matplotlib.org/) -->
<svg height="216pt" version="1.1" viewBox="0 0 864 216" width="864pt" xmlns="http://www.w3.org/2000/svg" xmlns:xlink="http://www.w3.org/1999/xlink">
 <defs>
  <style type="text/css">
*{stroke-linecap:butt;stroke-linejoin:round;}
  </style>
 </defs>
 <g id="figure_1">
  <g id="patch_1">
   <path d="M 0 216 
L 864 216 
L 864 0 
L 0 0 
z
" style="fill:#ffffff;"/>
  </g>
  <g id="axes_1">
   <g id="patch_2">
    <path d="M 33.675 188.2 
L 849.7 188.2 
L 849.7 14.3 
L 33.675 14.3 
z
" style="fill:#ffffff;"/>
   </g>
   <g id="PolyCollection_1">
    <defs>
     <path d="M -17.326562 -35.704545 
L -17.326562 -35.704545 
L -10.811524 -36.078013 
L -4.296486 -38.400764 
L 2.218552 -43.874845 
L 8.733591 -52.997124 
L 15.248629 -65.680288 
L 21.763667 -81.37383 
L 28.278706 -99.185046 
L 34.793744 -118.00002 
L 41.308782 -136.604625 
L 47.823821 -153.805507 
L 54.338859 -168.551082 
L 60.853897 -180.052526 
L 67.368935 -187.904768 
L 73.883974 -192.207482 
L 80.399012 -193.686078 
L 86.91405 -193.779313 
L 93.429089 -192.920821 
L 99.944127 -189.613186 
L 106.459165 -182.910183 
L 112.974204 -172.529214 
L 119.489242 -158.73031 
L 126.00428 -142.195141 
L 132.519319 -123.906024 
L 139.034357 -105.024932 
L 145.549395 -86.772498 
L 152.064433 -70.30703 
L 158.579472 -56.603511 
L 165.09451 -46.332613 
L 171.609548 -39.739701 
L 178.124587 -36.523842 
L 184.639625 -35.716816 
L 184.639625 -35.704545 
L 184.639625 -35.704545 
L 178.124587 -35.704545 
L 171.609548 -35.704545 
L 165.09451 -35.704545 
L 158.579472 -35.704545 
L 152.064433 -35.704545 
L 145.549395 -35.704545 
L 139.034357 -35.704545 
L 132.519319 -35.704545 
L 126.00428 -35.704545 
L 119.489242 -35.704545 
L 112.974204 -35.704545 
L 106.459165 -35.704545 
L 99.944127 -35.704545 
L 93.429089 -35.704545 
L 86.91405 -35.704545 
L 80.399012 -35.704545 
L 73.883974 -35.704545 
L 67.368935 -35.704545 
L 60.853897 -35.704545 
L 54.338859 -35.704545 
L 47.823821 -35.704545 
L 41.308782 -35.704545 
L 34.793744 -35.704545 
L 28.278706 -35.704545 
L 21.763667 -35.704545 
L 15.248629 -35.704545 
L 8.733591 -35.704545 
L 2.218552 -35.704545 
L -4.296486 -35.704545 
L -10.811524 -35.704545 
L -17.326562 -35.704545 
z
" id="mb5380ee02e" style="stroke:#cc00cc;stroke-opacity:0.35;"/>
    </defs>
    <g clip-path="url(#pc2c1e22b95)">
     <use style="fill:#cc00cc;fill-opacity:0.35;stroke:#cc00cc;stroke-opacity:0.35;" x="0" xlink:href="#mb5380ee02e" y="216"/>
    </g>
   </g>
   <g id="PolyCollection_2">
    <defs>
     <path d="M 84.676563 -35.704545 
L 84.676563 -35.704545 
L 91.191601 -36.078013 
L 97.706639 -38.400764 
L 104.221677 -43.874845 
L 110.736716 -52.997124 
L 117.251754 -65.680288 
L 123.766792 -81.37383 
L 130.281831 -99.185046 
L 136.796869 -118.00002 
L 143.311907 -136.604625 
L 149.826946 -153.805507 
L 156.341984 -168.551082 
L 162.857022 -180.052526 
L 169.37206 -187.904768 
L 175.887099 -192.207482 
L 182.402137 -193.686078 
L 188.917175 -193.779313 
L 195.432214 -192.920821 
L 201.947252 -189.613186 
L 208.46229 -182.910183 
L 214.977329 -172.529214 
L 221.492367 -158.73031 
L 228.007405 -142.195141 
L 234.522444 -123.906024 
L 241.037482 -105.024932 
L 247.55252 -86.772498 
L 254.067558 -70.30703 
L 260.582597 -56.603511 
L 267.097635 -46.332613 
L 273.612673 -39.739701 
L 280.127712 -36.523842 
L 286.64275 -35.716816 
L 286.64275 -35.704545 
L 286.64275 -35.704545 
L 280.127712 -35.704545 
L 273.612673 -35.704545 
L 267.097635 -35.704545 
L 260.582597 -35.704545 
L 254.067558 -35.704545 
L 247.55252 -35.704545 
L 241.037482 -35.704545 
L 234.522444 -35.704545 
L 228.007405 -35.704545 
L 221.492367 -35.704545 
L 214.977329 -35.704545 
L 208.46229 -35.704545 
L 201.947252 -35.704545 
L 195.432214 -35.704545 
L 188.917175 -35.704545 
L 182.402137 -35.704545 
L 175.887099 -35.704545 
L 169.37206 -35.704545 
L 162.857022 -35.704545 
L 156.341984 -35.704545 
L 149.826946 -35.704545 
L 143.311907 -35.704545 
L 136.796869 -35.704545 
L 130.281831 -35.704545 
L 123.766792 -35.704545 
L 117.251754 -35.704545 
L 110.736716 -35.704545 
L 104.221677 -35.704545 
L 97.706639 -35.704545 
L 91.191601 -35.704545 
L 84.676563 -35.704545 
z
" id="mdb0698ace9" style="stroke:#66ff66;stroke-opacity:0.35;"/>
    </defs>
    <g clip-path="url(#pc2c1e22b95)">
     <use style="fill:#66ff66;fill-opacity:0.35;stroke:#66ff66;stroke-opacity:0.35;" x="0" xlink:href="#mdb0698ace9" y="216"/>
    </g>
   </g>
   <g id="PolyCollection_3">
    <defs>
     <path d="M 186.679688 -35.704545 
L 186.679688 -35.704545 
L 193.194726 -36.078013 
L 199.709764 -38.400764 
L 206.224802 -43.874845 
L 212.739841 -52.997124 
L 219.254879 -65.680288 
L 225.769917 -81.37383 
L 232.284956 -99.185046 
L 238.799994 -118.00002 
L 245.315032 -136.604625 
L 251.830071 -153.805507 
L 258.345109 -168.551082 
L 264.860147 -180.052526 
L 271.375185 -187.904768 
L 277.890224 -192.207482 
L 284.405262 -193.686078 
L 290.9203 -193.779313 
L 297.435339 -192.920821 
L 303.950377 -189.613186 
L 310.465415 -182.910183 
L 316.980454 -172.529214 
L 323.495492 -158.73031 
L 330.01053 -142.195141 
L 336.525569 -123.906024 
L 343.040607 -105.024932 
L 349.555645 -86.772498 
L 356.070683 -70.30703 
L 362.585722 -56.603511 
L 369.10076 -46.332613 
L 375.615798 -39.739701 
L 382.130837 -36.523842 
L 388.645875 -35.716816 
L 388.645875 -35.704545 
L 388.645875 -35.704545 
L 382.130837 -35.704545 
L 375.615798 -35.704545 
L 369.10076 -35.704545 
L 362.585722 -35.704545 
L 356.070683 -35.704545 
L 349.555645 -35.704545 
L 343.040607 -35.704545 
L 336.525569 -35.704545 
L 330.01053 -35.704545 
L 323.495492 -35.704545 
L 316.980454 -35.704545 
L 310.465415 -35.704545 
L 303.950377 -35.704545 
L 297.435339 -35.704545 
L 290.9203 -35.704545 
L 284.405262 -35.704545 
L 277.890224 -35.704545 
L 271.375185 -35.704545 
L 264.860147 -35.704545 
L 258.345109 -35.704545 
L 251.830071 -35.704545 
L 245.315032 -35.704545 
L 238.799994 -35.704545 
L 232.284956 -35.704545 
L 225.769917 -35.704545 
L 219.254879 -35.704545 
L 212.739841 -35.704545 
L 206.224802 -35.704545 
L 199.709764 -35.704545 
L 193.194726 -35.704545 
L 186.679688 -35.704545 
z
" id="md16e7f6303" style="stroke:#ff6666;stroke-opacity:0.35;"/>
    </defs>
    <g clip-path="url(#pc2c1e22b95)">
     <use style="fill:#ff6666;fill-opacity:0.35;stroke:#ff6666;stroke-opacity:0.35;" x="0" xlink:href="#md16e7f6303" y="216"/>
    </g>
   </g>
   <g id="PolyCollection_4">
    <defs>
     <path d="M 288.682813 -35.704545 
L 288.682813 -35.704545 
L 295.197851 -36.078013 
L 301.712889 -38.400764 
L 308.227927 -43.874845 
L 314.742966 -52.997124 
L 321.258004 -65.680288 
L 327.773042 -81.37383 
L 334.288081 -99.185046 
L 340.803119 -118.00002 
L 347.318157 -136.604625 
L 353.833196 -153.805507 
L 360.348234 -168.551082 
L 366.863272 -180.052526 
L 373.37831 -187.904768 
L 379.893349 -192.207482 
L 386.408387 -193.686078 
L 392.923425 -193.779313 
L 399.438464 -192.920821 
L 405.953502 -189.613186 
L 412.46854 -182.910183 
L 418.983579 -172.529214 
L 425.498617 -158.73031 
L 432.013655 -142.195141 
L 438.528694 -123.906024 
L 445.043732 -105.024932 
L 451.55877 -86.772498 
L 458.073808 -70.30703 
L 464.588847 -56.603511 
L 471.103885 -46.332613 
L 477.618923 -39.739701 
L 484.133962 -36.523842 
L 490.649 -35.716816 
L 490.649 -35.704545 
L 490.649 -35.704545 
L 484.133962 -35.704545 
L 477.618923 -35.704545 
L 471.103885 -35.704545 
L 464.588847 -35.704545 
L 458.073808 -35.704545 
L 451.55877 -35.704545 
L 445.043732 -35.704545 
L 438.528694 -35.704545 
L 432.013655 -35.704545 
L 425.498617 -35.704545 
L 418.983579 -35.704545 
L 412.46854 -35.704545 
L 405.953502 -35.704545 
L 399.438464 -35.704545 
L 392.923425 -35.704545 
L 386.408387 -35.704545 
L 379.893349 -35.704545 
L 373.37831 -35.704545 
L 366.863272 -35.704545 
L 360.348234 -35.704545 
L 353.833196 -35.704545 
L 347.318157 -35.704545 
L 340.803119 -35.704545 
L 334.288081 -35.704545 
L 327.773042 -35.704545 
L 321.258004 -35.704545 
L 314.742966 -35.704545 
L 308.227927 -35.704545 
L 301.712889 -35.704545 
L 295.197851 -35.704545 
L 288.682813 -35.704545 
z
" id="mf3da64c0de" style="stroke:#00cccc;stroke-opacity:0.35;"/>
    </defs>
    <g clip-path="url(#pc2c1e22b95)">
     <use style="fill:#00cccc;fill-opacity:0.35;stroke:#00cccc;stroke-opacity:0.35;" x="0" xlink:href="#mf3da64c0de" y="216"/>
    </g>
   </g>
   <g id="PolyCollection_5">
    <defs>
     <path d="M 390.685938 -35.704545 
L 390.685938 -35.704545 
L 397.200976 -36.078013 
L 403.716014 -38.400764 
L 410.231052 -43.874845 
L 416.746091 -52.997124 
L 423.261129 -65.680288 
L 429.776167 -81.37383 
L 436.291206 -99.185046 
L 442.806244 -118.00002 
L 449.321282 -136.604625 
L 455.836321 -153.805507 
L 462.351359 -168.551082 
L 468.866397 -180.052526 
L 475.381435 -187.904768 
L 481.896474 -192.207482 
L 488.411512 -193.686078 
L 494.92655 -193.779313 
L 501.441589 -192.920821 
L 507.956627 -189.613186 
L 514.471665 -182.910183 
L 520.986704 -172.529214 
L 527.501742 -158.73031 
L 534.01678 -142.195141 
L 540.531819 -123.906024 
L 547.046857 -105.024932 
L 553.561895 -86.772498 
L 560.076933 -70.30703 
L 566.591972 -56.603511 
L 573.10701 -46.332613 
L 579.622048 -39.739701 
L 586.137087 -36.523842 
L 592.652125 -35.716816 
L 592.652125 -35.704545 
L 592.652125 -35.704545 
L 586.137087 -35.704545 
L 579.622048 -35.704545 
L 573.10701 -35.704545 
L 566.591972 -35.704545 
L 560.076933 -35.704545 
L 553.561895 -35.704545 
L 547.046857 -35.704545 
L 540.531819 -35.704545 
L 534.01678 -35.704545 
L 527.501742 -35.704545 
L 520.986704 -35.704545 
L 514.471665 -35.704545 
L 507.956627 -35.704545 
L 501.441589 -35.704545 
L 494.92655 -35.704545 
L 488.411512 -35.704545 
L 481.896474 -35.704545 
L 475.381435 -35.704545 
L 468.866397 -35.704545 
L 462.351359 -35.704545 
L 455.836321 -35.704545 
L 449.321282 -35.704545 
L 442.806244 -35.704545 
L 436.291206 -35.704545 
L 429.776167 -35.704545 
L 423.261129 -35.704545 
L 416.746091 -35.704545 
L 410.231052 -35.704545 
L 403.716014 -35.704545 
L 397.200976 -35.704545 
L 390.685938 -35.704545 
z
" id="m7ad398f51a" style="stroke:#cc00cc;stroke-opacity:0.35;"/>
    </defs>
    <g clip-path="url(#pc2c1e22b95)">
     <use style="fill:#cc00cc;fill-opacity:0.35;stroke:#cc00cc;stroke-opacity:0.35;" x="0" xlink:href="#m7ad398f51a" y="216"/>
    </g>
   </g>
   <g id="PolyCollection_6">
    <defs>
     <path d="M 492.689063 -35.704545 
L 492.689063 -35.704545 
L 499.204101 -36.078013 
L 505.719139 -38.400764 
L 512.234177 -43.874845 
L 518.749216 -52.997124 
L 525.264254 -65.680288 
L 531.779292 -81.37383 
L 538.294331 -99.185046 
L 544.809369 -118.00002 
L 551.324407 -136.604625 
L 557.839446 -153.805507 
L 564.354484 -168.551082 
L 570.869522 -180.052526 
L 577.38456 -187.904768 
L 583.899599 -192.207482 
L 590.414637 -193.686078 
L 596.929675 -193.779313 
L 603.444714 -192.920821 
L 609.959752 -189.613186 
L 616.47479 -182.910183 
L 622.989829 -172.529214 
L 629.504867 -158.73031 
L 636.019905 -142.195141 
L 642.534944 -123.906024 
L 649.049982 -105.024932 
L 655.56502 -86.772498 
L 662.080058 -70.30703 
L 668.595097 -56.603511 
L 675.110135 -46.332613 
L 681.625173 -39.739701 
L 688.140212 -36.523842 
L 694.65525 -35.716816 
L 694.65525 -35.704545 
L 694.65525 -35.704545 
L 688.140212 -35.704545 
L 681.625173 -35.704545 
L 675.110135 -35.704545 
L 668.595097 -35.704545 
L 662.080058 -35.704545 
L 655.56502 -35.704545 
L 649.049982 -35.704545 
L 642.534944 -35.704545 
L 636.019905 -35.704545 
L 629.504867 -35.704545 
L 622.989829 -35.704545 
L 616.47479 -35.704545 
L 609.959752 -35.704545 
L 603.444714 -35.704545 
L 596.929675 -35.704545 
L 590.414637 -35.704545 
L 583.899599 -35.704545 
L 577.38456 -35.704545 
L 570.869522 -35.704545 
L 564.354484 -35.704545 
L 557.839446 -35.704545 
L 551.324407 -35.704545 
L 544.809369 -35.704545 
L 538.294331 -35.704545 
L 531.779292 -35.704545 
L 525.264254 -35.704545 
L 518.749216 -35.704545 
L 512.234177 -35.704545 
L 505.719139 -35.704545 
L 499.204101 -35.704545 
L 492.689063 -35.704545 
z
" id="mfa798da304" style="stroke:#66ff66;stroke-opacity:0.35;"/>
    </defs>
    <g clip-path="url(#pc2c1e22b95)">
     <use style="fill:#66ff66;fill-opacity:0.35;stroke:#66ff66;stroke-opacity:0.35;" x="0" xlink:href="#mfa798da304" y="216"/>
    </g>
   </g>
   <g id="PolyCollection_7">
    <defs>
     <path d="M 594.692188 -35.704545 
L 594.692188 -35.704545 
L 601.207226 -36.078013 
L 607.722264 -38.400764 
L 614.237302 -43.874845 
L 620.752341 -52.997124 
L 627.267379 -65.680288 
L 633.782417 -81.37383 
L 640.297456 -99.185046 
L 646.812494 -118.00002 
L 653.327532 -136.604625 
L 659.842571 -153.805507 
L 666.357609 -168.551082 
L 672.872647 -180.052526 
L 679.387685 -187.904768 
L 685.902724 -192.207482 
L 692.417762 -193.686078 
L 698.9328 -193.779313 
L 705.447839 -192.920821 
L 711.962877 -189.613186 
L 718.477915 -182.910183 
L 724.992954 -172.529214 
L 731.507992 -158.73031 
L 738.02303 -142.195141 
L 744.538069 -123.906024 
L 751.053107 -105.024932 
L 757.568145 -86.772498 
L 764.083183 -70.30703 
L 770.598222 -56.603511 
L 777.11326 -46.332613 
L 783.628298 -39.739701 
L 790.143337 -36.523842 
L 796.658375 -35.716816 
L 796.658375 -35.704545 
L 796.658375 -35.704545 
L 790.143337 -35.704545 
L 783.628298 -35.704545 
L 777.11326 -35.704545 
L 770.598222 -35.704545 
L 764.083183 -35.704545 
L 757.568145 -35.704545 
L 751.053107 -35.704545 
L 744.538069 -35.704545 
L 738.02303 -35.704545 
L 731.507992 -35.704545 
L 724.992954 -35.704545 
L 718.477915 -35.704545 
L 711.962877 -35.704545 
L 705.447839 -35.704545 
L 698.9328 -35.704545 
L 692.417762 -35.704545 
L 685.902724 -35.704545 
L 679.387685 -35.704545 
L 672.872647 -35.704545 
L 666.357609 -35.704545 
L 659.842571 -35.704545 
L 653.327532 -35.704545 
L 646.812494 -35.704545 
L 640.297456 -35.704545 
L 633.782417 -35.704545 
L 627.267379 -35.704545 
L 620.752341 -35.704545 
L 614.237302 -35.704545 
L 607.722264 -35.704545 
L 601.207226 -35.704545 
L 594.692188 -35.704545 
z
" id="m9bfb32537f" style="stroke:#ff6666;stroke-opacity:0.35;"/>
    </defs>
    <g clip-path="url(#pc2c1e22b95)">
     <use style="fill:#ff6666;fill-opacity:0.35;stroke:#ff6666;stroke-opacity:0.35;" x="0" xlink:href="#m9bfb32537f" y="216"/>
    </g>
   </g>
   <g id="PolyCollection_8">
    <defs>
     <path d="M 696.695313 -35.704545 
L 696.695313 -35.704545 
L 703.210351 -36.078013 
L 709.725389 -38.400764 
L 716.240427 -43.874845 
L 722.755466 -52.997124 
L 729.270504 -65.680288 
L 735.785542 -81.37383 
L 742.300581 -99.185046 
L 748.815619 -118.00002 
L 755.330657 -136.604625 
L 761.845696 -153.805507 
L 768.360734 -168.551082 
L 774.875772 -180.052526 
L 781.39081 -187.904768 
L 787.905849 -192.207482 
L 794.420887 -193.686078 
L 800.935925 -193.779313 
L 807.450964 -192.920821 
L 813.966002 -189.613186 
L 820.48104 -182.910183 
L 826.996079 -172.529214 
L 833.511117 -158.73031 
L 840.026155 -142.195141 
L 846.541194 -123.906024 
L 853.056232 -105.024932 
L 859.57127 -86.772498 
L 866.086308 -70.30703 
L 872.601347 -56.603511 
L 879.116385 -46.332613 
L 885.631423 -39.739701 
L 892.146462 -36.523842 
L 898.6615 -35.716816 
L 898.6615 -35.704545 
L 898.6615 -35.704545 
L 892.146462 -35.704545 
L 885.631423 -35.704545 
L 879.116385 -35.704545 
L 872.601347 -35.704545 
L 866.086308 -35.704545 
L 859.57127 -35.704545 
L 853.056232 -35.704545 
L 846.541194 -35.704545 
L 840.026155 -35.704545 
L 833.511117 -35.704545 
L 826.996079 -35.704545 
L 820.48104 -35.704545 
L 813.966002 -35.704545 
L 807.450964 -35.704545 
L 800.935925 -35.704545 
L 794.420887 -35.704545 
L 787.905849 -35.704545 
L 781.39081 -35.704545 
L 774.875772 -35.704545 
L 768.360734 -35.704545 
L 761.845696 -35.704545 
L 755.330657 -35.704545 
L 748.815619 -35.704545 
L 742.300581 -35.704545 
L 735.785542 -35.704545 
L 729.270504 -35.704545 
L 722.755466 -35.704545 
L 716.240427 -35.704545 
L 709.725389 -35.704545 
L 703.210351 -35.704545 
L 696.695313 -35.704545 
z
" id="m8e8068a53f" style="stroke:#00cccc;stroke-opacity:0.35;"/>
    </defs>
    <g clip-path="url(#pc2c1e22b95)">
     <use style="fill:#00cccc;fill-opacity:0.35;stroke:#00cccc;stroke-opacity:0.35;" x="0" xlink:href="#m8e8068a53f" y="216"/>
    </g>
   </g>
   <g id="matplotlib.axis_1">
    <g id="xtick_1">
     <g id="line2d_1">
      <defs>
       <path d="M 0 0 
L 0 3.5 
" id="m07e4e42550" style="stroke:#000000;stroke-width:0.8;"/>
      </defs>
      <g>
       <use style="stroke:#000000;stroke-width:0.8;" x="84.676563" xlink:href="#m07e4e42550" y="188.2"/>
      </g>
     </g>
     <g id="text_1">
      <!-- 0 -->
      <defs>
       <path d="M 31.78125 66.40625 
Q 24.171875 66.40625 20.328125 58.90625 
Q 16.5 51.421875 16.5 36.375 
Q 16.5 21.390625 20.328125 13.890625 
Q 24.171875 6.390625 31.78125 6.390625 
Q 39.453125 6.390625 43.28125 13.890625 
Q 47.125 21.390625 47.125 36.375 
Q 47.125 51.421875 43.28125 58.90625 
Q 39.453125 66.40625 31.78125 66.40625 
z
M 31.78125 74.21875 
Q 44.046875 74.21875 50.515625 64.515625 
Q 56.984375 54.828125 56.984375 36.375 
Q 56.984375 17.96875 50.515625 8.265625 
Q 44.046875 -1.421875 31.78125 -1.421875 
Q 19.53125 -1.421875 13.0625 8.265625 
Q 6.59375 17.96875 6.59375 36.375 
Q 6.59375 54.828125 13.0625 64.515625 
Q 19.53125 74.21875 31.78125 74.21875 
z
" id="DejaVuSans-30"/>
      </defs>
      <g transform="translate(81.495313 202.798437)scale(0.1 -0.1)">
       <use xlink:href="#DejaVuSans-30"/>
      </g>
     </g>
    </g>
    <g id="xtick_2">
     <g id="line2d_2">
      <g>
       <use style="stroke:#000000;stroke-width:0.8;" x="186.679688" xlink:href="#m07e4e42550" y="188.2"/>
      </g>
     </g>
     <g id="text_2">
      <!-- 1 -->
      <defs>
       <path d="M 12.40625 8.296875 
L 28.515625 8.296875 
L 28.515625 63.921875 
L 10.984375 60.40625 
L 10.984375 69.390625 
L 28.421875 72.90625 
L 38.28125 72.90625 
L 38.28125 8.296875 
L 54.390625 8.296875 
L 54.390625 0 
L 12.40625 0 
z
" id="DejaVuSans-31"/>
      </defs>
      <g transform="translate(183.498438 202.798437)scale(0.1 -0.1)">
       <use xlink:href="#DejaVuSans-31"/>
      </g>
     </g>
    </g>
    <g id="xtick_3">
     <g id="line2d_3">
      <g>
       <use style="stroke:#000000;stroke-width:0.8;" x="288.682813" xlink:href="#m07e4e42550" y="188.2"/>
      </g>
     </g>
     <g id="text_3">
      <!-- 2 -->
      <defs>
       <path d="M 19.1875 8.296875 
L 53.609375 8.296875 
L 53.609375 0 
L 7.328125 0 
L 7.328125 8.296875 
Q 12.9375 14.109375 22.625 23.890625 
Q 32.328125 33.6875 34.8125 36.53125 
Q 39.546875 41.84375 41.421875 45.53125 
Q 43.3125 49.21875 43.3125 52.78125 
Q 43.3125 58.59375 39.234375 62.25 
Q 35.15625 65.921875 28.609375 65.921875 
Q 23.96875 65.921875 18.8125 64.3125 
Q 13.671875 62.703125 7.8125 59.421875 
L 7.8125 69.390625 
Q 13.765625 71.78125 18.9375 73 
Q 24.125 74.21875 28.421875 74.21875 
Q 39.75 74.21875 46.484375 68.546875 
Q 53.21875 62.890625 53.21875 53.421875 
Q 53.21875 48.921875 51.53125 44.890625 
Q 49.859375 40.875 45.40625 35.40625 
Q 44.1875 33.984375 37.640625 27.21875 
Q 31.109375 20.453125 19.1875 8.296875 
z
" id="DejaVuSans-32"/>
      </defs>
      <g transform="translate(285.501563 202.798437)scale(0.1 -0.1)">
       <use xlink:href="#DejaVuSans-32"/>
      </g>
     </g>
    </g>
    <g id="xtick_4">
     <g id="line2d_4">
      <g>
       <use style="stroke:#000000;stroke-width:0.8;" x="390.685938" xlink:href="#m07e4e42550" y="188.2"/>
      </g>
     </g>
     <g id="text_4">
      <!-- 3 -->
      <defs>
       <path d="M 40.578125 39.3125 
Q 47.65625 37.796875 51.625 33 
Q 55.609375 28.21875 55.609375 21.1875 
Q 55.609375 10.40625 48.1875 4.484375 
Q 40.765625 -1.421875 27.09375 -1.421875 
Q 22.515625 -1.421875 17.65625 -0.515625 
Q 12.796875 0.390625 7.625 2.203125 
L 7.625 11.71875 
Q 11.71875 9.328125 16.59375 8.109375 
Q 21.484375 6.890625 26.8125 6.890625 
Q 36.078125 6.890625 40.9375 10.546875 
Q 45.796875 14.203125 45.796875 21.1875 
Q 45.796875 27.640625 41.28125 31.265625 
Q 36.765625 34.90625 28.71875 34.90625 
L 20.21875 34.90625 
L 20.21875 43.015625 
L 29.109375 43.015625 
Q 36.375 43.015625 40.234375 45.921875 
Q 44.09375 48.828125 44.09375 54.296875 
Q 44.09375 59.90625 40.109375 62.90625 
Q 36.140625 65.921875 28.71875 65.921875 
Q 24.65625 65.921875 20.015625 65.03125 
Q 15.375 64.15625 9.8125 62.3125 
L 9.8125 71.09375 
Q 15.4375 72.65625 20.34375 73.4375 
Q 25.25 74.21875 29.59375 74.21875 
Q 40.828125 74.21875 47.359375 69.109375 
Q 53.90625 64.015625 53.90625 55.328125 
Q 53.90625 49.265625 50.4375 45.09375 
Q 46.96875 40.921875 40.578125 39.3125 
z
" id="DejaVuSans-33"/>
      </defs>
      <g transform="translate(387.504688 202.798437)scale(0.1 -0.1)">
       <use xlink:href="#DejaVuSans-33"/>
      </g>
     </g>
    </g>
    <g id="xtick_5">
     <g id="line2d_5">
      <g>
       <use style="stroke:#000000;stroke-width:0.8;" x="492.689063" xlink:href="#m07e4e42550" y="188.2"/>
      </g>
     </g>
     <g id="text_5">
      <!-- 4 -->
      <defs>
       <path d="M 37.796875 64.3125 
L 12.890625 25.390625 
L 37.796875 25.390625 
z
M 35.203125 72.90625 
L 47.609375 72.90625 
L 47.609375 25.390625 
L 58.015625 25.390625 
L 58.015625 17.1875 
L 47.609375 17.1875 
L 47.609375 0 
L 37.796875 0 
L 37.796875 17.1875 
L 4.890625 17.1875 
L 4.890625 26.703125 
z
" id="DejaVuSans-34"/>
      </defs>
      <g transform="translate(489.507813 202.798437)scale(0.1 -0.1)">
       <use xlink:href="#DejaVuSans-34"/>
      </g>
     </g>
    </g>
    <g id="xtick_6">
     <g id="line2d_6">
      <g>
       <use style="stroke:#000000;stroke-width:0.8;" x="594.692188" xlink:href="#m07e4e42550" y="188.2"/>
      </g>
     </g>
     <g id="text_6">
      <!-- 5 -->
      <defs>
       <path d="M 10.796875 72.90625 
L 49.515625 72.90625 
L 49.515625 64.59375 
L 19.828125 64.59375 
L 19.828125 46.734375 
Q 21.96875 47.46875 24.109375 47.828125 
Q 26.265625 48.1875 28.421875 48.1875 
Q 40.625 48.1875 47.75 41.5 
Q 54.890625 34.8125 54.890625 23.390625 
Q 54.890625 11.625 47.5625 5.09375 
Q 40.234375 -1.421875 26.90625 -1.421875 
Q 22.3125 -1.421875 17.546875 -0.640625 
Q 12.796875 0.140625 7.71875 1.703125 
L 7.71875 11.625 
Q 12.109375 9.234375 16.796875 8.0625 
Q 21.484375 6.890625 26.703125 6.890625 
Q 35.15625 6.890625 40.078125 11.328125 
Q 45.015625 15.765625 45.015625 23.390625 
Q 45.015625 31 40.078125 35.4375 
Q 35.15625 39.890625 26.703125 39.890625 
Q 22.75 39.890625 18.8125 39.015625 
Q 14.890625 38.140625 10.796875 36.28125 
z
" id="DejaVuSans-35"/>
      </defs>
      <g transform="translate(591.510938 202.798437)scale(0.1 -0.1)">
       <use xlink:href="#DejaVuSans-35"/>
      </g>
     </g>
    </g>
    <g id="xtick_7">
     <g id="line2d_7">
      <g>
       <use style="stroke:#000000;stroke-width:0.8;" x="696.695313" xlink:href="#m07e4e42550" y="188.2"/>
      </g>
     </g>
     <g id="text_7">
      <!-- 6 -->
      <defs>
       <path d="M 33.015625 40.375 
Q 26.375 40.375 22.484375 35.828125 
Q 18.609375 31.296875 18.609375 23.390625 
Q 18.609375 15.53125 22.484375 10.953125 
Q 26.375 6.390625 33.015625 6.390625 
Q 39.65625 6.390625 43.53125 10.953125 
Q 47.40625 15.53125 47.40625 23.390625 
Q 47.40625 31.296875 43.53125 35.828125 
Q 39.65625 40.375 33.015625 40.375 
z
M 52.59375 71.296875 
L 52.59375 62.3125 
Q 48.875 64.0625 45.09375 64.984375 
Q 41.3125 65.921875 37.59375 65.921875 
Q 27.828125 65.921875 22.671875 59.328125 
Q 17.53125 52.734375 16.796875 39.40625 
Q 19.671875 43.65625 24.015625 45.921875 
Q 28.375 48.1875 33.59375 48.1875 
Q 44.578125 48.1875 50.953125 41.515625 
Q 57.328125 34.859375 57.328125 23.390625 
Q 57.328125 12.15625 50.6875 5.359375 
Q 44.046875 -1.421875 33.015625 -1.421875 
Q 20.359375 -1.421875 13.671875 8.265625 
Q 6.984375 17.96875 6.984375 36.375 
Q 6.984375 53.65625 15.1875 63.9375 
Q 23.390625 74.21875 37.203125 74.21875 
Q 40.921875 74.21875 44.703125 73.484375 
Q 48.484375 72.75 52.59375 71.296875 
z
" id="DejaVuSans-36"/>
      </defs>
      <g transform="translate(693.514063 202.798437)scale(0.1 -0.1)">
       <use xlink:href="#DejaVuSans-36"/>
      </g>
     </g>
    </g>
    <g id="xtick_8">
     <g id="line2d_8">
      <g>
       <use style="stroke:#000000;stroke-width:0.8;" x="798.698438" xlink:href="#m07e4e42550" y="188.2"/>
      </g>
     </g>
     <g id="text_8">
      <!-- 7 -->
      <defs>
       <path d="M 8.203125 72.90625 
L 55.078125 72.90625 
L 55.078125 68.703125 
L 28.609375 0 
L 18.3125 0 
L 43.21875 64.59375 
L 8.203125 64.59375 
z
" id="DejaVuSans-37"/>
      </defs>
      <g transform="translate(795.517188 202.798437)scale(0.1 -0.1)">
       <use xlink:href="#DejaVuSans-37"/>
      </g>
     </g>
    </g>
   </g>
   <g id="matplotlib.axis_2">
    <g id="ytick_1">
     <g id="line2d_9">
      <defs>
       <path d="M 0 0 
L -3.5 0 
" id="m14bf8eee97" style="stroke:#000000;stroke-width:0.8;"/>
      </defs>
      <g>
       <use style="stroke:#000000;stroke-width:0.8;" x="33.675" xlink:href="#m14bf8eee97" y="180.295455"/>
      </g>
     </g>
     <g id="text_9">
      <!-- 0.0 -->
      <defs>
       <path d="M 10.6875 12.40625 
L 21 12.40625 
L 21 0 
L 10.6875 0 
z
" id="DejaVuSans-2e"/>
      </defs>
      <g transform="translate(10.771875 184.094673)scale(0.1 -0.1)">
       <use xlink:href="#DejaVuSans-30"/>
       <use x="63.623047" xlink:href="#DejaVuSans-2e"/>
       <use x="95.410156" xlink:href="#DejaVuSans-30"/>
      </g>
     </g>
    </g>
    <g id="ytick_2">
     <g id="line2d_10">
      <g>
       <use style="stroke:#000000;stroke-width:0.8;" x="33.675" xlink:href="#m14bf8eee97" y="148.677273"/>
      </g>
     </g>
     <g id="text_10">
      <!-- 0.2 -->
      <g transform="translate(10.771875 152.476491)scale(0.1 -0.1)">
       <use xlink:href="#DejaVuSans-30"/>
       <use x="63.623047" xlink:href="#DejaVuSans-2e"/>
       <use x="95.410156" xlink:href="#DejaVuSans-32"/>
      </g>
     </g>
    </g>
    <g id="ytick_3">
     <g id="line2d_11">
      <g>
       <use style="stroke:#000000;stroke-width:0.8;" x="33.675" xlink:href="#m14bf8eee97" y="117.059091"/>
      </g>
     </g>
     <g id="text_11">
      <!-- 0.4 -->
      <g transform="translate(10.771875 120.85831)scale(0.1 -0.1)">
       <use xlink:href="#DejaVuSans-30"/>
       <use x="63.623047" xlink:href="#DejaVuSans-2e"/>
       <use x="95.410156" xlink:href="#DejaVuSans-34"/>
      </g>
     </g>
    </g>
    <g id="ytick_4">
     <g id="line2d_12">
      <g>
       <use style="stroke:#000000;stroke-width:0.8;" x="33.675" xlink:href="#m14bf8eee97" y="85.440909"/>
      </g>
     </g>
     <g id="text_12">
      <!-- 0.6 -->
      <g transform="translate(10.771875 89.240128)scale(0.1 -0.1)">
       <use xlink:href="#DejaVuSans-30"/>
       <use x="63.623047" xlink:href="#DejaVuSans-2e"/>
       <use x="95.410156" xlink:href="#DejaVuSans-36"/>
      </g>
     </g>
    </g>
    <g id="ytick_5">
     <g id="line2d_13">
      <g>
       <use style="stroke:#000000;stroke-width:0.8;" x="33.675" xlink:href="#m14bf8eee97" y="53.822727"/>
      </g>
     </g>
     <g id="text_13">
      <!-- 0.8 -->
      <defs>
       <path d="M 31.78125 34.625 
Q 24.75 34.625 20.71875 30.859375 
Q 16.703125 27.09375 16.703125 20.515625 
Q 16.703125 13.921875 20.71875 10.15625 
Q 24.75 6.390625 31.78125 6.390625 
Q 38.8125 6.390625 42.859375 10.171875 
Q 46.921875 13.96875 46.921875 20.515625 
Q 46.921875 27.09375 42.890625 30.859375 
Q 38.875 34.625 31.78125 34.625 
z
M 21.921875 38.8125 
Q 15.578125 40.375 12.03125 44.71875 
Q 8.5 49.078125 8.5 55.328125 
Q 8.5 64.0625 14.71875 69.140625 
Q 20.953125 74.21875 31.78125 74.21875 
Q 42.671875 74.21875 48.875 69.140625 
Q 55.078125 64.0625 55.078125 55.328125 
Q 55.078125 49.078125 51.53125 44.71875 
Q 48 40.375 41.703125 38.8125 
Q 48.828125 37.15625 52.796875 32.3125 
Q 56.78125 27.484375 56.78125 20.515625 
Q 56.78125 9.90625 50.3125 4.234375 
Q 43.84375 -1.421875 31.78125 -1.421875 
Q 19.734375 -1.421875 13.25 4.234375 
Q 6.78125 9.90625 6.78125 20.515625 
Q 6.78125 27.484375 10.78125 32.3125 
Q 14.796875 37.15625 21.921875 38.8125 
z
M 18.3125 54.390625 
Q 18.3125 48.734375 21.84375 45.5625 
Q 25.390625 42.390625 31.78125 42.390625 
Q 38.140625 42.390625 41.71875 45.5625 
Q 45.3125 48.734375 45.3125 54.390625 
Q 45.3125 60.0625 41.71875 63.234375 
Q 38.140625 66.40625 31.78125 66.40625 
Q 25.390625 66.40625 21.84375 63.234375 
Q 18.3125 60.0625 18.3125 54.390625 
z
" id="DejaVuSans-38"/>
      </defs>
      <g transform="translate(10.771875 57.621946)scale(0.1 -0.1)">
       <use xlink:href="#DejaVuSans-30"/>
       <use x="63.623047" xlink:href="#DejaVuSans-2e"/>
       <use x="95.410156" xlink:href="#DejaVuSans-38"/>
      </g>
     </g>
    </g>
    <g id="ytick_6">
     <g id="line2d_14">
      <g>
       <use style="stroke:#000000;stroke-width:0.8;" x="33.675" xlink:href="#m14bf8eee97" y="22.204545"/>
      </g>
     </g>
     <g id="text_14">
      <!-- 1.0 -->
      <g transform="translate(10.771875 26.003764)scale(0.1 -0.1)">
       <use xlink:href="#DejaVuSans-31"/>
       <use x="63.623047" xlink:href="#DejaVuSans-2e"/>
       <use x="95.410156" xlink:href="#DejaVuSans-30"/>
      </g>
     </g>
    </g>
   </g>
   <g id="line2d_15">
    <path clip-path="url(#pc2c1e22b95)" d="M -1 174.829455 
L 2.218552 172.125155 
L 8.733591 163.002876 
L 15.248629 150.319712 
L 21.763667 134.62617 
L 28.278706 116.814954 
L 34.793744 97.99998 
L 41.308782 79.395375 
L 47.823821 62.194493 
L 54.338859 47.448918 
L 60.853897 35.947474 
L 67.368935 28.095232 
L 73.883974 23.792518 
L 80.399012 22.313922 
L 86.91405 22.220687 
L 93.429089 23.079179 
L 99.944127 26.386814 
L 106.459165 33.089817 
L 112.974204 43.470786 
L 119.489242 57.26969 
L 126.00428 73.804859 
L 132.519319 92.093976 
L 139.034357 110.975068 
L 145.549395 129.227502 
L 152.064433 145.69297 
L 158.579472 159.396489 
L 165.09451 169.667387 
L 171.609548 176.260299 
L 178.124587 179.476158 
L 184.639625 180.283184 
" style="fill:none;stroke:#cc00cc;stroke-linecap:square;stroke-width:1.5;"/>
   </g>
   <g id="line2d_16">
    <path clip-path="url(#pc2c1e22b95)" d="M 84.676563 180.295455 
L 91.191601 179.921987 
L 97.706639 177.599236 
L 104.221677 172.125155 
L 110.736716 163.002876 
L 117.251754 150.319712 
L 123.766792 134.62617 
L 130.281831 116.814954 
L 136.796869 97.99998 
L 143.311907 79.395375 
L 149.826946 62.194493 
L 156.341984 47.448918 
L 162.857022 35.947474 
L 169.37206 28.095232 
L 175.887099 23.792518 
L 182.402137 22.313922 
L 188.917175 22.220687 
L 195.432214 23.079179 
L 201.947252 26.386814 
L 208.46229 33.089817 
L 214.977329 43.470786 
L 221.492367 57.26969 
L 228.007405 73.804859 
L 234.522444 92.093976 
L 241.037482 110.975068 
L 247.55252 129.227502 
L 254.067558 145.69297 
L 260.582597 159.396489 
L 267.097635 169.667387 
L 273.612673 176.260299 
L 280.127712 179.476158 
L 286.64275 180.283184 
" style="fill:none;stroke:#66ff66;stroke-linecap:square;stroke-width:1.5;"/>
   </g>
   <g id="line2d_17">
    <path clip-path="url(#pc2c1e22b95)" d="M 186.679688 180.295455 
L 193.194726 179.921987 
L 199.709764 177.599236 
L 206.224802 172.125155 
L 212.739841 163.002876 
L 219.254879 150.319712 
L 225.769917 134.62617 
L 232.284956 116.814954 
L 238.799994 97.99998 
L 245.315032 79.395375 
L 251.830071 62.194493 
L 258.345109 47.448918 
L 264.860147 35.947474 
L 271.375185 28.095232 
L 277.890224 23.792518 
L 284.405262 22.313922 
L 290.9203 22.220687 
L 297.435339 23.079179 
L 303.950377 26.386814 
L 310.465415 33.089817 
L 316.980454 43.470786 
L 323.495492 57.26969 
L 330.01053 73.804859 
L 336.525569 92.093976 
L 343.040607 110.975068 
L 349.555645 129.227502 
L 356.070683 145.69297 
L 362.585722 159.396489 
L 369.10076 169.667387 
L 375.615798 176.260299 
L 382.130837 179.476158 
L 388.645875 180.283184 
" style="fill:none;stroke:#ff6666;stroke-linecap:square;stroke-width:1.5;"/>
   </g>
   <g id="line2d_18">
    <path clip-path="url(#pc2c1e22b95)" d="M 288.682813 180.295455 
L 295.197851 179.921987 
L 301.712889 177.599236 
L 308.227927 172.125155 
L 314.742966 163.002876 
L 321.258004 150.319712 
L 327.773042 134.62617 
L 334.288081 116.814954 
L 340.803119 97.99998 
L 347.318157 79.395375 
L 353.833196 62.194493 
L 360.348234 47.448918 
L 366.863272 35.947474 
L 373.37831 28.095232 
L 379.893349 23.792518 
L 386.408387 22.313922 
L 392.923425 22.220687 
L 399.438464 23.079179 
L 405.953502 26.386814 
L 412.46854 33.089817 
L 418.983579 43.470786 
L 425.498617 57.26969 
L 432.013655 73.804859 
L 438.528694 92.093976 
L 445.043732 110.975068 
L 451.55877 129.227502 
L 458.073808 145.69297 
L 464.588847 159.396489 
L 471.103885 169.667387 
L 477.618923 176.260299 
L 484.133962 179.476158 
L 490.649 180.283184 
" style="fill:none;stroke:#00cccc;stroke-linecap:square;stroke-width:1.5;"/>
   </g>
   <g id="line2d_19">
    <path clip-path="url(#pc2c1e22b95)" d="M 390.685938 180.295455 
L 397.200976 179.921987 
L 403.716014 177.599236 
L 410.231052 172.125155 
L 416.746091 163.002876 
L 423.261129 150.319712 
L 429.776167 134.62617 
L 436.291206 116.814954 
L 442.806244 97.99998 
L 449.321282 79.395375 
L 455.836321 62.194493 
L 462.351359 47.448918 
L 468.866397 35.947474 
L 475.381435 28.095232 
L 481.896474 23.792518 
L 488.411512 22.313922 
L 494.92655 22.220687 
L 501.441589 23.079179 
L 507.956627 26.386814 
L 514.471665 33.089817 
L 520.986704 43.470786 
L 527.501742 57.26969 
L 534.01678 73.804859 
L 540.531819 92.093976 
L 547.046857 110.975068 
L 553.561895 129.227502 
L 560.076933 145.69297 
L 566.591972 159.396489 
L 573.10701 169.667387 
L 579.622048 176.260299 
L 586.137087 179.476158 
L 592.652125 180.283184 
" style="fill:none;stroke:#cc00cc;stroke-linecap:square;stroke-width:1.5;"/>
   </g>
   <g id="line2d_20">
    <path clip-path="url(#pc2c1e22b95)" d="M 492.689063 180.295455 
L 499.204101 179.921987 
L 505.719139 177.599236 
L 512.234177 172.125155 
L 518.749216 163.002876 
L 525.264254 150.319712 
L 531.779292 134.62617 
L 538.294331 116.814954 
L 544.809369 97.99998 
L 551.324407 79.395375 
L 557.839446 62.194493 
L 564.354484 47.448918 
L 570.869522 35.947474 
L 577.38456 28.095232 
L 583.899599 23.792518 
L 590.414637 22.313922 
L 596.929675 22.220687 
L 603.444714 23.079179 
L 609.959752 26.386814 
L 616.47479 33.089817 
L 622.989829 43.470786 
L 629.504867 57.26969 
L 636.019905 73.804859 
L 642.534944 92.093976 
L 649.049982 110.975068 
L 655.56502 129.227502 
L 662.080058 145.69297 
L 668.595097 159.396489 
L 675.110135 169.667387 
L 681.625173 176.260299 
L 688.140212 179.476158 
L 694.65525 180.283184 
" style="fill:none;stroke:#66ff66;stroke-linecap:square;stroke-width:1.5;"/>
   </g>
   <g id="line2d_21">
    <path clip-path="url(#pc2c1e22b95)" d="M 594.692188 180.295455 
L 601.207226 179.921987 
L 607.722264 177.599236 
L 614.237302 172.125155 
L 620.752341 163.002876 
L 627.267379 150.319712 
L 633.782417 134.62617 
L 640.297456 116.814954 
L 646.812494 97.99998 
L 653.327532 79.395375 
L 659.842571 62.194493 
L 666.357609 47.448918 
L 672.872647 35.947474 
L 679.387685 28.095232 
L 685.902724 23.792518 
L 692.417762 22.313922 
L 698.9328 22.220687 
L 705.447839 23.079179 
L 711.962877 26.386814 
L 718.477915 33.089817 
L 724.992954 43.470786 
L 731.507992 57.26969 
L 738.02303 73.804859 
L 744.538069 92.093976 
L 751.053107 110.975068 
L 757.568145 129.227502 
L 764.083183 145.69297 
L 770.598222 159.396489 
L 777.11326 169.667387 
L 783.628298 176.260299 
L 790.143337 179.476158 
L 796.658375 180.283184 
" style="fill:none;stroke:#ff6666;stroke-linecap:square;stroke-width:1.5;"/>
   </g>
   <g id="line2d_22">
    <path clip-path="url(#pc2c1e22b95)" d="M 696.695313 180.295455 
L 703.210351 179.921987 
L 709.725389 177.599236 
L 716.240427 172.125155 
L 722.755466 163.002876 
L 729.270504 150.319712 
L 735.785542 134.62617 
L 742.300581 116.814954 
L 748.815619 97.99998 
L 755.330657 79.395375 
L 761.845696 62.194493 
L 768.360734 47.448918 
L 774.875772 35.947474 
L 781.39081 28.095232 
L 787.905849 23.792518 
L 794.420887 22.313922 
L 800.935925 22.220687 
L 807.450964 23.079179 
L 813.966002 26.386814 
L 820.48104 33.089817 
L 826.996079 43.470786 
L 833.511117 57.26969 
L 840.026155 73.804859 
L 846.541194 92.093976 
L 853.056232 110.975068 
L 859.57127 129.227502 
L 865 142.94754 
" style="fill:none;stroke:#00cccc;stroke-linecap:square;stroke-width:1.5;"/>
   </g>
   <g id="line2d_23">
    <path clip-path="url(#pc2c1e22b95)" d="M 186.679688 180.295455 
L 186.679688 22.204545 
" style="fill:none;stroke:#333333;stroke-linecap:square;stroke-width:1.5;"/>
   </g>
   <g id="line2d_24">
    <path clip-path="url(#pc2c1e22b95)" d="M 288.682813 180.295455 
L 288.682813 22.204545 
" style="fill:none;stroke:#333333;stroke-linecap:square;stroke-width:1.5;"/>
   </g>
   <g id="line2d_25">
    <defs>
     <path d="M 0 -3 
L -0.673542 -0.927051 
L -2.85317 -0.927051 
L -1.089814 0.354102 
L -1.763356 2.427051 
L -0 1.145898 
L 1.763356 2.427051 
L 1.089814 0.354102 
L 2.85317 -0.927051 
L 0.673542 -0.927051 
z
" id="mcba9117238" style="stroke:#ff0000;stroke-linejoin:bevel;"/>
    </defs>
    <g clip-path="url(#pc2c1e22b95)">
     <use style="fill:#ff0000;stroke:#ff0000;stroke-linejoin:bevel;" x="258.081875" xlink:href="#mcba9117238" y="22.204545"/>
    </g>
   </g>
   <g id="patch_3">
    <path d="M 33.675 188.2 
L 33.675 14.3 
" style="fill:none;stroke:#000000;stroke-linecap:square;stroke-linejoin:miter;stroke-width:0.8;"/>
   </g>
   <g id="patch_4">
    <path d="M 849.7 188.2 
L 849.7 14.3 
" style="fill:none;stroke:#000000;stroke-linecap:square;stroke-linejoin:miter;stroke-width:0.8;"/>
   </g>
   <g id="patch_5">
    <path d="M 33.675 188.2 
L 849.7 188.2 
" style="fill:none;stroke:#000000;stroke-linecap:square;stroke-linejoin:miter;stroke-width:0.8;"/>
   </g>
   <g id="patch_6">
    <path d="M 33.675 14.3 
L 849.7 14.3 
" style="fill:none;stroke:#000000;stroke-linecap:square;stroke-linejoin:miter;stroke-width:0.8;"/>
   </g>
  </g>
 </g>
 <defs>
  <clipPath id="pc2c1e22b95">
   <rect height="173.9" width="816.025" x="33.675" y="14.3"/>
  </clipPath>
 </defs>
</svg>
