<?xml version="1.0" encoding="utf-8" standalone="no"?>
<!DOCTYPE svg PUBLIC "-//W3C//DTD SVG 1.1//EN"
  "http://www.w3.org/Graphics/SVG/1.1/DTD/svg11.dtd">
<!-- Created with matplotlib (http://matplotlib.org/) -->
<svg height="576pt" version="1.1" viewBox="0 0 576 576" width="576pt" xmlns="http://www.w3.org/2000/svg" xmlns:xlink="http://www.w3.org/1999/xlink">
 <defs>
  <style type="text/css">
*{stroke-linecap:butt;stroke-linejoin:round;}
  </style>
 </defs>
 <g id="figure_1">
  <g id="patch_1">
   <path d="M 0 576 
L 576 576 
L 576 0 
L 0 0 
z
" style="fill:#ffffff;"/>
  </g>
  <g id="axes_1">
   <g id="patch_2">
    <path d="M 24.175 548.2 
L 561.7 548.2 
L 561.7 14.3 
L 24.175 14.3 
z
" style="fill:#ffffff;"/>
   </g>
   <g id="Quiver_1">
    <path clip-path="url(#p9c4907de13)" d="M 33.997488 536.469079 
L 51.815793 518.650774 
L 48.705986 517.614172 
L 62.181818 510.357955 
L 54.925601 523.833787 
L 53.888998 520.723979 
L 36.070693 538.542284 
L 33.997488 536.469079 
"/>
    <path clip-path="url(#p9c4907de13)" d="M 50.073932 413.285227 
L 50.073932 427.239159 
L 53.005886 425.773182 
L 48.607955 440.432955 
L 44.210023 425.773182 
L 47.141977 427.239159 
L 47.141977 413.285227 
L 50.073932 413.285227 
"/>
    <path clip-path="url(#p9c4907de13)" d="M 35.034091 328.320386 
L 48.988023 328.320386 
L 47.522045 325.388432 
L 62.181818 329.786364 
L 47.522045 334.184295 
L 48.988023 331.252341 
L 35.034091 331.252341 
L 35.034091 328.320386 
"/>
    <path clip-path="url(#p9c4907de13)" d="M 47.141977 246.2875 
L 47.141977 232.333568 
L 44.210023 233.799545 
L 48.607955 219.139773 
L 53.005886 233.799545 
L 50.073932 232.333568 
L 50.073932 246.2875 
L 47.141977 246.2875 
"/>
    <path clip-path="url(#p9c4907de13)" d="M 62.181818 137.106886 
L 48.227886 137.106886 
L 49.693864 140.038841 
L 35.034091 135.640909 
L 49.693864 131.242977 
L 48.227886 134.174932 
L 62.181818 134.174932 
L 62.181818 137.106886 
"/>
    <path clip-path="url(#p9c4907de13)" d="M 61.145216 53.178648 
L 43.326911 35.360343 
L 42.290308 38.47015 
L 35.034091 24.994318 
L 48.509923 32.250535 
L 45.400116 33.287138 
L 63.218421 51.105443 
L 61.145216 53.178648 
"/>
    <path clip-path="url(#p9c4907de13)" d="M 147.80575 510.357955 
L 147.80575 524.311886 
L 150.737705 522.845909 
L 146.339773 537.505682 
L 141.941841 522.845909 
L 144.873795 524.311886 
L 144.873795 510.357955 
L 147.80575 510.357955 
"/>
    <path clip-path="url(#p9c4907de13)" d="M 132.765909 425.393114 
L 146.719841 425.393114 
L 145.253864 422.461159 
L 159.913636 426.859091 
L 145.253864 431.257023 
L 146.719841 428.325068 
L 132.765909 428.325068 
L 132.765909 425.393114 
"/>
    <path clip-path="url(#p9c4907de13)" d="M 132.765909 328.320386 
L 146.719841 328.320386 
L 145.253864 325.388432 
L 159.913636 329.786364 
L 145.253864 334.184295 
L 146.719841 331.252341 
L 132.765909 331.252341 
L 132.765909 328.320386 
"/>
    <path clip-path="url(#p9c4907de13)" d="M 132.765909 231.247659 
L 146.719841 231.247659 
L 145.253864 228.315705 
L 159.913636 232.713636 
L 145.253864 237.111568 
L 146.719841 234.179614 
L 132.765909 234.179614 
L 132.765909 231.247659 
"/>
    <path clip-path="url(#p9c4907de13)" d="M 144.873795 149.214773 
L 144.873795 135.260841 
L 141.941841 136.726818 
L 146.339773 122.067045 
L 150.737705 136.726818 
L 147.80575 135.260841 
L 147.80575 149.214773 
L 144.873795 149.214773 
"/>
    <path clip-path="url(#p9c4907de13)" d="M 131.729307 51.105443 
L 149.547612 33.287138 
L 146.437804 32.250535 
L 159.913636 24.994318 
L 152.657419 38.47015 
L 151.620817 35.360343 
L 133.802512 53.178648 
L 131.729307 51.105443 
"/>
    <path clip-path="url(#p9c4907de13)" d="M 242.605614 537.505682 
L 242.605614 523.55175 
L 239.673659 525.017727 
L 244.071591 510.357955 
L 248.469523 525.017727 
L 245.537568 523.55175 
L 245.537568 537.505682 
L 242.605614 537.505682 
"/>
    <path clip-path="url(#p9c4907de13)" d="M 229.461125 439.396352 
L 247.27943 421.578047 
L 244.169622 420.541445 
L 257.645455 413.285227 
L 250.389237 426.761059 
L 249.352635 423.651252 
L 231.53433 441.469557 
L 229.461125 439.396352 
"/>
    <path clip-path="url(#p9c4907de13)" d="M 242.605614 343.360227 
L 242.605614 329.406295 
L 239.673659 330.872273 
L 244.071591 316.2125 
L 248.469523 330.872273 
L 245.537568 329.406295 
L 245.537568 343.360227 
L 242.605614 343.360227 
"/>
    <path clip-path="url(#p9c4907de13)" d="M 230.497727 231.247659 
L 244.451659 231.247659 
L 242.985682 228.315705 
L 257.645455 232.713636 
L 242.985682 237.111568 
L 244.451659 234.179614 
L 230.497727 234.179614 
L 230.497727 231.247659 
"/>
    <path clip-path="url(#p9c4907de13)" d="M 230.497727 134.174932 
L 244.451659 134.174932 
L 242.985682 131.242977 
L 257.645455 135.640909 
L 242.985682 140.038841 
L 244.451659 137.106886 
L 230.497727 137.106886 
L 230.497727 134.174932 
"/>
    <path clip-path="url(#p9c4907de13)" d="M 258.682057 26.030921 
L 240.863752 43.849226 
L 243.973559 44.885828 
L 230.497727 52.142045 
L 237.753945 38.666213 
L 238.790547 41.776021 
L 256.608852 23.957716 
L 258.682057 26.030921 
"/>
    <path clip-path="url(#p9c4907de13)" d="M 354.34067 538.542284 
L 336.522365 520.723979 
L 335.485763 523.833787 
L 328.229545 510.357955 
L 341.705378 517.614172 
L 338.59557 518.650774 
L 356.413875 536.469079 
L 354.34067 538.542284 
"/>
    <path clip-path="url(#p9c4907de13)" d="M 327.192943 439.396352 
L 345.011248 421.578047 
L 341.901441 420.541445 
L 355.377273 413.285227 
L 348.121055 426.761059 
L 347.084453 423.651252 
L 329.266148 441.469557 
L 327.192943 439.396352 
"/>
    <path clip-path="url(#p9c4907de13)" d="M 355.377273 331.252341 
L 341.423341 331.252341 
L 342.889318 334.184295 
L 328.229545 329.786364 
L 342.889318 325.388432 
L 341.423341 328.320386 
L 355.377273 328.320386 
L 355.377273 331.252341 
"/>
    <path clip-path="url(#p9c4907de13)" d="M 355.377273 234.179614 
L 341.423341 234.179614 
L 342.889318 237.111568 
L 328.229545 232.713636 
L 342.889318 228.315705 
L 341.423341 231.247659 
L 355.377273 231.247659 
L 355.377273 234.179614 
"/>
    <path clip-path="url(#p9c4907de13)" d="M 355.377273 137.106886 
L 341.423341 137.106886 
L 342.889318 140.038841 
L 328.229545 135.640909 
L 342.889318 131.242977 
L 341.423341 134.174932 
L 355.377273 134.174932 
L 355.377273 137.106886 
"/>
    <path clip-path="url(#p9c4907de13)" d="M 340.337432 52.142045 
L 340.337432 38.188114 
L 337.405477 39.654091 
L 341.803409 24.994318 
L 346.201341 39.654091 
L 343.269386 38.188114 
L 343.269386 52.142045 
L 340.337432 52.142045 
"/>
    <path clip-path="url(#p9c4907de13)" d="M 441.001205 510.357955 
L 441.001205 524.311886 
L 443.933159 522.845909 
L 439.535227 537.505682 
L 435.137295 522.845909 
L 438.06925 524.311886 
L 438.06925 510.357955 
L 441.001205 510.357955 
"/>
    <path clip-path="url(#p9c4907de13)" d="M 454.145693 414.32183 
L 436.327388 432.140135 
L 439.437196 433.176737 
L 425.961364 440.432955 
L 433.217581 426.957122 
L 434.254183 430.06693 
L 452.072488 412.248625 
L 454.145693 414.32183 
"/>
    <path clip-path="url(#p9c4907de13)" d="M 425.961364 328.320386 
L 439.915295 328.320386 
L 438.449318 325.388432 
L 453.109091 329.786364 
L 438.449318 334.184295 
L 439.915295 331.252341 
L 425.961364 331.252341 
L 425.961364 328.320386 
"/>
    <path clip-path="url(#p9c4907de13)" d="M 426.997966 218.10317 
L 444.816271 235.921475 
L 445.852874 232.811668 
L 453.109091 246.2875 
L 439.633259 239.031283 
L 442.743066 237.99468 
L 424.924761 220.176375 
L 426.997966 218.10317 
"/>
    <path clip-path="url(#p9c4907de13)" d="M 453.109091 137.106886 
L 439.155159 137.106886 
L 440.621136 140.038841 
L 425.961364 135.640909 
L 440.621136 131.242977 
L 439.155159 134.174932 
L 453.109091 134.174932 
L 453.109091 137.106886 
"/>
    <path clip-path="url(#p9c4907de13)" d="M 438.06925 52.142045 
L 438.06925 38.188114 
L 435.137295 39.654091 
L 439.535227 24.994318 
L 443.933159 39.654091 
L 441.001205 38.188114 
L 441.001205 52.142045 
L 438.06925 52.142045 
"/>
    <path clip-path="url(#p9c4907de13)" d="M 535.801068 537.505682 
L 535.801068 523.55175 
L 532.869114 525.017727 
L 537.267045 510.357955 
L 541.664977 525.017727 
L 538.733023 523.55175 
L 538.733023 537.505682 
L 535.801068 537.505682 
"/>
    <path clip-path="url(#p9c4907de13)" d="M 538.733023 413.285227 
L 538.733023 427.239159 
L 541.664977 425.773182 
L 537.267045 440.432955 
L 532.869114 425.773182 
L 535.801068 427.239159 
L 535.801068 413.285227 
L 538.733023 413.285227 
"/>
    <path clip-path="url(#p9c4907de13)" d="M 550.840909 331.252341 
L 536.886977 331.252341 
L 538.352955 334.184295 
L 523.693182 329.786364 
L 538.352955 325.388432 
L 536.886977 328.320386 
L 550.840909 328.320386 
L 550.840909 331.252341 
"/>
    <path clip-path="url(#p9c4907de13)" d="M 522.656579 245.250898 
L 540.474884 227.432592 
L 537.365077 226.39599 
L 550.840909 219.139773 
L 543.584692 232.615605 
L 542.548089 229.505797 
L 524.729784 247.324102 
L 522.656579 245.250898 
"/>
    <path clip-path="url(#p9c4907de13)" d="M 549.804307 150.251375 
L 531.986002 132.43307 
L 530.949399 135.542878 
L 523.693182 122.067045 
L 537.169014 129.323263 
L 534.059207 130.359865 
L 551.877512 148.17817 
L 549.804307 150.251375 
"/>
    <path clip-path="url(#p9c4907de13)" d="M 535.801068 52.142045 
L 535.801068 38.188114 
L 532.869114 39.654091 
L 537.267045 24.994318 
L 541.664977 39.654091 
L 538.733023 38.188114 
L 538.733023 52.142045 
L 535.801068 52.142045 
"/>
   </g>
   <g id="matplotlib.axis_1">
    <g id="xtick_1">
     <g id="line2d_1">
      <defs>
       <path d="M 0 0 
L 0 3.5 
" id="mfe45e71f87" style="stroke:#000000;stroke-width:0.8;"/>
      </defs>
      <g>
       <use style="stroke:#000000;stroke-width:0.8;" x="48.607955" xlink:href="#mfe45e71f87" y="548.2"/>
      </g>
     </g>
     <g id="text_1">
      <!-- 0 -->
      <defs>
       <path d="M 31.78125 66.40625 
Q 24.171875 66.40625 20.328125 58.90625 
Q 16.5 51.421875 16.5 36.375 
Q 16.5 21.390625 20.328125 13.890625 
Q 24.171875 6.390625 31.78125 6.390625 
Q 39.453125 6.390625 43.28125 13.890625 
Q 47.125 21.390625 47.125 36.375 
Q 47.125 51.421875 43.28125 58.90625 
Q 39.453125 66.40625 31.78125 66.40625 
z
M 31.78125 74.21875 
Q 44.046875 74.21875 50.515625 64.515625 
Q 56.984375 54.828125 56.984375 36.375 
Q 56.984375 17.96875 50.515625 8.265625 
Q 44.046875 -1.421875 31.78125 -1.421875 
Q 19.53125 -1.421875 13.0625 8.265625 
Q 6.59375 17.96875 6.59375 36.375 
Q 6.59375 54.828125 13.0625 64.515625 
Q 19.53125 74.21875 31.78125 74.21875 
z
" id="DejaVuSans-30"/>
      </defs>
      <g transform="translate(45.426705 562.798437)scale(0.1 -0.1)">
       <use xlink:href="#DejaVuSans-30"/>
      </g>
     </g>
    </g>
    <g id="xtick_2">
     <g id="line2d_2">
      <g>
       <use style="stroke:#000000;stroke-width:0.8;" x="146.339773" xlink:href="#mfe45e71f87" y="548.2"/>
      </g>
     </g>
     <g id="text_2">
      <!-- 1 -->
      <defs>
       <path d="M 12.40625 8.296875 
L 28.515625 8.296875 
L 28.515625 63.921875 
L 10.984375 60.40625 
L 10.984375 69.390625 
L 28.421875 72.90625 
L 38.28125 72.90625 
L 38.28125 8.296875 
L 54.390625 8.296875 
L 54.390625 0 
L 12.40625 0 
z
" id="DejaVuSans-31"/>
      </defs>
      <g transform="translate(143.158523 562.798437)scale(0.1 -0.1)">
       <use xlink:href="#DejaVuSans-31"/>
      </g>
     </g>
    </g>
    <g id="xtick_3">
     <g id="line2d_3">
      <g>
       <use style="stroke:#000000;stroke-width:0.8;" x="244.071591" xlink:href="#mfe45e71f87" y="548.2"/>
      </g>
     </g>
     <g id="text_3">
      <!-- 2 -->
      <defs>
       <path d="M 19.1875 8.296875 
L 53.609375 8.296875 
L 53.609375 0 
L 7.328125 0 
L 7.328125 8.296875 
Q 12.9375 14.109375 22.625 23.890625 
Q 32.328125 33.6875 34.8125 36.53125 
Q 39.546875 41.84375 41.421875 45.53125 
Q 43.3125 49.21875 43.3125 52.78125 
Q 43.3125 58.59375 39.234375 62.25 
Q 35.15625 65.921875 28.609375 65.921875 
Q 23.96875 65.921875 18.8125 64.3125 
Q 13.671875 62.703125 7.8125 59.421875 
L 7.8125 69.390625 
Q 13.765625 71.78125 18.9375 73 
Q 24.125 74.21875 28.421875 74.21875 
Q 39.75 74.21875 46.484375 68.546875 
Q 53.21875 62.890625 53.21875 53.421875 
Q 53.21875 48.921875 51.53125 44.890625 
Q 49.859375 40.875 45.40625 35.40625 
Q 44.1875 33.984375 37.640625 27.21875 
Q 31.109375 20.453125 19.1875 8.296875 
z
" id="DejaVuSans-32"/>
      </defs>
      <g transform="translate(240.890341 562.798437)scale(0.1 -0.1)">
       <use xlink:href="#DejaVuSans-32"/>
      </g>
     </g>
    </g>
    <g id="xtick_4">
     <g id="line2d_4">
      <g>
       <use style="stroke:#000000;stroke-width:0.8;" x="341.803409" xlink:href="#mfe45e71f87" y="548.2"/>
      </g>
     </g>
     <g id="text_4">
      <!-- 3 -->
      <defs>
       <path d="M 40.578125 39.3125 
Q 47.65625 37.796875 51.625 33 
Q 55.609375 28.21875 55.609375 21.1875 
Q 55.609375 10.40625 48.1875 4.484375 
Q 40.765625 -1.421875 27.09375 -1.421875 
Q 22.515625 -1.421875 17.65625 -0.515625 
Q 12.796875 0.390625 7.625 2.203125 
L 7.625 11.71875 
Q 11.71875 9.328125 16.59375 8.109375 
Q 21.484375 6.890625 26.8125 6.890625 
Q 36.078125 6.890625 40.9375 10.546875 
Q 45.796875 14.203125 45.796875 21.1875 
Q 45.796875 27.640625 41.28125 31.265625 
Q 36.765625 34.90625 28.71875 34.90625 
L 20.21875 34.90625 
L 20.21875 43.015625 
L 29.109375 43.015625 
Q 36.375 43.015625 40.234375 45.921875 
Q 44.09375 48.828125 44.09375 54.296875 
Q 44.09375 59.90625 40.109375 62.90625 
Q 36.140625 65.921875 28.71875 65.921875 
Q 24.65625 65.921875 20.015625 65.03125 
Q 15.375 64.15625 9.8125 62.3125 
L 9.8125 71.09375 
Q 15.4375 72.65625 20.34375 73.4375 
Q 25.25 74.21875 29.59375 74.21875 
Q 40.828125 74.21875 47.359375 69.109375 
Q 53.90625 64.015625 53.90625 55.328125 
Q 53.90625 49.265625 50.4375 45.09375 
Q 46.96875 40.921875 40.578125 39.3125 
z
" id="DejaVuSans-33"/>
      </defs>
      <g transform="translate(338.622159 562.798437)scale(0.1 -0.1)">
       <use xlink:href="#DejaVuSans-33"/>
      </g>
     </g>
    </g>
    <g id="xtick_5">
     <g id="line2d_5">
      <g>
       <use style="stroke:#000000;stroke-width:0.8;" x="439.535227" xlink:href="#mfe45e71f87" y="548.2"/>
      </g>
     </g>
     <g id="text_5">
      <!-- 4 -->
      <defs>
       <path d="M 37.796875 64.3125 
L 12.890625 25.390625 
L 37.796875 25.390625 
z
M 35.203125 72.90625 
L 47.609375 72.90625 
L 47.609375 25.390625 
L 58.015625 25.390625 
L 58.015625 17.1875 
L 47.609375 17.1875 
L 47.609375 0 
L 37.796875 0 
L 37.796875 17.1875 
L 4.890625 17.1875 
L 4.890625 26.703125 
z
" id="DejaVuSans-34"/>
      </defs>
      <g transform="translate(436.353977 562.798437)scale(0.1 -0.1)">
       <use xlink:href="#DejaVuSans-34"/>
      </g>
     </g>
    </g>
    <g id="xtick_6">
     <g id="line2d_6">
      <g>
       <use style="stroke:#000000;stroke-width:0.8;" x="537.267045" xlink:href="#mfe45e71f87" y="548.2"/>
      </g>
     </g>
     <g id="text_6">
      <!-- 5 -->
      <defs>
       <path d="M 10.796875 72.90625 
L 49.515625 72.90625 
L 49.515625 64.59375 
L 19.828125 64.59375 
L 19.828125 46.734375 
Q 21.96875 47.46875 24.109375 47.828125 
Q 26.265625 48.1875 28.421875 48.1875 
Q 40.625 48.1875 47.75 41.5 
Q 54.890625 34.8125 54.890625 23.390625 
Q 54.890625 11.625 47.5625 5.09375 
Q 40.234375 -1.421875 26.90625 -1.421875 
Q 22.3125 -1.421875 17.546875 -0.640625 
Q 12.796875 0.140625 7.71875 1.703125 
L 7.71875 11.625 
Q 12.109375 9.234375 16.796875 8.0625 
Q 21.484375 6.890625 26.703125 6.890625 
Q 35.15625 6.890625 40.078125 11.328125 
Q 45.015625 15.765625 45.015625 23.390625 
Q 45.015625 31 40.078125 35.4375 
Q 35.15625 39.890625 26.703125 39.890625 
Q 22.75 39.890625 18.8125 39.015625 
Q 14.890625 38.140625 10.796875 36.28125 
z
" id="DejaVuSans-35"/>
      </defs>
      <g transform="translate(534.085795 562.798437)scale(0.1 -0.1)">
       <use xlink:href="#DejaVuSans-35"/>
      </g>
     </g>
    </g>
   </g>
   <g id="matplotlib.axis_2">
    <g id="ytick_1">
     <g id="line2d_7">
      <defs>
       <path d="M 0 0 
L -3.5 0 
" id="m95da3bc8fb" style="stroke:#000000;stroke-width:0.8;"/>
      </defs>
      <g>
       <use style="stroke:#000000;stroke-width:0.8;" x="24.175" xlink:href="#m95da3bc8fb" y="523.931818"/>
      </g>
     </g>
     <g id="text_7">
      <!-- 0 -->
      <g transform="translate(10.8125 527.731037)scale(0.1 -0.1)">
       <use xlink:href="#DejaVuSans-30"/>
      </g>
     </g>
    </g>
    <g id="ytick_2">
     <g id="line2d_8">
      <g>
       <use style="stroke:#000000;stroke-width:0.8;" x="24.175" xlink:href="#m95da3bc8fb" y="426.859091"/>
      </g>
     </g>
     <g id="text_8">
      <!-- 1 -->
      <g transform="translate(10.8125 430.65831)scale(0.1 -0.1)">
       <use xlink:href="#DejaVuSans-31"/>
      </g>
     </g>
    </g>
    <g id="ytick_3">
     <g id="line2d_9">
      <g>
       <use style="stroke:#000000;stroke-width:0.8;" x="24.175" xlink:href="#m95da3bc8fb" y="329.786364"/>
      </g>
     </g>
     <g id="text_9">
      <!-- 2 -->
      <g transform="translate(10.8125 333.585582)scale(0.1 -0.1)">
       <use xlink:href="#DejaVuSans-32"/>
      </g>
     </g>
    </g>
    <g id="ytick_4">
     <g id="line2d_10">
      <g>
       <use style="stroke:#000000;stroke-width:0.8;" x="24.175" xlink:href="#m95da3bc8fb" y="232.713636"/>
      </g>
     </g>
     <g id="text_10">
      <!-- 3 -->
      <g transform="translate(10.8125 236.512855)scale(0.1 -0.1)">
       <use xlink:href="#DejaVuSans-33"/>
      </g>
     </g>
    </g>
    <g id="ytick_5">
     <g id="line2d_11">
      <g>
       <use style="stroke:#000000;stroke-width:0.8;" x="24.175" xlink:href="#m95da3bc8fb" y="135.640909"/>
      </g>
     </g>
     <g id="text_11">
      <!-- 4 -->
      <g transform="translate(10.8125 139.440128)scale(0.1 -0.1)">
       <use xlink:href="#DejaVuSans-34"/>
      </g>
     </g>
    </g>
    <g id="ytick_6">
     <g id="line2d_12">
      <g>
       <use style="stroke:#000000;stroke-width:0.8;" x="24.175" xlink:href="#m95da3bc8fb" y="38.568182"/>
      </g>
     </g>
     <g id="text_12">
      <!-- 5 -->
      <g transform="translate(10.8125 42.367401)scale(0.1 -0.1)">
       <use xlink:href="#DejaVuSans-35"/>
      </g>
     </g>
    </g>
   </g>
   <g id="line2d_13">
    <path clip-path="url(#p9c4907de13)" d="M 283.164318 358.908182 
L 244.071591 426.859091 
" style="fill:none;stroke:#1f77b4;stroke-linecap:square;stroke-width:1.5;"/>
   </g>
   <g id="line2d_14">
    <path clip-path="url(#p9c4907de13)" d="M 283.164318 358.908182 
L 341.803409 426.859091 
" style="fill:none;stroke:#1f77b4;stroke-linecap:square;stroke-width:1.5;"/>
   </g>
   <g id="line2d_15">
    <path clip-path="url(#p9c4907de13)" d="M 283.164318 358.908182 
L 341.803409 329.786364 
" style="fill:none;stroke:#1f77b4;stroke-linecap:square;stroke-width:1.5;"/>
   </g>
   <g id="line2d_16">
    <path clip-path="url(#p9c4907de13)" d="M 283.164318 358.908182 
L 244.071591 329.786364 
" style="fill:none;stroke:#1f77b4;stroke-linecap:square;stroke-width:1.5;"/>
   </g>
   <g id="patch_3">
    <path d="M 24.175 548.2 
L 24.175 14.3 
" style="fill:none;stroke:#000000;stroke-linecap:square;stroke-linejoin:miter;stroke-width:0.8;"/>
   </g>
   <g id="patch_4">
    <path d="M 561.7 548.2 
L 561.7 14.3 
" style="fill:none;stroke:#000000;stroke-linecap:square;stroke-linejoin:miter;stroke-width:0.8;"/>
   </g>
   <g id="patch_5">
    <path d="M 24.175 548.2 
L 561.7 548.2 
" style="fill:none;stroke:#000000;stroke-linecap:square;stroke-linejoin:miter;stroke-width:0.8;"/>
   </g>
   <g id="patch_6">
    <path d="M 24.175 14.3 
L 561.7 14.3 
" style="fill:none;stroke:#000000;stroke-linecap:square;stroke-linejoin:miter;stroke-width:0.8;"/>
   </g>
  </g>
 </g>
 <defs>
  <clipPath id="p9c4907de13">
   <rect height="533.9" width="537.525" x="24.175" y="14.3"/>
  </clipPath>
 </defs>
</svg>
