# MagicaVoxel @ Ephtracy

# group
o 

# material
mtllib tile_4_right_nr.mtl
usemtl palette

# normals
vn -1 0 0
vn 1 0 0
vn 0 0 1
vn 0 0 -1
vn 0 -1 0
vn 0 1 0

# texcoords
vt 0.939453 0.5
vt 0.943359 0.5
vt 0.947266 0.5
vt 0.970703 0.5
vt 0.974609 0.5
vt 0.978516 0.5
vt 0.982422 0.5
vt 0.986328 0.5
vt 0.994141 0.5

# verts
v 0.8 -1.2 0.9
v 0.8 -1.2 0.3
v 0.8 -1 0.9
v 0.8 -1 0.8
v 0.8 -1 0.7
v 0.8 -1 0.5
v 0.8 -1 0.4
v 0.8 -1 0.3
v 0.8 -0.7 0.9
v 0.8 -0.7 0.8
v 0.8 -0.7 0.7
v 0.8 -0.7 0.5
v 0.8 -0.7 0.4
v 0.8 -0.7 0.3
v 0.8 -0.6 0.9
v 0.8 -0.6 0.3
v 0.9 -1.2 1
v 0.9 -1.2 0.9
v 0.9 -1.2 0.3
v 0.9 -1.2 0.2
v 0.9 -1 1
v 0.9 -1 0.9
v 0.9 -1 0.3
v 0.9 -1 0.2
v 0.9 -0.7 1
v 0.9 -0.7 0.9
v 0.9 -0.7 0.3
v 0.9 -0.6 1
v 0.9 -0.6 0.9
v 0.9 -0.6 0.3
v 0.9 -0.6 0.2
v 1 -1.2 1.1
v 1 -1.2 1
v 1 -1.2 0.2
v 1 -1.2 0.0999999
v 1 -1 1.1
v 1 -1 1
v 1 -1 0.2
v 1 -1 0.0999999
v 1 -0.7 1
v 1 -0.7 0.2
v 1 -0.7 0.0999999
v 1 -0.6 1.1
v 1 -0.6 1
v 1 -0.6 0.2
v 1 -0.6 0.0999999
v 1.1 -1.2 1.2
v 1.1 -1.2 1.1
v 1.1 -1.2 0.0999999
v 1.1 -1.2 0
v 1.1 -1 1.2
v 1.1 -1 1.1
v 1.1 -1 0.0999999
v 1.1 -1 0
v 1.1 -0.7 1.2
v 1.1 -0.7 1.1
v 1.1 -0.7 0.0999999
v 1.1 -0.6 1.2
v 1.1 -0.6 1.1
v 1.1 -0.6 0.0999999
v 1.1 -0.6 0
v 1.2 0.2 1.1
v 1.2 0.2 0.3
v 1.2 0.3 1.1
v 1.2 0.3 0.3
v 1.3 -0.7 1.3
v 1.3 -0.7 1.2
v 1.3 -0.7 1.1
v 1.3 -0.7 0.9
v 1.3 -0.7 0.5
v 1.3 -0.7 0.0999999
v 1.3 -0.7 0
v 1.3 -0.7 -1.3
v 1.3 -0.6 1.3
v 1.3 -0.6 1.2
v 1.3 -0.6 1.1
v 1.3 -0.6 0.9
v 1.3 -0.6 0.5
v 1.3 -0.6 0.0999999
v 1.3 -0.6 0
v 1.3 -0.6 -1.3
v 1.3 1.6 1.3
v 1.3 1.6 -1.3
v 1.3 1.7 1.3
v 1.3 1.7 -1.3
v 1.4 -1.2 0
v 1.4 -1.2 -1.2
v 1.4 -1 1.2
v 1.4 -1 0.9
v 1.4 -1 0.5
v 1.4 -1 0
v 1.4 -1 -1.2
v 1.4 -0.7 1.2
v 1.4 -0.7 0.9
v 1.4 -0.7 0.5
v 1.4 -0.7 -1.2
v 1.4 -0.6 1.2
v 1.4 -0.6 1
v 1.4 -0.6 0.9
v 1.4 -0.6 0.5
v 1.4 -0.6 0.4
v 1.4 -0.6 -1.2
v 1.4 -0.1 0.2
v 1.4 -0.1 -0.2
v 1.4 0 0.0999999
v 1.4 0 -0.1
v 1.4 0.0999999 0.9
v 1.4 0.0999999 0.5
v 1.4 0.2 1.1
v 1.4 0.2 1
v 1.4 0.2 0.4
v 1.4 0.2 0.3
v 1.4 0.2 -0.5
v 1.4 0.2 -0.9
v 1.4 0.3 1.1
v 1.4 0.3 0.3
v 1.4 0.3 -0.6
v 1.4 0.3 -0.8
v 1.4 0.5 0.0999999
v 1.4 0.5 -0.1
v 1.4 0.6 0.2
v 1.4 0.6 -0.2
v 1.4 0.8 -0.6
v 1.4 0.8 -0.8
v 1.4 0.9 -0.5
v 1.4 0.9 -0.9
v 1.4 1 1.2
v 1.4 1 -1.2
v 1.4 1.2 1.2
v 1.4 1.2 -1.2
v 1.4 1.6 1.2
v 1.4 1.6 -1.2
v 1.4 1.7 1.2
v 1.4 1.7 -1.2
v 1.4 2 1.2
v 1.4 2 -1.2
v 1.5 -1 0.9
v 1.5 -1 0.5
v 1.5 -0.9 0.9
v 1.5 -0.9 0.5
v 1.5 -0.7 0.9
v 1.5 -0.7 0.5
v 1.5 -0.6 0.9
v 1.5 -0.6 0.5
v 1.5 0 0.0999999
v 1.5 0 -0.1
v 1.5 0.0999999 0.9
v 1.5 0.0999999 0.5
v 1.5 0.3 -0.6
v 1.5 0.3 -0.8
v 1.5 0.5 0.0999999
v 1.5 0.5 -0.1
v 1.5 0.8 -0.6
v 1.5 0.8 -0.8
v 0.9 -1 0.8
v 0.9 -1 0.7
v 0.9 -1 0.5
v 0.9 -1 0.4
v 0.9 -0.7 0.9
v 0.9 -0.7 0.8
v 0.9 -0.7 0.7
v 0.9 -0.7 0.5
v 0.9 -0.7 0.4
v 0.9 -0.7 0.3
v 0.9 -0.6 0.9
v 0.9 -0.6 0.3
v 1 -1 0.3
v 1 -1 0.2
v 1 -0.7 1
v 1 -0.7 0.9
v 1 -0.7 0.2
v 1 -0.6 1
v 1 -0.6 0.9
v 1 -0.6 0.3
v 1 -0.6 0.2
v 1.1 -1 1.1
v 1.1 -1 1
v 1.1 -0.7 1.1
v 1.1 -0.7 0.2
v 1.1 -0.7 0.0999999
v 1.1 -0.6 1.1
v 1.1 -0.6 1
v 1.1 -0.6 0.2
v 1.1 -0.6 0.0999999
v 1.2 -1 0.0999999
v 1.2 -1 0
v 1.2 -0.7 0.0999999
v 1.2 -0.7 0
v 1.6 -1.2 1.2
v 1.6 -1.2 -1.2
v 1.6 -1 1.2
v 1.6 -1 -1.2
v 1.6 -0.9 0.9
v 1.6 -0.9 0.5
v 1.6 -0.7 1.3
v 1.6 -0.7 1.2
v 1.6 -0.7 0.9
v 1.6 -0.7 0.5
v 1.6 -0.7 -1.2
v 1.6 -0.7 -1.3
v 1.6 -0.6 1.3
v 1.6 -0.6 1.2
v 1.6 -0.6 -1.2
v 1.6 -0.6 -1.3
v 1.6 0 0.0999999
v 1.6 0 -0.1
v 1.6 0.0999999 0.9
v 1.6 0.0999999 0.5
v 1.6 0.3 -0.6
v 1.6 0.3 -0.8
v 1.6 0.5 0.0999999
v 1.6 0.5 -0.1
v 1.6 0.8 -0.6
v 1.6 0.8 -0.8
v 1.6 1 1.2
v 1.6 1 -1.2
v 1.6 1.2 1.2
v 1.6 1.2 -1.2
v 1.6 1.6 1.3
v 1.6 1.6 1.2
v 1.6 1.6 -1.2
v 1.6 1.6 -1.3
v 1.6 1.7 1.3
v 1.6 1.7 1.2
v 1.6 1.7 -1.2
v 1.6 1.7 -1.3
v 1.6 2 1.2
v 1.6 2 -1.2
v 1.3 -0.7 1.3
v 1.3 -0.6 1.3
v 1.3 1.6 1.3
v 1.3 1.7 1.3
v 1.6 -0.7 1.3
v 1.6 -0.6 1.3
v 1.6 1.6 1.3
v 1.6 1.7 1.3
v 1.1 -1.2 1.2
v 1.1 -1 1.2
v 1.1 -0.7 1.2
v 1.1 -0.6 1.2
v 1.3 -0.7 1.2
v 1.3 -0.6 1.2
v 1.4 -1 1.2
v 1.4 -0.7 1.2
v 1.4 -0.6 1.2
v 1.4 1 1.2
v 1.4 1.2 1.2
v 1.4 1.6 1.2
v 1.4 1.7 1.2
v 1.4 2 1.2
v 1.6 -1.2 1.2
v 1.6 -1 1.2
v 1.6 -0.7 1.2
v 1.6 -0.6 1.2
v 1.6 1 1.2
v 1.6 1.2 1.2
v 1.6 1.6 1.2
v 1.6 1.7 1.2
v 1.6 2 1.2
v 1 -1.2 1.1
v 1 -1 1.1
v 1 -0.6 1.1
v 1.1 -1.2 1.1
v 1.1 -1 1.1
v 1.1 -0.7 1.1
v 1.1 -0.6 1.1
v 1.2 0.2 1.1
v 1.2 0.3 1.1
v 1.4 0.2 1.1
v 1.4 0.3 1.1
v 0.9 -1.2 1
v 0.9 -1 1
v 0.9 -0.7 1
v 0.9 -0.6 1
v 1 -1.2 1
v 1 -1 1
v 1 -0.7 1
v 1 -0.6 1
v 0.8 -1.2 0.9
v 0.8 -1 0.9
v 0.8 -0.7 0.9
v 0.8 -0.6 0.9
v 0.9 -1.2 0.9
v 0.9 -1 0.9
v 0.9 -0.7 0.9
v 0.9 -0.6 0.9
v 0.8 -1 0.8
v 0.8 -0.7 0.8
v 0.9 -1 0.8
v 0.9 -0.7 0.8
v 0.8 -1 0.5
v 0.8 -0.7 0.5
v 0.9 -1 0.5
v 0.9 -0.7 0.5
v 1.3 -0.7 0.5
v 1.3 -0.6 0.5
v 1.4 -1 0.5
v 1.4 -0.7 0.5
v 1.4 -0.6 0.5
v 1.4 0.0999999 0.5
v 1.5 -1 0.5
v 1.5 -0.9 0.5
v 1.5 -0.7 0.5
v 1.5 -0.6 0.5
v 1.5 0.0999999 0.5
v 0.9 -1 0.3
v 0.9 -0.7 0.3
v 0.9 -0.6 0.3
v 1 -1 0.3
v 1 -0.6 0.3
v 1 -0.7 0.2
v 1 -0.6 0.2
v 1.1 -0.7 0.2
v 1.1 -0.6 0.2
v 1.1 -1 0.0999999
v 1.1 -0.7 0.0999999
v 1.1 -0.6 0.0999999
v 1.2 -1 0.0999999
v 1.2 -0.7 0.0999999
v 1.3 -0.7 0.0999999
v 1.3 -0.6 0.0999999
v 1.4 0 -0.1
v 1.4 0.5 -0.1
v 1.5 0 -0.1
v 1.5 0.5 -0.1
v 1.4 0.3 -0.8
v 1.4 0.8 -0.8
v 1.5 0.3 -0.8
v 1.5 0.8 -0.8
v 1.1 -0.7 1.1
v 1.1 -0.6 1.1
v 1.3 -0.7 1.1
v 1.3 -0.6 1.1
v 1 -1 1
v 1 -0.7 1
v 1 -0.6 1
v 1.1 -1 1
v 1.1 -0.6 1
v 0.9 -0.7 0.9
v 0.9 -0.6 0.9
v 1 -0.7 0.9
v 1 -0.6 0.9
v 1.3 -0.7 0.9
v 1.3 -0.6 0.9
v 1.4 -1 0.9
v 1.4 -0.7 0.9
v 1.4 -0.6 0.9
v 1.4 0.0999999 0.9
v 1.5 -1 0.9
v 1.5 -0.9 0.9
v 1.5 -0.7 0.9
v 1.5 -0.6 0.9
v 1.5 0.0999999 0.9
v 0.8 -1 0.7
v 0.8 -0.7 0.7
v 0.9 -1 0.7
v 0.9 -0.7 0.7
v 0.8 -1 0.4
v 0.8 -0.7 0.4
v 0.9 -1 0.4
v 0.9 -0.7 0.4
v 0.8 -1.2 0.3
v 0.8 -1 0.3
v 0.8 -0.7 0.3
v 0.8 -0.6 0.3
v 0.9 -1.2 0.3
v 0.9 -1 0.3
v 0.9 -0.7 0.3
v 0.9 -0.6 0.3
v 1.2 0.2 0.3
v 1.2 0.3 0.3
v 1.4 0.2 0.3
v 1.4 0.3 0.3
v 0.9 -1.2 0.2
v 0.9 -1 0.2
v 0.9 -0.6 0.2
v 1 -1.2 0.2
v 1 -1 0.2
v 1 -0.7 0.2
v 1 -0.6 0.2
v 1 -1.2 0.0999999
v 1 -1 0.0999999
v 1 -0.7 0.0999999
v 1 -0.6 0.0999999
v 1.1 -1.2 0.0999999
v 1.1 -1 0.0999999
v 1.1 -0.7 0.0999999
v 1.1 -0.6 0.0999999
v 1.4 0 0.0999999
v 1.4 0.5 0.0999999
v 1.5 0 0.0999999
v 1.5 0.5 0.0999999
v 1.1 -1.2 0
v 1.1 -1 0
v 1.1 -0.6 0
v 1.2 -1 0
v 1.2 -0.7 0
v 1.3 -0.7 0
v 1.3 -0.6 0
v 1.4 -1.2 0
v 1.4 -1 0
v 1.4 0.3 -0.6
v 1.4 0.8 -0.6
v 1.5 0.3 -0.6
v 1.5 0.8 -0.6
v 1.4 -1.2 -1.2
v 1.4 -1 -1.2
v 1.4 -0.7 -1.2
v 1.4 -0.6 -1.2
v 1.4 1 -1.2
v 1.4 1.2 -1.2
v 1.4 1.6 -1.2
v 1.4 1.7 -1.2
v 1.4 2 -1.2
v 1.6 -1.2 -1.2
v 1.6 -1 -1.2
v 1.6 -0.7 -1.2
v 1.6 -0.6 -1.2
v 1.6 1 -1.2
v 1.6 1.2 -1.2
v 1.6 1.6 -1.2
v 1.6 1.7 -1.2
v 1.6 2 -1.2
v 1.3 -0.7 -1.3
v 1.3 -0.6 -1.3
v 1.3 1.6 -1.3
v 1.3 1.7 -1.3
v 1.6 -0.7 -1.3
v 1.6 -0.6 -1.3
v 1.6 1.6 -1.3
v 1.6 1.7 -1.3
v 1.1 -1.2 1.2
v 1.6 -1.2 1.2
v 1 -1.2 1.1
v 1.1 -1.2 1.1
v 0.9 -1.2 1
v 1 -1.2 1
v 0.8 -1.2 0.9
v 0.9 -1.2 0.9
v 0.8 -1.2 0.3
v 0.9 -1.2 0.3
v 0.9 -1.2 0.2
v 1 -1.2 0.2
v 1 -1.2 0.0999999
v 1.1 -1.2 0.0999999
v 1.1 -1.2 0
v 1.4 -1.2 0
v 1.4 -1.2 -1.2
v 1.6 -1.2 -1.2
v 1.3 -0.7 1.3
v 1.6 -0.7 1.3
v 1.1 -0.7 1.2
v 1.3 -0.7 1.2
v 1.4 -0.7 1.2
v 1.6 -0.7 1.2
v 1.1 -0.7 1.1
v 1.3 -0.7 1.1
v 0.9 -0.7 1
v 1 -0.7 1
v 0.8 -0.7 0.9
v 0.9 -0.7 0.9
v 1 -0.7 0.9
v 1.3 -0.7 0.9
v 1.4 -0.7 0.9
v 0.8 -0.7 0.8
v 0.9 -0.7 0.8
v 0.8 -0.7 0.7
v 0.9 -0.7 0.7
v 0.8 -0.7 0.5
v 0.9 -0.7 0.5
v 1.3 -0.7 0.5
v 1.4 -0.7 0.5
v 0.8 -0.7 0.4
v 0.9 -0.7 0.4
v 0.8 -0.7 0.3
v 0.9 -0.7 0.3
v 1 -0.7 0.2
v 1.1 -0.7 0.2
v 1 -0.7 0.0999999
v 1.1 -0.7 0.0999999
v 1.2 -0.7 0.0999999
v 1.3 -0.7 0.0999999
v 1.2 -0.7 0
v 1.3 -0.7 0
v 1.4 -0.7 -1.2
v 1.6 -0.7 -1.2
v 1.3 -0.7 -1.3
v 1.6 -0.7 -1.3
v 1.4 0.0999999 0.9
v 1.5 0.0999999 0.9
v 1.4 0.0999999 0.5
v 1.5 0.0999999 0.5
v 1.2 0.2 1.1
v 1.4 0.2 1.1
v 1.4 0.2 1
v 1.4 0.2 0.4
v 1.2 0.2 0.3
v 1.4 0.2 0.3
v 1.4 0.5 0.0999999
v 1.5 0.5 0.0999999
v 1.4 0.5 -0.1
v 1.5 0.5 -0.1
v 1.4 0.8 -0.6
v 1.5 0.8 -0.6
v 1.4 0.8 -0.8
v 1.5 0.8 -0.8
v 1.3 1.6 1.3
v 1.6 1.6 1.3
v 1.4 1.6 1.2
v 1.6 1.6 1.2
v 1.4 1.6 -1.2
v 1.6 1.6 -1.2
v 1.3 1.6 -1.3
v 1.6 1.6 -1.3
v 1.1 -1 1.2
v 1.4 -1 1.2
v 1.1 -1 1.1
v 0.9 -1 1
v 1 -1 1
v 1.1 -1 1
v 0.8 -1 0.9
v 0.9 -1 0.9
v 1.4 -1 0.9
v 1.5 -1 0.9
v 0.8 -1 0.8
v 0.9 -1 0.8
v 0.8 -1 0.7
v 0.9 -1 0.7
v 0.8 -1 0.5
v 0.9 -1 0.5
v 1.4 -1 0.5
v 1.5 -1 0.5
v 0.8 -1 0.4
v 0.9 -1 0.4
v 0.8 -1 0.3
v 0.9 -1 0.3
v 1 -1 0.3
v 1 -1 0.2
v 1 -1 0.0999999
v 1.1 -1 0.0999999
v 1.2 -1 0.0999999
v 1.2 -1 0
v 1.4 -1 0
v 1.3 -0.6 1.3
v 1.6 -0.6 1.3
v 1.1 -0.6 1.2
v 1.3 -0.6 1.2
v 1.4 -0.6 1.2
v 1.6 -0.6 1.2
v 1 -0.6 1.1
v 1.1 -0.6 1.1
v 1.3 -0.6 1.1
v 0.9 -0.6 1
v 1 -0.6 1
v 1.1 -0.6 1
v 1.4 -0.6 1
v 0.8 -0.6 0.9
v 0.9 -0.6 0.9
v 1 -0.6 0.9
v 1.3 -0.6 0.9
v 1.4 -0.6 0.9
v 1.3 -0.6 0.5
v 1.4 -0.6 0.5
v 1.4 -0.6 0.4
v 0.8 -0.6 0.3
v 0.9 -0.6 0.3
v 1 -0.6 0.3
v 0.9 -0.6 0.2
v 1 -0.6 0.2
v 1.1 -0.6 0.2
v 1 -0.6 0.0999999
v 1.1 -0.6 0.0999999
v 1.3 -0.6 0.0999999
v 1.1 -0.6 0
v 1.3 -0.6 0
v 1.4 -0.6 -1.2
v 1.6 -0.6 -1.2
v 1.3 -0.6 -1.3
v 1.6 -0.6 -1.3
v 1.4 0 0.0999999
v 1.5 0 0.0999999
v 1.4 0 -0.1
v 1.5 0 -0.1
v 1.2 0.3 1.1
v 1.4 0.3 1.1
v 1.2 0.3 0.3
v 1.4 0.3 0.3
v 1.4 0.3 -0.6
v 1.5 0.3 -0.6
v 1.4 0.3 -0.8
v 1.5 0.3 -0.8
v 1.3 1.7 1.3
v 1.6 1.7 1.3
v 1.4 1.7 1.2
v 1.6 1.7 1.2
v 1.4 1.7 -1.2
v 1.6 1.7 -1.2
v 1.3 1.7 -1.3
v 1.6 1.7 -1.3
v 1.4 2 1.2
v 1.6 2 1.2
v 1.4 2 -1.2
v 1.6 2 -1.2

# faces
f 3/8/1 2/8/1 1/8/1
f 4/8/1 2/8/1 3/8/1
f 5/8/1 2/8/1 4/8/1
f 6/8/1 2/8/1 5/8/1
f 7/8/1 2/8/1 6/8/1
f 8/8/1 2/8/1 7/8/1
f 10/3/1 5/3/1 4/3/1
f 11/3/1 5/3/1 10/3/1
f 12/3/1 7/3/1 6/3/1
f 13/3/1 7/3/1 12/3/1
f 15/3/1 11/3/1 10/3/1
f 15/3/1 14/3/1 13/3/1
f 15/3/1 13/3/1 12/3/1
f 15/3/1 12/3/1 11/3/1
f 15/3/1 10/3/1 9/3/1
f 16/3/1 14/3/1 15/3/1
f 21/8/1 18/8/1 17/8/1
f 22/8/1 18/8/1 21/8/1
f 23/8/1 20/8/1 19/8/1
f 24/8/1 20/8/1 23/8/1
f 27/3/1 24/3/1 23/3/1
f 28/3/1 26/3/1 25/3/1
f 29/3/1 26/3/1 28/3/1
f 30/3/1 24/3/1 27/3/1
f 31/3/1 24/3/1 30/3/1
f 36/8/1 33/8/1 32/8/1
f 37/8/1 33/8/1 36/8/1
f 38/8/1 35/8/1 34/8/1
f 39/8/1 35/8/1 38/8/1
f 40/3/1 37/3/1 36/3/1
f 43/3/1 40/3/1 36/3/1
f 44/3/1 40/3/1 43/3/1
f 45/3/1 42/3/1 41/3/1
f 46/3/1 42/3/1 45/3/1
f 51/8/1 48/8/1 47/8/1
f 52/8/1 48/8/1 51/8/1
f 53/8/1 50/8/1 49/8/1
f 54/8/1 50/8/1 53/8/1
f 57/3/1 54/3/1 53/3/1
f 58/3/1 56/3/1 55/3/1
f 59/3/1 56/3/1 58/3/1
f 60/3/1 54/3/1 57/3/1
f 61/3/1 54/3/1 60/3/1
f 64/3/1 63/3/1 62/3/1
f 65/3/1 63/3/1 64/3/1
f 74/5/1 67/5/1 66/5/1
f 75/5/1 67/5/1 74/5/1
f 76/5/1 69/5/1 68/5/1
f 77/5/1 69/5/1 76/5/1
f 78/5/1 71/5/1 70/5/1
f 79/5/1 71/5/1 78/5/1
f 80/5/1 73/5/1 72/5/1
f 81/5/1 73/5/1 80/5/1
f 84/5/1 83/5/1 82/5/1
f 85/5/1 83/5/1 84/5/1
f 91/8/1 87/8/1 86/8/1
f 92/8/1 87/8/1 91/8/1
f 93/2/1 89/2/1 88/2/1
f 94/2/1 89/2/1 93/2/1
f 95/2/1 91/2/1 90/2/1
f 95/2/1 92/2/1 91/2/1
f 96/2/1 92/2/1 95/2/1
f 103/4/1 102/4/1 101/4/1
f 104/4/1 102/4/1 103/4/1
f 105/6/1 104/6/1 103/6/1
f 106/6/1 104/6/1 105/6/1
f 107/3/1 99/3/1 98/3/1
f 108/3/1 101/3/1 100/3/1
f 109/4/1 98/4/1 97/4/1
f 110/3/1 108/3/1 107/3/1
f 110/4/1 98/4/1 109/4/1
f 110/3/1 107/3/1 98/3/1
f 111/3/1 101/3/1 108/3/1
f 111/3/1 108/3/1 110/3/1
f 111/4/1 103/4/1 101/4/1
f 112/4/1 103/4/1 111/4/1
f 113/4/1 102/4/1 104/4/1
f 114/4/1 102/4/1 113/4/1
f 115/4/1 109/4/1 97/4/1
f 116/4/1 103/4/1 112/4/1
f 117/6/1 114/6/1 113/6/1
f 118/6/1 114/6/1 117/6/1
f 119/6/1 105/6/1 103/6/1
f 120/6/1 104/6/1 106/6/1
f 121/6/1 119/6/1 103/6/1
f 121/6/1 120/6/1 119/6/1
f 121/4/1 116/4/1 115/4/1
f 121/4/1 103/4/1 116/4/1
f 122/6/1 104/6/1 120/6/1
f 122/6/1 120/6/1 121/6/1
f 122/4/1 113/4/1 104/4/1
f 123/6/1 117/6/1 113/6/1
f 124/6/1 114/6/1 118/6/1
f 125/6/1 123/6/1 113/6/1
f 125/6/1 124/6/1 123/6/1
f 125/4/1 113/4/1 122/4/1
f 125/4/1 122/4/1 121/4/1
f 126/4/1 102/4/1 114/4/1
f 126/6/1 124/6/1 125/6/1
f 126/6/1 114/6/1 124/6/1
f 127/4/1 125/4/1 121/4/1
f 127/4/1 121/4/1 115/4/1
f 127/4/1 126/4/1 125/4/1
f 127/4/1 115/4/1 97/4/1
f 128/4/1 102/4/1 126/4/1
f 128/4/1 126/4/1 127/4/1
f 129/1/1 128/1/1 127/1/1
f 130/1/1 128/1/1 129/1/1
f 131/6/1 130/6/1 129/6/1
f 132/6/1 130/6/1 131/6/1
f 135/8/1 134/8/1 133/8/1
f 136/8/1 134/8/1 135/8/1
f 139/2/1 138/2/1 137/2/1
f 140/2/1 138/2/1 139/2/1
f 141/9/1 140/9/1 139/9/1
f 142/9/1 140/9/1 141/9/1
f 143/9/1 142/9/1 141/9/1
f 144/9/1 142/9/1 143/9/1
f 147/9/1 144/9/1 143/9/1
f 148/9/1 144/9/1 147/9/1
f 151/7/1 146/7/1 145/7/1
f 152/7/1 146/7/1 151/7/1
f 153/7/1 150/7/1 149/7/1
f 154/7/1 150/7/1 153/7/1
f 155/3/2 156/3/2 160/3/2
f 160/3/2 156/3/2 161/3/2
f 157/3/2 158/3/2 162/3/2
f 162/3/2 158/3/2 163/3/2
f 160/3/2 161/3/2 165/3/2
f 163/3/2 164/3/2 165/3/2
f 162/3/2 163/3/2 165/3/2
f 161/3/2 162/3/2 165/3/2
f 159/3/2 160/3/2 165/3/2
f 165/3/2 164/3/2 166/3/2
f 167/3/2 168/3/2 171/3/2
f 169/3/2 170/3/2 172/3/2
f 172/3/2 170/3/2 173/3/2
f 167/3/2 171/3/2 174/3/2
f 174/3/2 171/3/2 175/3/2
f 176/3/2 177/3/2 178/3/2
f 178/3/2 177/3/2 181/3/2
f 181/3/2 177/3/2 182/3/2
f 179/3/2 180/3/2 183/3/2
f 183/3/2 180/3/2 184/3/2
f 185/3/2 186/3/2 187/3/2
f 187/3/2 186/3/2 188/3/2
f 189/8/2 190/8/2 191/8/2
f 191/8/2 190/8/2 192/8/2
f 191/2/2 192/2/2 193/2/2
f 193/2/2 192/2/2 194/2/2
f 191/2/2 193/2/2 196/2/2
f 193/9/2 194/9/2 197/9/2
f 196/2/2 193/2/2 197/2/2
f 194/2/2 192/2/2 198/2/2
f 197/9/2 194/9/2 198/9/2
f 198/2/2 192/2/2 199/2/2
f 195/5/2 196/5/2 201/5/2
f 196/4/2 197/4/2 202/4/2
f 201/5/2 196/5/2 202/5/2
f 198/4/2 199/4/2 203/4/2
f 199/5/2 200/5/2 203/5/2
f 203/5/2 200/5/2 204/5/2
f 198/4/2 203/4/2 205/4/2
f 205/4/2 203/4/2 206/4/2
f 202/4/2 197/4/2 207/4/2
f 197/9/2 198/9/2 207/9/2
f 198/4/2 205/4/2 208/4/2
f 207/9/2 198/9/2 208/9/2
f 206/4/2 203/4/2 209/4/2
f 209/4/2 203/4/2 210/4/2
f 208/4/2 205/4/2 211/4/2
f 205/7/2 206/7/2 211/7/2
f 207/4/2 208/4/2 211/4/2
f 206/4/2 209/4/2 212/4/2
f 211/7/2 206/7/2 212/7/2
f 209/7/2 210/7/2 213/7/2
f 212/4/2 209/4/2 213/4/2
f 211/4/2 212/4/2 213/4/2
f 210/4/2 203/4/2 214/4/2
f 213/7/2 210/7/2 214/7/2
f 211/4/2 213/4/2 215/4/2
f 207/4/2 211/4/2 215/4/2
f 213/4/2 214/4/2 215/4/2
f 202/4/2 207/4/2 215/4/2
f 214/4/2 203/4/2 216/4/2
f 215/4/2 214/4/2 216/4/2
f 215/1/2 216/1/2 217/1/2
f 217/1/2 216/1/2 218/1/2
f 217/6/2 218/6/2 220/6/2
f 220/6/2 218/6/2 221/6/2
f 220/5/2 221/5/2 223/5/2
f 221/5/2 222/5/2 223/5/2
f 219/5/2 220/5/2 223/5/2
f 223/5/2 222/5/2 224/5/2
f 224/5/2 222/5/2 225/5/2
f 225/5/2 222/5/2 226/5/2
f 224/8/2 225/8/2 227/8/2
f 227/8/2 225/8/2 228/8/2
f 233/5/3 230/5/3 229/5/3
f 234/5/3 230/5/3 233/5/3
f 235/5/3 232/5/3 231/5/3
f 236/5/3 232/5/3 235/5/3
f 241/3/3 240/3/3 239/3/3
f 242/3/3 240/3/3 241/3/3
f 243/8/3 238/8/3 237/8/3
f 251/8/3 243/8/3 237/8/3
f 252/2/3 244/2/3 243/2/3
f 252/8/3 243/8/3 251/8/3
f 253/2/3 244/2/3 252/2/3
f 254/4/3 246/4/3 245/4/3
f 255/1/3 247/1/3 246/1/3
f 255/4/3 246/4/3 254/4/3
f 256/6/3 248/6/3 247/6/3
f 256/1/3 247/1/3 255/1/3
f 257/6/3 248/6/3 256/6/3
f 258/8/3 250/8/3 249/8/3
f 259/8/3 250/8/3 258/8/3
f 263/8/3 261/8/3 260/8/3
f 264/3/3 262/3/3 261/3/3
f 264/8/3 261/8/3 263/8/3
f 265/3/3 262/3/3 264/3/3
f 266/3/3 262/3/3 265/3/3
f 269/3/3 268/3/3 267/3/3
f 270/3/3 268/3/3 269/3/3
f 275/8/3 272/8/3 271/8/3
f 276/8/3 272/8/3 275/8/3
f 277/3/3 274/3/3 273/3/3
f 278/3/3 274/3/3 277/3/3
f 283/8/3 280/8/3 279/8/3
f 284/8/3 280/8/3 283/8/3
f 285/3/3 282/3/3 281/3/3
f 286/3/3 282/3/3 285/3/3
f 289/3/3 288/3/3 287/3/3
f 290/3/3 288/3/3 289/3/3
f 293/3/3 292/3/3 291/3/3
f 294/3/3 292/3/3 293/3/3
f 298/5/3 296/5/3 295/5/3
f 299/5/3 296/5/3 298/5/3
f 301/2/3 298/2/3 297/2/3
f 302/2/3 298/2/3 301/2/3
f 303/5/3 299/5/3 298/5/3
f 303/2/3 298/2/3 302/2/3
f 304/3/3 300/3/3 299/3/3
f 304/5/3 299/5/3 303/5/3
f 305/3/3 300/3/3 304/3/3
f 309/3/3 307/3/3 306/3/3
f 309/3/3 308/3/3 307/3/3
f 310/3/3 308/3/3 309/3/3
f 313/3/3 312/3/3 311/3/3
f 314/3/3 312/3/3 313/3/3
f 318/3/3 316/3/3 315/3/3
f 318/3/3 317/3/3 316/3/3
f 319/3/3 317/3/3 318/3/3
f 320/3/3 317/3/3 319/3/3
f 321/3/3 317/3/3 320/3/3
f 324/6/3 323/6/3 322/6/3
f 325/6/3 323/6/3 324/6/3
f 328/6/3 327/6/3 326/6/3
f 329/6/3 327/6/3 328/6/3
f 330/3/4 331/3/4 332/3/4
f 332/3/4 331/3/4 333/3/4
f 334/3/4 335/3/4 337/3/4
f 335/3/4 336/3/4 337/3/4
f 337/3/4 336/3/4 338/3/4
f 339/3/4 340/3/4 341/3/4
f 341/3/4 340/3/4 342/3/4
f 343/5/4 344/5/4 346/5/4
f 346/5/4 344/5/4 347/5/4
f 345/2/4 346/2/4 349/2/4
f 349/2/4 346/2/4 350/2/4
f 346/5/4 347/5/4 351/5/4
f 350/2/4 346/2/4 351/2/4
f 347/3/4 348/3/4 352/3/4
f 351/5/4 347/5/4 352/5/4
f 352/3/4 348/3/4 353/3/4
f 354/3/4 355/3/4 356/3/4
f 356/3/4 355/3/4 357/3/4
f 358/3/4 359/3/4 360/3/4
f 360/3/4 359/3/4 361/3/4
f 362/8/4 363/8/4 366/8/4
f 366/8/4 363/8/4 367/8/4
f 364/3/4 365/3/4 368/3/4
f 368/3/4 365/3/4 369/3/4
f 370/3/4 371/3/4 372/3/4
f 372/3/4 371/3/4 373/3/4
f 374/8/4 375/8/4 377/8/4
f 375/3/4 376/3/4 378/3/4
f 377/8/4 375/8/4 378/8/4
f 378/3/4 376/3/4 379/3/4
f 379/3/4 376/3/4 380/3/4
f 381/8/4 382/8/4 385/8/4
f 385/8/4 382/8/4 386/8/4
f 383/3/4 384/3/4 387/3/4
f 387/3/4 384/3/4 388/3/4
f 389/6/4 390/6/4 391/6/4
f 391/6/4 390/6/4 392/6/4
f 393/8/4 394/8/4 396/8/4
f 394/3/4 395/3/4 396/3/4
f 396/3/4 395/3/4 397/3/4
f 397/3/4 395/3/4 398/3/4
f 398/3/4 395/3/4 399/3/4
f 393/8/4 396/8/4 400/8/4
f 400/8/4 396/8/4 401/8/4
f 402/6/4 403/6/4 404/6/4
f 404/6/4 403/6/4 405/6/4
f 406/8/4 407/8/4 415/8/4
f 407/2/4 408/2/4 416/2/4
f 415/8/4 407/8/4 416/8/4
f 416/2/4 408/2/4 417/2/4
f 409/4/4 410/4/4 418/4/4
f 410/1/4 411/1/4 419/1/4
f 418/4/4 410/4/4 419/4/4
f 411/6/4 412/6/4 420/6/4
f 419/1/4 411/1/4 420/1/4
f 420/6/4 412/6/4 421/6/4
f 413/8/4 414/8/4 422/8/4
f 422/8/4 414/8/4 423/8/4
f 424/5/4 425/5/4 428/5/4
f 428/5/4 425/5/4 429/5/4
f 426/5/4 427/5/4 430/5/4
f 430/5/4 427/5/4 431/5/4
f 435/8/5 433/8/5 432/8/5
f 437/8/5 435/8/5 434/8/5
f 439/8/5 437/8/5 436/8/5
f 440/8/5 439/8/5 438/8/5
f 441/8/5 437/8/5 439/8/5
f 441/8/5 439/8/5 440/8/5
f 442/8/5 437/8/5 441/8/5
f 443/8/5 435/8/5 437/8/5
f 443/8/5 437/8/5 442/8/5
f 444/8/5 435/8/5 443/8/5
f 445/8/5 433/8/5 435/8/5
f 445/8/5 435/8/5 444/8/5
f 446/8/5 433/8/5 445/8/5
f 447/8/5 433/8/5 446/8/5
f 448/8/5 433/8/5 447/8/5
f 449/8/5 433/8/5 448/8/5
f 453/5/5 451/5/5 450/5/5
f 454/5/5 451/5/5 453/5/5
f 455/5/5 451/5/5 454/5/5
f 456/3/5 453/3/5 452/3/5
f 457/5/5 454/5/5 453/5/5
f 457/3/5 453/3/5 456/3/5
f 461/3/5 459/3/5 458/3/5
f 462/3/5 459/3/5 461/3/5
f 463/5/5 454/5/5 457/5/5
f 464/5/5 454/5/5 463/5/5
f 465/3/5 461/3/5 460/3/5
f 466/3/5 461/3/5 465/3/5
f 469/3/5 468/3/5 467/3/5
f 470/3/5 468/3/5 469/3/5
f 475/3/5 474/3/5 473/3/5
f 476/3/5 474/3/5 475/3/5
f 479/3/5 478/3/5 477/3/5
f 480/3/5 478/3/5 479/3/5
f 482/5/5 472/5/5 471/5/5
f 483/3/5 482/3/5 481/3/5
f 484/5/5 472/5/5 482/5/5
f 484/3/5 482/3/5 483/3/5
f 485/5/5 472/5/5 484/5/5
f 487/5/5 485/5/5 484/5/5
f 487/5/5 486/5/5 485/5/5
f 488/5/5 486/5/5 487/5/5
f 491/3/5 490/3/5 489/3/5
f 492/3/5 490/3/5 491/3/5
f 495/3/5 494/3/5 493/3/5
f 496/3/5 495/3/5 493/3/5
f 497/3/5 496/3/5 493/3/5
f 498/3/5 496/3/5 497/3/5
f 501/6/5 500/6/5 499/6/5
f 502/6/5 500/6/5 501/6/5
f 505/6/5 504/6/5 503/6/5
f 506/6/5 504/6/5 505/6/5
f 509/5/5 508/5/5 507/5/5
f 510/5/5 508/5/5 509/5/5
f 511/5/5 509/5/5 507/5/5
f 513/5/5 511/5/5 507/5/5
f 513/5/5 512/5/5 511/5/5
f 514/5/5 512/5/5 513/5/5
f 515/8/6 516/8/6 517/8/6
f 517/8/6 516/8/6 520/8/6
f 518/8/6 519/8/6 522/8/6
f 519/8/6 520/8/6 522/8/6
f 520/8/6 516/8/6 523/8/6
f 522/8/6 520/8/6 523/8/6
f 521/8/6 522/8/6 525/8/6
f 523/8/6 524/8/6 525/8/6
f 522/8/6 523/8/6 525/8/6
f 525/8/6 524/8/6 526/8/6
f 526/8/6 524/8/6 528/8/6
f 527/8/6 528/8/6 529/8/6
f 528/8/6 524/8/6 530/8/6
f 529/8/6 528/8/6 530/8/6
f 530/8/6 524/8/6 531/8/6
f 531/8/6 524/8/6 532/8/6
f 530/8/6 531/8/6 534/8/6
f 533/8/6 534/8/6 535/8/6
f 534/8/6 531/8/6 536/8/6
f 535/8/6 534/8/6 536/8/6
f 536/8/6 531/8/6 537/8/6
f 537/8/6 531/8/6 538/8/6
f 538/8/6 531/8/6 539/8/6
f 539/8/6 531/8/6 540/8/6
f 540/8/6 531/8/6 541/8/6
f 541/8/6 531/8/6 542/8/6
f 542/8/6 531/8/6 543/8/6
f 544/5/6 545/5/6 547/5/6
f 547/5/6 545/5/6 548/5/6
f 548/5/6 545/5/6 549/5/6
f 546/3/6 547/3/6 551/3/6
f 547/5/6 548/5/6 552/5/6
f 551/3/6 547/3/6 552/3/6
f 550/3/6 551/3/6 554/3/6
f 554/3/6 551/3/6 555/3/6
f 552/5/6 548/5/6 556/5/6
f 553/3/6 554/3/6 558/3/6
f 558/3/6 554/3/6 559/3/6
f 552/5/6 556/5/6 560/5/6
f 560/5/6 556/5/6 561/5/6
f 562/5/6 563/5/6 564/5/6
f 557/3/6 558/3/6 565/3/6
f 565/3/6 558/3/6 566/3/6
f 566/3/6 567/3/6 568/3/6
f 568/3/6 567/3/6 569/3/6
f 569/3/6 570/3/6 571/3/6
f 571/3/6 570/3/6 572/3/6
f 562/5/6 564/5/6 573/5/6
f 572/3/6 573/3/6 574/3/6
f 573/5/6 564/5/6 575/5/6
f 574/3/6 573/3/6 575/3/6
f 575/5/6 564/5/6 576/5/6
f 575/5/6 576/5/6 578/5/6
f 576/5/6 577/5/6 578/5/6
f 578/5/6 577/5/6 579/5/6
f 580/6/6 581/6/6 582/6/6
f 582/6/6 581/6/6 583/6/6
f 584/3/6 585/3/6 586/3/6
f 586/3/6 585/3/6 587/3/6
f 588/6/6 589/6/6 590/6/6
f 590/6/6 589/6/6 591/6/6
f 592/5/6 593/5/6 594/5/6
f 594/5/6 593/5/6 595/5/6
f 592/5/6 594/5/6 596/5/6
f 592/5/6 596/5/6 598/5/6
f 596/5/6 597/5/6 598/5/6
f 598/5/6 597/5/6 599/5/6
f 600/8/6 601/8/6 602/8/6
f 602/8/6 601/8/6 603/8/6
