# MagicaVoxel @ Ephtracy

# group
o 

# material
mtllib tile_2_right_nr_corner_90.mtl
usemtl palette

# normals
vn -1 0 0
vn 1 0 0
vn 0 0 1
vn 0 0 -1
vn 0 -1 0
vn 0 1 0

# texcoords
vt 0.939453 0.5
vt 0.943359 0.5
vt 0.947266 0.5
vt 0.970703 0.5
vt 0.974609 0.5
vt 0.978516 0.5
vt 0.982422 0.5
vt 0.986328 0.5
vt 0.994141 0.5

# verts
v -1.3 -0.7 1.6
v -1.3 -0.7 -1.3
v -1.3 -0.6 1.6
v -1.3 -0.6 -1.3
v -1.2 -1.2 1.6
v -1.2 -1.2 -1.2
v -1.2 -1 1.6
v -1.2 -1 -1.2
v -1.2 -0.7 1.6
v -1.2 -0.7 -1.2
v -1.2 -0.6 1.6
v -1.2 -0.6 -1.2
v -1.2 -0.3 -0.1
v -1.2 -0.3 -0.9
v -1.2 -0.2 -0.2
v -1.2 -0.2 -0.8
v -1.2 0.3 -0.2
v -1.2 0.3 -0.8
v -1.2 0.4 -0.2
v -1.2 0.4 -0.4
v -1.2 0.4 -0.6
v -1.2 0.4 -0.8
v -1.2 0.6 -1.2
v -1.2 0.6 -1.6
v -1.2 0.8 -0.2
v -1.2 0.8 -0.4
v -1.2 0.8 -0.6
v -1.2 0.8 -0.8
v -1.2 0.8 -1.2
v -1.2 0.8 -1.6
v -1.2 0.9 -0.1
v -1.2 0.9 -0.9
v -1.2 1 1.6
v -1.2 1 -1.2
v -1.2 1.2 1.6
v -1.2 1.2 -1.2
v -1.2 1.6 1.6
v -1.2 1.6 -1.2
v -1.2 1.7 1.6
v -1.2 1.7 -1.1
v -1.2 2 -1.1
v -1.2 2 -1.2
v -1.1 -0.2 -0.2
v -1.1 -0.2 -0.8
v -1.1 0.3 -0.2
v -1.1 0.3 -0.8
v -1.1 0.4 -0.2
v -1.1 0.4 -0.4
v -1.1 0.4 -0.6
v -1.1 0.4 -0.8
v -1.1 0.8 -0.2
v -1.1 0.8 -0.4
v -1.1 0.8 -0.6
v -1.1 0.8 -0.8
v -1.1 1.7 1.6
v -1.1 1.7 -1.1
v -1.1 2 1.6
v -1.1 2 -1.1
v -1 -0.4 -1.2
v -1 -0.4 -1.4
v -1 0.6 -1.2
v -1 0.6 -1.4
v -0.4 -0.3 -1.3
v -0.4 -0.3 -1.4
v -0.4 -0.2 -1.2
v -0.4 -0.2 -1.3
v -0.4 0.2 -1.2
v -0.4 0.2 -1.3
v -0.4 0.3 -1.3
v -0.4 0.3 -1.4
v 0.3 -0.3 -1.3
v 0.3 -0.3 -1.4
v 0.3 -0.2 -1.2
v 0.3 -0.2 -1.3
v 0.3 0.2 -1.2
v 0.3 0.2 -1.3
v 0.3 0.3 -1.3
v 0.3 0.3 -1.4
v 0.8 -0.2 -0.6
v 0.8 -0.2 -0.8
v 0.8 0 -0.6
v 0.8 0 -0.8
v 0.8 0.4 -1.2
v 0.8 0.4 -1.3
v 0.8 0.6 -1.2
v 0.8 0.6 -1.3
v 0.8 0.8 -0.6
v 0.8 0.8 -1
v 0.8 1 -0.6
v 0.8 1 -1
v 0.9 -0.3 -1.3
v 0.9 -0.3 -1.4
v 0.9 -0.2 -1.2
v 0.9 -0.2 -1.3
v 0.9 0.2 -1.2
v 0.9 0.2 -1.3
v 0.9 0.3 -1.3
v 0.9 0.3 -1.4
v 0.9 0.4 -1.3
v 0.9 0.4 -1.4
v 0.9 0.6 -1.3
v 0.9 0.6 -1.4
v 1 -1 1
v 1 -1 -1
v 1 -0.6 1
v 1 -0.6 -1
v 1 -0.3 0.4
v 1 -0.3 0.1
v 1 -0.3 -0.1
v 1 -0.3 -0.4
v 1 -0.2 -0.6
v 1 -0.2 -0.8
v 1 0 -0.6
v 1 0 -0.8
v 1 0.4 0.4
v 1 0.4 0.1
v 1 0.4 -0.1
v 1 0.4 -0.4
v 1 0.5 0.4
v 1 0.5 -0.4
v 1 0.7 0.4
v 1 0.7 -0.4
v 1 0.8 -0.6
v 1 0.8 -1
v 1 1 1
v 1 1 -0.6
v 1 1 -1
v 1 1.2 1
v 1 1.2 -1
v 1 1.4 1
v 1 1.4 -1
v -1.1 1.7 -1.1
v -1.1 1.7 -1.2
v -1.1 2 -1.1
v -1.1 2 -1.2
v -1 -1 1
v -1 -1 0.8
v -1 -1 0.4
v -1 -1 -1
v -1 -0.6 1
v -1 -0.6 0.8
v -1 -0.6 0.4
v -1 -0.6 -1
v -1 -0.2 -0.2
v -1 -0.2 -0.8
v -1 0 0.8
v -1 0 0.4
v -1 0.8 -0.2
v -1 0.8 -0.8
v -1 1 1
v -1 1 -1
v -1 1.2 1
v -1 1.2 -1
v -1 1.4 1
v -1 1.4 -1
v -0.9 -0.3 -1.3
v -0.9 -0.3 -1.4
v -0.9 -0.2 -1.2
v -0.9 -0.2 -1.3
v -0.9 0.2 -1.2
v -0.9 0.2 -1.3
v -0.9 0.3 -1.3
v -0.9 0.3 -1.4
v -0.9 0.4 -1.3
v -0.9 0.4 -1.4
v -0.9 0.6 -1.3
v -0.9 0.6 -1.4
v -0.8 0.4 -1.2
v -0.8 0.4 -1.3
v -0.8 0.6 -1.2
v -0.8 0.6 -1.3
v -0.3 -0.3 -1.3
v -0.3 -0.3 -1.4
v -0.3 -0.2 -1.2
v -0.3 -0.2 -1.3
v -0.3 0.2 -1.2
v -0.3 0.2 -1.3
v -0.3 0.3 -1.3
v -0.3 0.3 -1.4
v 0.4 -0.3 -1.3
v 0.4 -0.3 -1.4
v 0.4 -0.2 -1.2
v 0.4 -0.2 -1.3
v 0.4 0.2 -1.2
v 0.4 0.2 -1.3
v 0.4 0.3 -1.3
v 0.4 0.3 -1.4
v 1 -0.4 -1.2
v 1 -0.4 -1.4
v 1 0.6 -1.2
v 1 0.6 -1.4
v 1.2 0.6 -1.2
v 1.2 0.6 -1.6
v 1.2 0.8 -1.2
v 1.2 0.8 -1.6
v 1.6 -1.2 1.6
v 1.6 -1.2 -1.2
v 1.6 -1 1.6
v 1.6 -1 -1.2
v 1.6 -0.7 1.6
v 1.6 -0.7 -1.2
v 1.6 -0.7 -1.3
v 1.6 -0.6 1.6
v 1.6 -0.6 -1.2
v 1.6 -0.6 -1.3
v 1.6 1 1.6
v 1.6 1 -1.2
v 1.6 1.2 1.6
v 1.6 1.2 -1.2
v 1.6 1.6 1.6
v 1.6 1.6 -1.2
v 1.6 1.7 1.6
v 1.6 1.7 -1.1
v 1.6 1.7 -1.2
v 1.6 2 1.6
v 1.6 2 -1.1
v -1.3 -0.7 1.6
v -1.3 -0.6 1.6
v -1.2 -1.2 1.6
v -1.2 -1 1.6
v -1.2 -0.7 1.6
v -1.2 -0.6 1.6
v -1.2 1 1.6
v -1.2 1.2 1.6
v -1.2 1.6 1.6
v -1.2 1.7 1.6
v -1.1 -1 1.6
v -1.1 -0.7 1.6
v -1.1 -0.6 1.6
v -1.1 1 1.6
v -1.1 1.7 1.6
v -1.1 2 1.6
v 1.1 -1 1.6
v 1.1 -0.7 1.6
v 1.1 -0.6 1.6
v 1.1 1 1.6
v 1.2 -0.7 1.6
v 1.2 -0.6 1.6
v 1.6 -1.2 1.6
v 1.6 -1 1.6
v 1.6 -0.7 1.6
v 1.6 -0.6 1.6
v 1.6 1 1.6
v 1.6 1.2 1.6
v 1.6 1.6 1.6
v 1.6 1.7 1.6
v 1.6 2 1.6
v -1.2 0.4 -0.4
v -1.2 0.8 -0.4
v -1.1 0.4 -0.4
v -1.1 0.8 -0.4
v 0.8 -0.2 -0.6
v 0.8 0 -0.6
v 0.8 0.8 -0.6
v 0.8 1 -0.6
v 1 -0.2 -0.6
v 1 0 -0.6
v 1 0.8 -0.6
v 1 1 -0.6
v -1.2 -0.2 -0.8
v -1.2 0.3 -0.8
v -1.2 0.4 -0.8
v -1.2 0.8 -0.8
v -1.1 -0.2 -0.8
v -1.1 0.3 -0.8
v -1.1 0.4 -0.8
v -1.1 0.8 -0.8
v -1 -1 -1
v -1 -0.6 -1
v -1 1 -1
v -1 1.2 -1
v -1 1.4 -1
v -0.8 -0.2 -1
v -0.8 0.2 -1
v -0.8 0.4 -1
v -0.8 0.6 -1
v -0.4 -0.2 -1
v -0.4 0.2 -1
v -0.2 -0.2 -1
v -0.2 0.2 -1
v 0.2 -0.2 -1
v 0.2 0.2 -1
v 0.4 -0.2 -1
v 0.4 0.2 -1
v 0.8 -0.2 -1
v 0.8 0.2 -1
v 0.8 0.4 -1
v 0.8 0.6 -1
v 0.8 0.8 -1
v 0.8 1 -1
v 1 -1 -1
v 1 -0.6 -1
v 1 0.8 -1
v 1 1 -1
v 1 1.2 -1
v 1 1.4 -1
v -1.2 1.7 -1.1
v -1.2 2 -1.1
v -1.1 1.7 -1.1
v -1.1 2 -1.1
v -1 -1 1
v -1 -0.6 1
v -1 1 1
v -1 1.2 1
v -1 1.4 1
v -0.8 -0.2 1
v -0.8 0.5 1
v -0.8 0.6 1
v -0.8 0.8 1
v -0.2 -0.2 1
v -0.2 0.5 1
v -0.0999999 -0.2 1
v -0.0999999 0.5 1
v 0.5 -0.2 1
v 0.5 0.5 1
v 0.5 0.6 1
v 0.5 0.8 1
v 0.8 1 1
v 0.8 1.2 1
v 1 -1 1
v 1 -0.6 1
v 1 1 1
v 1 1.2 1
v 1 1.4 1
v -1.2 -0.2 -0.2
v -1.2 0.3 -0.2
v -1.2 0.4 -0.2
v -1.2 0.8 -0.2
v -1.1 -0.2 -0.2
v -1.1 0.3 -0.2
v -1.1 0.4 -0.2
v -1.1 0.8 -0.2
v -1.2 0.4 -0.6
v -1.2 0.8 -0.6
v -1.1 0.4 -0.6
v -1.1 0.8 -0.6
v 0.8 -0.2 -0.8
v 0.8 0 -0.8
v 1 -0.2 -0.8
v 1 0 -0.8
v -1.1 1.7 -1.1
v -1.1 2 -1.1
v 1.6 1.7 -1.1
v 1.6 2 -1.1
v -1.2 -1.2 -1.2
v -1.2 -1 -1.2
v -1.2 -0.7 -1.2
v -1.2 -0.6 -1.2
v -1.2 0.6 -1.2
v -1.2 0.8 -1.2
v -1.2 1 -1.2
v -1.2 1.2 -1.2
v -1.2 1.6 -1.2
v -1.2 2 -1.2
v -1.1 1.7 -1.2
v -1.1 2 -1.2
v -1 -0.4 -1.2
v -1 0.6 -1.2
v -0.9 -0.2 -1.2
v -0.9 0.2 -1.2
v -0.8 0.4 -1.2
v -0.8 0.6 -1.2
v -0.4 -0.2 -1.2
v -0.4 0.2 -1.2
v -0.3 -0.2 -1.2
v -0.3 0.2 -1.2
v 0.3 -0.2 -1.2
v 0.3 0.2 -1.2
v 0.4 -0.2 -1.2
v 0.4 0.2 -1.2
v 0.8 0.4 -1.2
v 0.8 0.6 -1.2
v 0.9 -0.2 -1.2
v 0.9 0.2 -1.2
v 1 -0.4 -1.2
v 1 0.6 -1.2
v 1.2 0.6 -1.2
v 1.2 0.8 -1.2
v 1.6 -1.2 -1.2
v 1.6 -1 -1.2
v 1.6 -0.7 -1.2
v 1.6 -0.6 -1.2
v 1.6 1 -1.2
v 1.6 1.2 -1.2
v 1.6 1.6 -1.2
v 1.6 1.7 -1.2
v -1.3 -0.7 -1.3
v -1.3 -0.6 -1.3
v -0.9 -0.3 -1.3
v -0.9 -0.2 -1.3
v -0.9 0.2 -1.3
v -0.9 0.3 -1.3
v -0.9 0.4 -1.3
v -0.9 0.6 -1.3
v -0.8 0.4 -1.3
v -0.8 0.6 -1.3
v -0.4 -0.3 -1.3
v -0.4 -0.2 -1.3
v -0.4 0.2 -1.3
v -0.4 0.3 -1.3
v -0.3 -0.3 -1.3
v -0.3 -0.2 -1.3
v -0.3 0.2 -1.3
v -0.3 0.3 -1.3
v 0.3 -0.3 -1.3
v 0.3 -0.2 -1.3
v 0.3 0.2 -1.3
v 0.3 0.3 -1.3
v 0.4 -0.3 -1.3
v 0.4 -0.2 -1.3
v 0.4 0.2 -1.3
v 0.4 0.3 -1.3
v 0.8 0.4 -1.3
v 0.8 0.6 -1.3
v 0.9 -0.3 -1.3
v 0.9 -0.2 -1.3
v 0.9 0.2 -1.3
v 0.9 0.3 -1.3
v 0.9 0.4 -1.3
v 0.9 0.6 -1.3
v 1.6 -0.7 -1.3
v 1.6 -0.6 -1.3
v -1 -0.4 -1.4
v -1 0.6 -1.4
v -0.9 -0.3 -1.4
v -0.9 0.3 -1.4
v -0.9 0.4 -1.4
v -0.9 0.6 -1.4
v -0.4 -0.3 -1.4
v -0.4 0.3 -1.4
v -0.3 -0.3 -1.4
v -0.3 0.3 -1.4
v 0.3 -0.3 -1.4
v 0.3 0.3 -1.4
v 0.4 -0.3 -1.4
v 0.4 0.3 -1.4
v 0.9 -0.3 -1.4
v 0.9 0.3 -1.4
v 0.9 0.4 -1.4
v 0.9 0.6 -1.4
v 1 -0.4 -1.4
v 1 0.6 -1.4
v -1.2 0.6 -1.6
v -1.2 0.8 -1.6
v 1.2 0.6 -1.6
v 1.2 0.8 -1.6
v -1.2 -1.2 1.6
v 1.6 -1.2 1.6
v -1.1 -1.2 1.5
v 1.1 -1.2 1.5
v 0.8 -1.2 1.4
v 1 -1.2 1.4
v -1.1 -1.2 1.2
v 0.8 -1.2 1.2
v 1 -1.2 1.2
v 1.1 -1.2 1.2
v -1.2 -1.2 -1.2
v 1.6 -1.2 -1.2
v -1.3 -0.7 1.6
v -1.2 -0.7 1.6
v -1.2 -0.7 -1.2
v 1.6 -0.7 -1.2
v -1.3 -0.7 -1.3
v 1.6 -0.7 -1.3
v -1 -0.4 -1.2
v 1 -0.4 -1.2
v -1 -0.4 -1.4
v 1 -0.4 -1.4
v 0.8 -0.2 -0.6
v 1 -0.2 -0.6
v 0.8 -0.2 -0.8
v 1 -0.2 -0.8
v -0.9 0.2 -1.2
v -0.4 0.2 -1.2
v -0.3 0.2 -1.2
v 0.3 0.2 -1.2
v 0.4 0.2 -1.2
v 0.9 0.2 -1.2
v -0.9 0.2 -1.3
v -0.4 0.2 -1.3
v -0.3 0.2 -1.3
v 0.3 0.2 -1.3
v 0.4 0.2 -1.3
v 0.9 0.2 -1.3
v -1.2 0.3 -0.2
v -1.1 0.3 -0.2
v -1.2 0.3 -0.8
v -1.1 0.3 -0.8
v -0.9 0.3 -1.3
v -0.4 0.3 -1.3
v -0.3 0.3 -1.3
v 0.3 0.3 -1.3
v 0.4 0.3 -1.3
v 0.9 0.3 -1.3
v -0.9 0.3 -1.4
v -0.4 0.3 -1.4
v -0.3 0.3 -1.4
v 0.3 0.3 -1.4
v 0.4 0.3 -1.4
v 0.9 0.3 -1.4
v -1.2 0.6 -1.2
v -1 0.6 -1.2
v -0.8 0.6 -1.2
v 0.8 0.6 -1.2
v 1 0.6 -1.2
v 1.2 0.6 -1.2
v -0.9 0.6 -1.3
v -0.8 0.6 -1.3
v 0.8 0.6 -1.3
v 0.9 0.6 -1.3
v -1 0.6 -1.4
v -0.9 0.6 -1.4
v 0.9 0.6 -1.4
v 1 0.6 -1.4
v -1.2 0.6 -1.6
v 1.2 0.6 -1.6
v -1.2 0.8 -0.2
v -1.1 0.8 -0.2
v -1.2 0.8 -0.4
v -1.1 0.8 -0.4
v -1.2 0.8 -0.6
v -1.1 0.8 -0.6
v 0.8 0.8 -0.6
v 1 0.8 -0.6
v -1.2 0.8 -0.8
v -1.1 0.8 -0.8
v 0.8 0.8 -1
v 1 0.8 -1
v -1 1.4 1
v 1 1.4 1
v -1 1.4 -1
v 1 1.4 -1
v -1 -1 1
v 1 -1 1
v -1 -1 0.8
v -1 -1 0.4
v -1 -1 -1
v 1 -1 -1
v -1.3 -0.6 1.6
v -1.2 -0.6 1.6
v -1.2 -0.6 -1.2
v 1.6 -0.6 -1.2
v -1.3 -0.6 -1.3
v 1.6 -0.6 -1.3
v -0.9 -0.3 -1.3
v -0.4 -0.3 -1.3
v -0.3 -0.3 -1.3
v 0.3 -0.3 -1.3
v 0.4 -0.3 -1.3
v 0.9 -0.3 -1.3
v -0.9 -0.3 -1.4
v -0.4 -0.3 -1.4
v -0.3 -0.3 -1.4
v 0.3 -0.3 -1.4
v 0.4 -0.3 -1.4
v 0.9 -0.3 -1.4
v -1.2 -0.2 -0.2
v -1.1 -0.2 -0.2
v -1.2 -0.2 -0.8
v -1.1 -0.2 -0.8
v -0.9 -0.2 -1.2
v -0.4 -0.2 -1.2
v -0.3 -0.2 -1.2
v 0.3 -0.2 -1.2
v 0.4 -0.2 -1.2
v 0.9 -0.2 -1.2
v -0.9 -0.2 -1.3
v -0.4 -0.2 -1.3
v -0.3 -0.2 -1.3
v 0.3 -0.2 -1.3
v 0.4 -0.2 -1.3
v 0.9 -0.2 -1.3
v 0.8 0 -0.6
v 1 0 -0.6
v 0.8 0 -0.8
v 1 0 -0.8
v -1.2 0.4 -0.2
v -1.1 0.4 -0.2
v -1.2 0.4 -0.4
v -1.1 0.4 -0.4
v -1.2 0.4 -0.6
v -1.1 0.4 -0.6
v -1.2 0.4 -0.8
v -1.1 0.4 -0.8
v -0.8 0.4 -1.2
v 0.8 0.4 -1.2
v -0.9 0.4 -1.3
v -0.8 0.4 -1.3
v 0.8 0.4 -1.3
v 0.9 0.4 -1.3
v -0.9 0.4 -1.4
v 0.9 0.4 -1.4
v -1.2 0.8 -1.2
v 1.2 0.8 -1.2
v -1.2 0.8 -1.6
v 1.2 0.8 -1.6
v 0.8 1 -0.6
v 1 1 -0.6
v 0.8 1 -1
v 1 1 -1
v -1.2 1.7 1.6
v -1.1 1.7 1.6
v -1.2 1.7 -1.1
v -1.1 1.7 -1.1
v 1.6 1.7 -1.1
v -1.1 1.7 -1.2
v 1.6 1.7 -1.2
v -1.1 2 1.6
v 1.6 2 1.6
v -1.2 2 -1.1
v -1.1 2 -1.1
v 1.6 2 -1.1
v -1.2 2 -1.2
v -1.1 2 -1.2

# faces
f 3/5/1 2/5/1 1/5/1
f 4/5/1 2/5/1 3/5/1
f 7/8/1 6/8/1 5/8/1
f 8/8/1 6/8/1 7/8/1
f 9/2/1 8/2/1 7/2/1
f 10/2/1 8/2/1 9/2/1
f 13/4/1 12/4/1 11/4/1
f 14/4/1 12/4/1 13/4/1
f 15/6/1 14/6/1 13/6/1
f 16/6/1 14/6/1 15/6/1
f 17/6/1 15/6/1 13/6/1
f 18/6/1 14/6/1 16/6/1
f 19/6/1 17/6/1 13/6/1
f 19/6/1 18/6/1 17/6/1
f 20/6/1 18/6/1 19/6/1
f 21/6/1 18/6/1 20/6/1
f 22/6/1 14/6/1 18/6/1
f 22/6/1 18/6/1 21/6/1
f 23/4/1 12/4/1 14/4/1
f 25/6/1 19/6/1 13/6/1
f 26/6/1 21/6/1 20/6/1
f 27/6/1 21/6/1 26/6/1
f 28/6/1 14/6/1 22/6/1
f 29/4/1 23/4/1 14/4/1
f 29/3/1 24/3/1 23/3/1
f 30/3/1 24/3/1 29/3/1
f 31/6/1 28/6/1 27/6/1
f 31/4/1 13/4/1 11/4/1
f 31/6/1 27/6/1 26/6/1
f 31/6/1 25/6/1 13/6/1
f 31/6/1 26/6/1 25/6/1
f 32/6/1 14/6/1 28/6/1
f 32/6/1 28/6/1 31/6/1
f 32/4/1 29/4/1 14/4/1
f 33/4/1 31/4/1 11/4/1
f 33/4/1 32/4/1 31/4/1
f 34/4/1 29/4/1 32/4/1
f 34/4/1 32/4/1 33/4/1
f 35/1/1 34/1/1 33/1/1
f 36/1/1 34/1/1 35/1/1
f 37/6/1 36/6/1 35/6/1
f 38/6/1 36/6/1 37/6/1
f 39/5/1 38/5/1 37/5/1
f 40/5/1 38/5/1 39/5/1
f 41/5/1 38/5/1 40/5/1
f 42/5/1 38/5/1 41/5/1
f 45/7/1 44/7/1 43/7/1
f 46/7/1 44/7/1 45/7/1
f 51/7/1 48/7/1 47/7/1
f 52/7/1 48/7/1 51/7/1
f 53/7/1 50/7/1 49/7/1
f 54/7/1 50/7/1 53/7/1
f 57/8/1 56/8/1 55/8/1
f 58/8/1 56/8/1 57/8/1
f 61/6/1 60/6/1 59/6/1
f 62/6/1 60/6/1 61/6/1
f 66/6/1 64/6/1 63/6/1
f 67/6/1 66/6/1 65/6/1
f 68/6/1 64/6/1 66/6/1
f 68/6/1 66/6/1 67/6/1
f 69/6/1 64/6/1 68/6/1
f 70/6/1 64/6/1 69/6/1
f 74/6/1 72/6/1 71/6/1
f 75/6/1 74/6/1 73/6/1
f 76/6/1 72/6/1 74/6/1
f 76/6/1 74/6/1 75/6/1
f 77/6/1 72/6/1 76/6/1
f 78/6/1 72/6/1 77/6/1
f 81/7/1 80/7/1 79/7/1
f 82/7/1 80/7/1 81/7/1
f 85/6/1 84/6/1 83/6/1
f 86/6/1 84/6/1 85/6/1
f 89/4/1 88/4/1 87/4/1
f 90/4/1 88/4/1 89/4/1
f 94/6/1 92/6/1 91/6/1
f 95/6/1 94/6/1 93/6/1
f 96/6/1 92/6/1 94/6/1
f 96/6/1 94/6/1 95/6/1
f 97/6/1 92/6/1 96/6/1
f 98/6/1 92/6/1 97/6/1
f 101/6/1 100/6/1 99/6/1
f 102/6/1 100/6/1 101/6/1
f 105/2/1 104/2/1 103/2/1
f 106/2/1 104/2/1 105/2/1
f 107/4/1 106/4/1 105/4/1
f 108/4/1 106/4/1 107/4/1
f 109/4/1 106/4/1 108/4/1
f 110/4/1 106/4/1 109/4/1
f 111/4/1 106/4/1 110/4/1
f 112/4/1 106/4/1 111/4/1
f 113/4/1 111/4/1 110/4/1
f 114/4/1 106/4/1 112/4/1
f 115/4/1 107/4/1 105/4/1
f 115/7/1 108/7/1 107/7/1
f 116/4/1 109/4/1 108/4/1
f 116/7/1 108/7/1 115/7/1
f 117/7/1 110/7/1 109/7/1
f 117/4/1 109/4/1 116/4/1
f 118/4/1 114/4/1 113/4/1
f 118/7/1 110/7/1 117/7/1
f 118/4/1 113/4/1 110/4/1
f 119/4/1 117/4/1 116/4/1
f 119/4/1 115/4/1 105/4/1
f 119/4/1 118/4/1 117/4/1
f 119/4/1 116/4/1 115/4/1
f 120/4/1 114/4/1 118/4/1
f 120/4/1 118/4/1 119/4/1
f 121/4/1 119/4/1 105/4/1
f 121/7/1 120/7/1 119/7/1
f 122/4/1 114/4/1 120/4/1
f 122/7/1 120/7/1 121/7/1
f 123/4/1 122/4/1 121/4/1
f 123/4/1 114/4/1 122/4/1
f 124/4/1 106/4/1 114/4/1
f 124/4/1 114/4/1 123/4/1
f 125/4/1 121/4/1 105/4/1
f 125/4/1 123/4/1 121/4/1
f 126/4/1 123/4/1 125/4/1
f 128/1/1 126/1/1 125/1/1
f 128/1/1 127/1/1 126/1/1
f 129/1/1 127/1/1 128/1/1
f 130/6/1 129/6/1 128/6/1
f 131/6/1 129/6/1 130/6/1
f 132/5/2 133/5/2 134/5/2
f 134/5/2 133/5/2 135/5/2
f 136/2/2 137/2/2 140/2/2
f 137/8/2 138/8/2 141/8/2
f 140/2/2 137/2/2 141/2/2
f 138/2/2 139/2/2 142/2/2
f 141/8/2 138/8/2 142/8/2
f 142/2/2 139/2/2 143/2/2
f 142/4/2 143/4/2 144/4/2
f 144/4/2 143/4/2 145/4/2
f 140/4/2 141/4/2 146/4/2
f 141/8/2 142/8/2 146/8/2
f 142/4/2 144/4/2 147/4/2
f 146/8/2 142/8/2 147/8/2
f 144/7/2 145/7/2 148/7/2
f 147/4/2 144/4/2 148/4/2
f 146/4/2 147/4/2 148/4/2
f 145/4/2 143/4/2 149/4/2
f 148/7/2 145/7/2 149/7/2
f 146/4/2 148/4/2 150/4/2
f 140/4/2 146/4/2 150/4/2
f 148/4/2 149/4/2 150/4/2
f 149/4/2 143/4/2 151/4/2
f 150/4/2 149/4/2 151/4/2
f 150/1/2 151/1/2 152/1/2
f 152/1/2 151/1/2 153/1/2
f 152/6/2 153/6/2 154/6/2
f 154/6/2 153/6/2 155/6/2
f 156/6/2 157/6/2 159/6/2
f 158/6/2 159/6/2 160/6/2
f 159/6/2 157/6/2 161/6/2
f 160/6/2 159/6/2 161/6/2
f 161/6/2 157/6/2 162/6/2
f 162/6/2 157/6/2 163/6/2
f 164/6/2 165/6/2 166/6/2
f 166/6/2 165/6/2 167/6/2
f 168/6/2 169/6/2 170/6/2
f 170/6/2 169/6/2 171/6/2
f 172/6/2 173/6/2 175/6/2
f 174/6/2 175/6/2 176/6/2
f 175/6/2 173/6/2 177/6/2
f 176/6/2 175/6/2 177/6/2
f 177/6/2 173/6/2 178/6/2
f 178/6/2 173/6/2 179/6/2
f 180/6/2 181/6/2 183/6/2
f 182/6/2 183/6/2 184/6/2
f 183/6/2 181/6/2 185/6/2
f 184/6/2 183/6/2 185/6/2
f 185/6/2 181/6/2 186/6/2
f 186/6/2 181/6/2 187/6/2
f 188/6/2 189/6/2 190/6/2
f 190/6/2 189/6/2 191/6/2
f 192/3/2 193/3/2 194/3/2
f 194/3/2 193/3/2 195/3/2
f 196/8/2 197/8/2 198/8/2
f 198/8/2 197/8/2 199/8/2
f 198/2/2 199/2/2 200/2/2
f 200/2/2 199/2/2 201/2/2
f 200/5/2 201/5/2 203/5/2
f 201/5/2 202/5/2 203/5/2
f 203/5/2 202/5/2 204/5/2
f 204/5/2 202/5/2 205/5/2
f 203/4/2 204/4/2 206/4/2
f 206/4/2 204/4/2 207/4/2
f 206/1/2 207/1/2 208/1/2
f 208/1/2 207/1/2 209/1/2
f 208/6/2 209/6/2 210/6/2
f 210/6/2 209/6/2 211/6/2
f 210/5/2 211/5/2 212/5/2
f 212/5/2 211/5/2 213/5/2
f 213/5/2 211/5/2 214/5/2
f 212/8/2 213/8/2 215/8/2
f 215/8/2 213/8/2 216/8/2
f 221/5/3 218/5/3 217/5/3
f 222/5/3 218/5/3 221/5/3
f 227/8/3 220/8/3 219/8/3
f 227/2/3 221/2/3 220/2/3
f 228/6/3 222/6/3 221/6/3
f 228/2/3 221/2/3 227/2/3
f 229/4/3 223/4/3 222/4/3
f 229/6/3 222/6/3 228/6/3
f 230/1/3 224/1/3 223/1/3
f 230/4/3 223/4/3 229/4/3
f 231/5/3 226/5/3 225/5/3
f 233/8/3 227/8/3 219/8/3
f 233/6/3 228/6/3 227/6/3
f 233/6/3 229/6/3 228/6/3
f 233/6/3 230/6/3 229/6/3
f 234/6/3 230/6/3 233/6/3
f 235/6/3 230/6/3 234/6/3
f 236/1/3 224/1/3 230/1/3
f 236/6/3 230/6/3 235/6/3
f 237/6/3 235/6/3 234/6/3
f 237/2/3 234/2/3 233/2/3
f 238/4/3 236/4/3 235/4/3
f 238/6/3 235/6/3 237/6/3
f 239/8/3 233/8/3 219/8/3
f 240/2/3 237/2/3 233/2/3
f 240/8/3 233/8/3 239/8/3
f 241/5/3 238/5/3 237/5/3
f 241/2/3 237/2/3 240/2/3
f 242/4/3 236/4/3 238/4/3
f 242/5/3 238/5/3 241/5/3
f 243/1/3 224/1/3 236/1/3
f 243/4/3 236/4/3 242/4/3
f 244/6/3 225/6/3 224/6/3
f 244/1/3 224/1/3 243/1/3
f 245/5/3 231/5/3 225/5/3
f 245/6/3 225/6/3 244/6/3
f 246/8/3 232/8/3 231/8/3
f 246/5/3 231/5/3 245/5/3
f 247/8/3 232/8/3 246/8/3
f 250/6/3 249/6/3 248/6/3
f 251/6/3 249/6/3 250/6/3
f 256/7/3 253/7/3 252/7/3
f 257/7/3 253/7/3 256/7/3
f 258/4/3 255/4/3 254/4/3
f 259/4/3 255/4/3 258/4/3
f 264/6/3 261/6/3 260/6/3
f 265/6/3 261/6/3 264/6/3
f 266/6/3 263/6/3 262/6/3
f 267/6/3 263/6/3 266/6/3
f 273/4/3 270/4/3 269/4/3
f 274/4/3 270/4/3 273/4/3
f 275/4/3 270/4/3 274/4/3
f 276/4/3 270/4/3 275/4/3
f 277/4/3 273/4/3 269/4/3
f 277/7/3 274/7/3 273/7/3
f 278/4/3 275/4/3 274/4/3
f 278/7/3 274/7/3 277/7/3
f 279/4/3 277/4/3 269/4/3
f 279/4/3 278/4/3 277/4/3
f 280/4/3 275/4/3 278/4/3
f 280/4/3 278/4/3 279/4/3
f 281/4/3 279/4/3 269/4/3
f 281/7/3 280/7/3 279/7/3
f 282/4/3 275/4/3 280/4/3
f 282/7/3 280/7/3 281/7/3
f 283/4/3 281/4/3 269/4/3
f 283/4/3 282/4/3 281/4/3
f 284/4/3 275/4/3 282/4/3
f 284/4/3 282/4/3 283/4/3
f 285/4/3 283/4/3 269/4/3
f 285/7/3 284/7/3 283/7/3
f 286/4/3 275/4/3 284/4/3
f 286/7/3 284/7/3 285/7/3
f 287/7/3 276/7/3 275/7/3
f 287/4/3 275/4/3 286/4/3
f 288/4/3 270/4/3 276/4/3
f 288/7/3 276/7/3 287/7/3
f 289/4/3 270/4/3 288/4/3
f 290/1/3 271/1/3 270/1/3
f 290/4/3 270/4/3 289/4/3
f 291/2/3 269/2/3 268/2/3
f 292/4/3 289/4/3 288/4/3
f 292/2/3 269/2/3 291/2/3
f 292/4/3 287/4/3 286/4/3
f 292/4/3 288/4/3 287/4/3
f 292/4/3 285/4/3 269/4/3
f 292/4/3 286/4/3 285/4/3
f 293/4/3 289/4/3 292/4/3
f 294/1/3 271/1/3 290/1/3
f 295/6/3 272/6/3 271/6/3
f 295/1/3 271/1/3 294/1/3
f 296/6/3 272/6/3 295/6/3
f 299/5/3 298/5/3 297/5/3
f 300/5/3 298/5/3 299/5/3
f 302/4/4 303/4/4 306/4/4
f 306/4/4 303/4/4 307/4/4
f 307/4/4 303/4/4 308/4/4
f 308/4/4 303/4/4 309/4/4
f 302/4/4 306/4/4 310/4/4
f 306/7/4 307/7/4 310/7/4
f 307/4/4 308/4/4 311/4/4
f 310/7/4 307/7/4 311/7/4
f 302/4/4 310/4/4 312/4/4
f 310/4/4 311/4/4 312/4/4
f 311/4/4 308/4/4 313/4/4
f 312/4/4 311/4/4 313/4/4
f 302/4/4 312/4/4 314/4/4
f 312/7/4 313/7/4 314/7/4
f 313/4/4 308/4/4 315/4/4
f 314/7/4 313/7/4 315/7/4
f 308/7/4 309/7/4 316/7/4
f 315/4/4 308/4/4 316/4/4
f 309/4/4 303/4/4 317/4/4
f 316/7/4 309/7/4 317/7/4
f 303/1/4 304/1/4 318/1/4
f 317/4/4 303/4/4 318/4/4
f 316/4/4 317/4/4 318/4/4
f 315/4/4 316/4/4 318/4/4
f 314/4/4 315/4/4 318/4/4
f 304/6/4 305/6/4 319/6/4
f 318/1/4 304/1/4 319/1/4
f 301/2/4 302/2/4 320/2/4
f 314/4/4 318/4/4 321/4/4
f 320/2/4 302/2/4 321/2/4
f 302/4/4 314/4/4 321/4/4
f 318/4/4 319/4/4 321/4/4
f 321/4/4 319/4/4 322/4/4
f 319/6/4 305/6/4 323/6/4
f 322/4/4 319/4/4 323/4/4
f 323/6/4 305/6/4 324/6/4
f 325/6/4 326/6/4 329/6/4
f 329/6/4 326/6/4 330/6/4
f 327/6/4 328/6/4 331/6/4
f 331/6/4 328/6/4 332/6/4
f 333/6/4 334/6/4 335/6/4
f 335/6/4 334/6/4 336/6/4
f 337/7/4 338/7/4 339/7/4
f 339/7/4 338/7/4 340/7/4
f 341/8/4 342/8/4 343/8/4
f 343/8/4 342/8/4 344/8/4
f 353/5/4 354/5/4 355/5/4
f 355/5/4 354/5/4 356/5/4
f 348/4/4 349/4/4 357/4/4
f 357/4/4 349/4/4 358/4/4
f 359/7/4 360/7/4 363/7/4
f 363/7/4 360/7/4 364/7/4
f 365/7/4 366/7/4 367/7/4
f 367/7/4 366/7/4 368/7/4
f 361/7/4 362/7/4 371/7/4
f 371/7/4 362/7/4 372/7/4
f 369/7/4 370/7/4 373/7/4
f 373/7/4 370/7/4 374/7/4
f 348/4/4 357/4/4 375/4/4
f 375/4/4 376/4/4 377/4/4
f 350/4/4 351/4/4 378/4/4
f 345/8/4 346/8/4 379/8/4
f 346/2/4 347/2/4 380/2/4
f 379/8/4 346/8/4 380/8/4
f 380/2/4 347/2/4 381/2/4
f 377/4/4 378/4/4 382/4/4
f 375/4/4 377/4/4 382/4/4
f 348/4/4 375/4/4 382/4/4
f 351/1/4 352/1/4 383/1/4
f 382/4/4 378/4/4 383/4/4
f 378/4/4 351/4/4 383/4/4
f 352/6/4 353/6/4 384/6/4
f 383/1/4 352/1/4 384/1/4
f 353/5/4 355/5/4 385/5/4
f 384/6/4 353/6/4 385/6/4
f 385/5/4 355/5/4 386/5/4
f 393/6/4 394/6/4 395/6/4
f 395/6/4 394/6/4 396/6/4
f 389/4/4 390/4/4 397/4/4
f 397/4/4 390/4/4 398/4/4
f 391/4/4 392/4/4 399/4/4
f 399/4/4 392/4/4 400/4/4
f 401/4/4 402/4/4 405/4/4
f 405/4/4 402/4/4 406/4/4
f 403/4/4 404/4/4 407/4/4
f 407/4/4 404/4/4 408/4/4
f 409/4/4 410/4/4 415/4/4
f 415/4/4 410/4/4 416/4/4
f 411/4/4 412/4/4 417/4/4
f 417/4/4 412/4/4 418/4/4
f 413/6/4 414/6/4 419/6/4
f 419/6/4 414/6/4 420/6/4
f 387/5/4 388/5/4 421/5/4
f 421/5/4 388/5/4 422/5/4
f 423/6/4 424/6/4 425/6/4
f 425/6/4 424/6/4 426/6/4
f 426/6/4 424/6/4 427/6/4
f 427/6/4 424/6/4 428/6/4
f 423/6/4 425/6/4 429/6/4
f 426/6/4 427/6/4 430/6/4
f 423/6/4 429/6/4 431/6/4
f 429/6/4 430/6/4 431/6/4
f 430/6/4 427/6/4 432/6/4
f 431/6/4 430/6/4 432/6/4
f 423/6/4 431/6/4 433/6/4
f 432/6/4 427/6/4 434/6/4
f 423/6/4 433/6/4 435/6/4
f 433/6/4 434/6/4 435/6/4
f 434/6/4 427/6/4 436/6/4
f 435/6/4 434/6/4 436/6/4
f 423/6/4 435/6/4 437/6/4
f 436/6/4 427/6/4 438/6/4
f 438/6/4 427/6/4 439/6/4
f 423/6/4 437/6/4 441/6/4
f 439/6/4 440/6/4 441/6/4
f 438/6/4 439/6/4 441/6/4
f 437/6/4 438/6/4 441/6/4
f 441/6/4 440/6/4 442/6/4
f 443/3/4 444/3/4 445/3/4
f 445/3/4 444/3/4 446/3/4
f 449/8/5 448/8/5 447/8/5
f 450/8/5 448/8/5 449/8/5
f 451/6/5 450/6/5 449/6/5
f 452/6/5 450/6/5 451/6/5
f 453/8/5 449/8/5 447/8/5
f 453/6/5 451/6/5 449/6/5
f 454/3/5 452/3/5 451/3/5
f 454/6/5 451/6/5 453/6/5
f 455/6/5 450/6/5 452/6/5
f 455/3/5 452/3/5 454/3/5
f 456/8/5 448/8/5 450/8/5
f 456/6/5 450/6/5 455/6/5
f 457/8/5 454/8/5 453/8/5
f 457/8/5 455/8/5 454/8/5
f 457/8/5 456/8/5 455/8/5
f 457/8/5 453/8/5 447/8/5
f 458/8/5 448/8/5 456/8/5
f 458/8/5 456/8/5 457/8/5
f 461/5/5 460/5/5 459/5/5
f 463/5/5 461/5/5 459/5/5
f 463/5/5 462/5/5 461/5/5
f 464/5/5 462/5/5 463/5/5
f 467/6/5 466/6/5 465/6/5
f 468/6/5 466/6/5 467/6/5
f 471/7/5 470/7/5 469/7/5
f 472/7/5 470/7/5 471/7/5
f 479/4/5 474/4/5 473/4/5
f 480/4/5 474/4/5 479/4/5
f 481/4/5 476/4/5 475/4/5
f 482/4/5 476/4/5 481/4/5
f 483/4/5 478/4/5 477/4/5
f 484/4/5 478/4/5 483/4/5
f 487/6/5 486/6/5 485/6/5
f 488/6/5 486/6/5 487/6/5
f 495/6/5 490/6/5 489/6/5
f 496/6/5 490/6/5 495/6/5
f 497/6/5 492/6/5 491/6/5
f 498/6/5 492/6/5 497/6/5
f 499/6/5 494/6/5 493/6/5
f 500/6/5 494/6/5 499/6/5
f 508/3/5 504/3/5 503/3/5
f 509/3/5 504/3/5 508/3/5
f 511/3/5 502/3/5 501/3/5
f 512/3/5 510/3/5 509/3/5
f 512/3/5 508/3/5 507/3/5
f 512/3/5 509/3/5 508/3/5
f 513/3/5 510/3/5 512/3/5
f 514/3/5 506/3/5 505/3/5
f 515/3/5 511/3/5 501/3/5
f 515/3/5 514/3/5 513/3/5
f 515/3/5 513/3/5 512/3/5
f 515/3/5 512/3/5 511/3/5
f 516/3/5 506/3/5 514/3/5
f 516/3/5 514/3/5 515/3/5
f 519/6/5 518/6/5 517/6/5
f 520/6/5 518/6/5 519/6/5
f 525/6/5 522/6/5 521/6/5
f 526/6/5 522/6/5 525/6/5
f 527/4/5 524/4/5 523/4/5
f 528/4/5 524/4/5 527/4/5
f 531/6/5 530/6/5 529/6/5
f 532/6/5 530/6/5 531/6/5
f 533/8/6 534/8/6 535/8/6
f 535/8/6 534/8/6 536/8/6
f 536/8/6 534/8/6 537/8/6
f 537/8/6 534/8/6 538/8/6
f 539/5/6 540/5/6 541/5/6
f 539/5/6 541/5/6 543/5/6
f 541/5/6 542/5/6 543/5/6
f 543/5/6 542/5/6 544/5/6
f 545/6/6 546/6/6 551/6/6
f 551/6/6 546/6/6 552/6/6
f 547/6/6 548/6/6 553/6/6
f 553/6/6 548/6/6 554/6/6
f 549/6/6 550/6/6 555/6/6
f 555/6/6 550/6/6 556/6/6
f 557/6/6 558/6/6 559/6/6
f 559/6/6 558/6/6 560/6/6
f 561/4/6 562/4/6 567/4/6
f 567/4/6 562/4/6 568/4/6
f 563/4/6 564/4/6 569/4/6
f 569/4/6 564/4/6 570/4/6
f 565/4/6 566/4/6 571/4/6
f 571/4/6 566/4/6 572/4/6
f 573/7/6 574/7/6 575/7/6
f 575/7/6 574/7/6 576/7/6
f 577/6/6 578/6/6 579/6/6
f 579/6/6 578/6/6 580/6/6
f 581/6/6 582/6/6 583/6/6
f 583/6/6 582/6/6 584/6/6
f 585/4/6 586/4/6 588/4/6
f 588/4/6 586/4/6 589/4/6
f 587/6/6 588/6/6 591/6/6
f 589/6/6 590/6/6 591/6/6
f 588/6/6 589/6/6 591/6/6
f 591/6/6 590/6/6 592/6/6
f 593/3/6 594/3/6 595/3/6
f 595/3/6 594/3/6 596/3/6
f 597/4/6 598/4/6 599/4/6
f 599/4/6 598/4/6 600/4/6
f 601/5/6 602/5/6 603/5/6
f 603/5/6 602/5/6 604/5/6
f 604/5/6 605/5/6 606/5/6
f 606/5/6 605/5/6 607/5/6
f 608/8/6 609/8/6 611/8/6
f 611/8/6 609/8/6 612/8/6
f 610/5/6 611/5/6 613/5/6
f 613/5/6 611/5/6 614/5/6
