# MagicaVoxel @ Ephtracy

# group
o 

# material
mtllib tile_4_left_nr_90.mtl
usemtl palette

# normals
vn -1 0 0
vn 1 0 0
vn 0 0 1
vn 0 0 -1
vn 0 -1 0
vn 0 1 0

# texcoords
vt 0.939453 0.5
vt 0.943359 0.5
vt 0.947266 0.5
vt 0.970703 0.5
vt 0.974609 0.5
vt 0.978516 0.5
vt 0.982422 0.5
vt 0.986328 0.5
vt 0.994141 0.5

# verts
v -1.3 -0.7 -1.3
v -1.3 -0.7 -1.6
v -1.3 -0.6 -1.3
v -1.3 -0.6 -1.6
v -1.3 1.6 -1.3
v -1.3 1.6 -1.6
v -1.3 1.7 -1.3
v -1.3 1.7 -1.6
v -1.2 -1.2 -1.4
v -1.2 -1.2 -1.6
v -1.2 -1 -1.4
v -1.2 -1 -1.6
v -1.2 -0.7 -1.4
v -1.2 -0.7 -1.6
v -1.2 -0.6 -1.4
v -1.2 -0.6 -1.6
v -1.2 1 -1.4
v -1.2 1 -1.6
v -1.2 1.2 -1.4
v -1.2 1.2 -1.6
v -1.2 1.6 -1.4
v -1.2 1.6 -1.6
v -1.2 1.7 -1.4
v -1.2 1.7 -1.6
v -1.2 2 -1.4
v -1.2 2 -1.6
v -0.6 0.3 -1.4
v -0.6 0.3 -1.5
v -0.6 0.8 -1.4
v -0.6 0.8 -1.5
v 0 -1.2 -1.1
v 0 -1.2 -1.4
v 0 -1 -1.1
v 0 -1 -1.2
v 0 -1 -1.4
v 0 -0.7 -1.2
v 0 -0.7 -1.3
v 0 -0.6 -1.1
v 0 -0.6 -1.3
v 0.1 -1.2 -1
v 0.1 -1.2 -1.1
v 0.1 -1 -1
v 0.1 -1 -1.1
v 0.1 -0.7 -1
v 0.1 -0.7 -1.1
v 0.1 -0.6 -1
v 0.1 -0.6 -1.1
v 0.1 0 -1.4
v 0.1 0 -1.5
v 0.1 0.5 -1.4
v 0.1 0.5 -1.5
v 0.2 -1.2 -0.9
v 0.2 -1.2 -1
v 0.2 -1 -0.9
v 0.2 -1 -1
v 0.2 -0.7 -1
v 0.2 -0.6 -0.9
v 0.2 -0.6 -1
v 0.3 -1.2 -0.8
v 0.3 -1.2 -0.9
v 0.3 -1 -0.8
v 0.3 -1 -0.9
v 0.3 -0.7 -0.8
v 0.3 -0.7 -0.9
v 0.3 -0.6 -0.8
v 0.3 -0.6 -0.9
v 0.3 0.2 -1.2
v 0.3 0.2 -1.4
v 0.3 0.3 -1.2
v 0.3 0.3 -1.4
v 0.4 -1 -0.8
v 0.4 -1 -0.9
v 0.4 -0.7 -0.8
v 0.4 -0.7 -0.9
v 0.7 -1 -0.8
v 0.7 -1 -0.9
v 0.7 -0.7 -0.8
v 0.7 -0.7 -0.9
v 0.9 -1 -1.4
v 0.9 -1 -1.5
v 0.9 -0.9 -1.5
v 0.9 -0.7 -0.9
v 0.9 -0.7 -1
v 0.9 -0.7 -1.3
v 0.9 -0.7 -1.4
v 0.9 -0.7 -1.5
v 0.9 -0.6 -0.9
v 0.9 -0.6 -1
v 0.9 -0.6 -1.3
v 0.9 -0.6 -1.4
v 0.9 -0.6 -1.5
v 0.9 0.0999999 -1.4
v 0.9 0.0999999 -1.5
v 1 -1 -1
v 1 -1 -1.1
v 1 -0.7 -1
v 1 -0.6 -1
v 1 -0.6 -1.1
v 1.1 -0.7 -1.1
v 1.1 -0.7 -1.3
v 1.1 -0.6 -1.1
v 1.1 -0.6 -1.3
v -0.8 0.3 -1.4
v -0.8 0.3 -1.5
v -0.8 0.8 -1.4
v -0.8 0.8 -1.5
v -0.0999999 0 -1.4
v -0.0999999 0 -1.5
v -0.0999999 0.5 -1.4
v -0.0999999 0.5 -1.5
v 0.1 -1 -1.1
v 0.1 -1 -1.2
v 0.1 -0.7 -1.1
v 0.1 -0.7 -1.2
v 0.1 -0.7 -1.3
v 0.1 -0.6 -1.1
v 0.1 -0.6 -1.3
v 0.2 -0.7 -1
v 0.2 -0.7 -1.1
v 0.2 -0.6 -1
v 0.2 -0.6 -1.1
v 0.3 -1 -0.9
v 0.3 -1 -1
v 0.3 -0.7 -0.9
v 0.3 -0.6 -0.9
v 0.3 -0.6 -1
v 0.5 -1 -0.8
v 0.5 -1 -0.9
v 0.5 -1 -1.4
v 0.5 -1 -1.5
v 0.5 -0.9 -1.5
v 0.5 -0.7 -0.8
v 0.5 -0.7 -0.9
v 0.5 -0.7 -1.3
v 0.5 -0.7 -1.4
v 0.5 -0.7 -1.5
v 0.5 -0.6 -1.3
v 0.5 -0.6 -1.4
v 0.5 -0.6 -1.5
v 0.5 0.0999999 -1.4
v 0.5 0.0999999 -1.5
v 0.8 -1 -0.8
v 0.8 -1 -0.9
v 0.8 -0.7 -0.8
v 0.8 -0.7 -0.9
v 0.9 -1.2 -0.8
v 0.9 -1.2 -0.9
v 0.9 -1 -0.8
v 0.9 -1 -0.9
v 0.9 -0.7 -0.8
v 0.9 -0.7 -0.9
v 0.9 -0.6 -0.8
v 0.9 -0.6 -0.9
v 1 -1.2 -0.9
v 1 -1.2 -1
v 1 -1 -0.9
v 1 -1 -1
v 1 -0.7 -0.9
v 1 -0.7 -1
v 1 -0.6 -0.9
v 1 -0.6 -1
v 1.1 -1.2 -1
v 1.1 -1.2 -1.1
v 1.1 -1 -1
v 1.1 -1 -1.1
v 1.1 -0.7 -1.1
v 1.1 -0.6 -1
v 1.1 -0.6 -1.1
v 1.1 0.2 -1.2
v 1.1 0.2 -1.4
v 1.1 0.3 -1.2
v 1.1 0.3 -1.4
v 1.2 -1.2 -1.1
v 1.2 -1.2 -1.6
v 1.2 -1 -1.1
v 1.2 -1 -1.4
v 1.2 -1 -1.6
v 1.2 -0.7 -1.1
v 1.2 -0.7 -1.3
v 1.2 -0.7 -1.4
v 1.2 -0.7 -1.6
v 1.2 -0.6 -1.1
v 1.2 -0.6 -1.3
v 1.2 -0.6 -1.4
v 1.2 -0.6 -1.6
v 1.2 1 -1.4
v 1.2 1 -1.6
v 1.2 1.2 -1.4
v 1.2 1.2 -1.6
v 1.2 1.6 -1.4
v 1.2 1.6 -1.6
v 1.2 1.7 -1.4
v 1.2 1.7 -1.6
v 1.2 2 -1.4
v 1.2 2 -1.6
v 1.3 -0.7 -1.3
v 1.3 -0.7 -1.6
v 1.3 -0.6 -1.3
v 1.3 -0.6 -1.6
v 1.3 1.6 -1.3
v 1.3 1.6 -1.6
v 1.3 1.7 -1.3
v 1.3 1.7 -1.6
v 0.3 -1.2 -0.8
v 0.3 -1 -0.8
v 0.3 -0.7 -0.8
v 0.3 -0.6 -0.8
v 0.4 -1 -0.8
v 0.4 -0.7 -0.8
v 0.5 -1 -0.8
v 0.5 -0.7 -0.8
v 0.7 -1 -0.8
v 0.7 -0.7 -0.8
v 0.8 -1 -0.8
v 0.8 -0.7 -0.8
v 0.9 -1.2 -0.8
v 0.9 -1 -0.8
v 0.9 -0.7 -0.8
v 0.9 -0.6 -0.8
v 0.2 -1.2 -0.9
v 0.2 -1 -0.9
v 0.2 -0.6 -0.9
v 0.3 -1.2 -0.9
v 0.3 -1 -0.9
v 0.3 -0.7 -0.9
v 0.3 -0.6 -0.9
v 0.9 -1.2 -0.9
v 0.9 -1 -0.9
v 0.9 -0.7 -0.9
v 0.9 -0.6 -0.9
v 1 -1.2 -0.9
v 1 -1 -0.9
v 1 -0.7 -0.9
v 1 -0.6 -0.9
v 0.1 -1.2 -1
v 0.1 -1 -1
v 0.1 -0.7 -1
v 0.1 -0.6 -1
v 0.2 -1.2 -1
v 0.2 -1 -1
v 0.2 -0.7 -1
v 0.2 -0.6 -1
v 1 -1.2 -1
v 1 -1 -1
v 1 -0.7 -1
v 1 -0.6 -1
v 1.1 -1.2 -1
v 1.1 -1 -1
v 1.1 -0.6 -1
v 0 -1.2 -1.1
v 0 -1 -1.1
v 0 -0.6 -1.1
v 0.1 -1.2 -1.1
v 0.1 -1 -1.1
v 0.1 -0.7 -1.1
v 0.1 -0.6 -1.1
v 1.1 -1.2 -1.1
v 1.1 -1 -1.1
v 1.1 -0.7 -1.1
v 1.1 -0.6 -1.1
v 1.2 -1.2 -1.1
v 1.2 -1 -1.1
v 1.2 -0.7 -1.1
v 1.2 -0.6 -1.1
v 0.3 0.2 -1.2
v 0.3 0.3 -1.2
v 1.1 0.2 -1.2
v 1.1 0.3 -1.2
v -1.3 -0.7 -1.3
v -1.3 -0.6 -1.3
v -1.3 1.6 -1.3
v -1.3 1.7 -1.3
v 0 -0.7 -1.3
v 0 -0.6 -1.3
v 0.1 -0.7 -1.3
v 0.1 -0.6 -1.3
v 0.5 -0.7 -1.3
v 0.5 -0.6 -1.3
v 0.9 -0.7 -1.3
v 0.9 -0.6 -1.3
v 1.1 -0.7 -1.3
v 1.1 -0.6 -1.3
v 1.2 -0.7 -1.3
v 1.2 -0.6 -1.3
v 1.3 -0.7 -1.3
v 1.3 -0.6 -1.3
v 1.3 1.6 -1.3
v 1.3 1.7 -1.3
v -1.2 -1.2 -1.4
v -1.2 -1 -1.4
v -1.2 -0.7 -1.4
v -1.2 -0.6 -1.4
v -1.2 1 -1.4
v -1.2 1.2 -1.4
v -1.2 1.6 -1.4
v -1.2 1.7 -1.4
v -1.2 2 -1.4
v -0.9 0.2 -1.4
v -0.9 0.9 -1.4
v -0.8 0.3 -1.4
v -0.8 0.8 -1.4
v -0.6 0.3 -1.4
v -0.6 0.8 -1.4
v -0.5 0.2 -1.4
v -0.5 0.9 -1.4
v -0.2 -0.1 -1.4
v -0.2 0.6 -1.4
v -0.0999999 0 -1.4
v -0.0999999 0.5 -1.4
v 0 -1.2 -1.4
v 0 -1 -1.4
v 0.1 0 -1.4
v 0.1 0.5 -1.4
v 0.2 -0.1 -1.4
v 0.2 0.6 -1.4
v 0.3 0.2 -1.4
v 0.3 0.3 -1.4
v 0.4 -0.6 -1.4
v 0.4 0.2 -1.4
v 0.5 -1 -1.4
v 0.5 -0.7 -1.4
v 0.5 -0.6 -1.4
v 0.5 0.0999999 -1.4
v 0.9 -1 -1.4
v 0.9 -0.7 -1.4
v 0.9 -0.6 -1.4
v 0.9 0.0999999 -1.4
v 1 -0.6 -1.4
v 1 0.2 -1.4
v 1.1 0.2 -1.4
v 1.1 0.3 -1.4
v 1.2 -1 -1.4
v 1.2 -0.7 -1.4
v 1.2 -0.6 -1.4
v 1.2 1 -1.4
v 1.2 1.2 -1.4
v 1.2 1.6 -1.4
v 1.2 1.7 -1.4
v 1.2 2 -1.4
v -0.8 0.3 -1.5
v -0.8 0.8 -1.5
v -0.6 0.3 -1.5
v -0.6 0.8 -1.5
v -0.0999999 0 -1.5
v -0.0999999 0.5 -1.5
v 0.1 0 -1.5
v 0.1 0.5 -1.5
v 0.5 -1 -1.5
v 0.5 -0.9 -1.5
v 0.5 -0.7 -1.5
v 0.5 -0.6 -1.5
v 0.5 0.0999999 -1.5
v 0.9 -1 -1.5
v 0.9 -0.9 -1.5
v 0.9 -0.7 -1.5
v 0.9 -0.6 -1.5
v 0.9 0.0999999 -1.5
v 0.3 -0.7 -0.9
v 0.3 -0.6 -0.9
v 0.4 -1 -0.9
v 0.4 -0.7 -0.9
v 0.5 -1 -0.9
v 0.5 -0.7 -0.9
v 0.7 -1 -0.9
v 0.7 -0.7 -0.9
v 0.8 -1 -0.9
v 0.8 -0.7 -0.9
v 0.9 -0.7 -0.9
v 0.9 -0.6 -0.9
v 0.2 -1 -1
v 0.2 -0.7 -1
v 0.2 -0.6 -1
v 0.3 -1 -1
v 0.3 -0.6 -1
v 0.9 -0.7 -1
v 0.9 -0.6 -1
v 1 -0.7 -1
v 1 -0.6 -1
v 0.1 -0.7 -1.1
v 0.1 -0.6 -1.1
v 0.2 -0.7 -1.1
v 0.2 -0.6 -1.1
v 1 -1 -1.1
v 1 -0.6 -1.1
v 1.1 -1 -1.1
v 1.1 -0.7 -1.1
v 1.1 -0.6 -1.1
v 0 -1 -1.2
v 0 -0.7 -1.2
v 0.1 -1 -1.2
v 0.1 -0.7 -1.2
v -1.3 -0.7 -1.6
v -1.3 -0.6 -1.6
v -1.3 1.6 -1.6
v -1.3 1.7 -1.6
v -1.2 -1.2 -1.6
v -1.2 -1 -1.6
v -1.2 -0.7 -1.6
v -1.2 -0.6 -1.6
v -1.2 1 -1.6
v -1.2 1.2 -1.6
v -1.2 1.6 -1.6
v -1.2 1.7 -1.6
v -1.2 2 -1.6
v -0.8 0.3 -1.6
v -0.8 0.8 -1.6
v -0.6 0.3 -1.6
v -0.6 0.8 -1.6
v -0.0999999 0 -1.6
v -0.0999999 0.5 -1.6
v 0.1 0 -1.6
v 0.1 0.5 -1.6
v 0.5 -0.9 -1.6
v 0.5 -0.7 -1.6
v 0.5 0.0999999 -1.6
v 0.9 -0.9 -1.6
v 0.9 -0.7 -1.6
v 0.9 0.0999999 -1.6
v 1.2 -1.2 -1.6
v 1.2 -1 -1.6
v 1.2 -0.7 -1.6
v 1.2 -0.6 -1.6
v 1.2 1 -1.6
v 1.2 1.2 -1.6
v 1.2 1.6 -1.6
v 1.2 1.7 -1.6
v 1.2 2 -1.6
v 1.3 -0.7 -1.6
v 1.3 -0.6 -1.6
v 1.3 1.6 -1.6
v 1.3 1.7 -1.6
v 0.3 -1.2 -0.8
v 0.9 -1.2 -0.8
v 0.2 -1.2 -0.9
v 0.3 -1.2 -0.9
v 0.9 -1.2 -0.9
v 1 -1.2 -0.9
v 0.1 -1.2 -1
v 0.2 -1.2 -1
v 1 -1.2 -1
v 1.1 -1.2 -1
v 0 -1.2 -1.1
v 0.1 -1.2 -1.1
v 1.1 -1.2 -1.1
v 1.2 -1.2 -1.1
v -1.2 -1.2 -1.4
v 0 -1.2 -1.4
v -1.2 -1.2 -1.6
v 1.2 -1.2 -1.6
v 0.3 -0.7 -0.8
v 0.4 -0.7 -0.8
v 0.5 -0.7 -0.8
v 0.7 -0.7 -0.8
v 0.8 -0.7 -0.8
v 0.9 -0.7 -0.8
v 0.3 -0.7 -0.9
v 0.4 -0.7 -0.9
v 0.5 -0.7 -0.9
v 0.7 -0.7 -0.9
v 0.8 -0.7 -0.9
v 0.9 -0.7 -0.9
v 1 -0.7 -0.9
v 0.1 -0.7 -1
v 0.2 -0.7 -1
v 0.9 -0.7 -1
v 1 -0.7 -1
v 0.1 -0.7 -1.1
v 0.2 -0.7 -1.1
v 1.1 -0.7 -1.1
v 1.2 -0.7 -1.1
v 0 -0.7 -1.2
v 0.1 -0.7 -1.2
v -1.3 -0.7 -1.3
v 0 -0.7 -1.3
v 0.1 -0.7 -1.3
v 0.5 -0.7 -1.3
v 0.9 -0.7 -1.3
v 1.1 -0.7 -1.3
v 1.2 -0.7 -1.3
v 1.3 -0.7 -1.3
v -1.2 -0.7 -1.4
v 0.5 -0.7 -1.4
v 0.9 -0.7 -1.4
v 1.2 -0.7 -1.4
v -1.3 -0.7 -1.6
v -1.2 -0.7 -1.6
v 1.2 -0.7 -1.6
v 1.3 -0.7 -1.6
v 0.5 0.0999999 -1.4
v 0.9 0.0999999 -1.4
v 0.5 0.0999999 -1.5
v 0.9 0.0999999 -1.5
v 0.3 0.2 -1.2
v 1.1 0.2 -1.2
v 0.3 0.2 -1.4
v 0.4 0.2 -1.4
v 1 0.2 -1.4
v 1.1 0.2 -1.4
v -0.0999999 0.5 -1.4
v 0.1 0.5 -1.4
v -0.0999999 0.5 -1.5
v 0.1 0.5 -1.5
v -0.8 0.8 -1.4
v -0.6 0.8 -1.4
v -0.8 0.8 -1.5
v -0.6 0.8 -1.5
v -1.3 1.6 -1.3
v 1.3 1.6 -1.3
v -1.2 1.6 -1.4
v 1.2 1.6 -1.4
v -1.3 1.6 -1.6
v -1.2 1.6 -1.6
v 1.2 1.6 -1.6
v 1.3 1.6 -1.6
v 0.3 -1 -0.8
v 0.4 -1 -0.8
v 0.5 -1 -0.8
v 0.7 -1 -0.8
v 0.8 -1 -0.8
v 0.9 -1 -0.8
v 0.3 -1 -0.9
v 0.4 -1 -0.9
v 0.5 -1 -0.9
v 0.7 -1 -0.9
v 0.8 -1 -0.9
v 0.9 -1 -0.9
v 1 -1 -0.9
v 0.1 -1 -1
v 0.2 -1 -1
v 0.3 -1 -1
v 1 -1 -1
v 0.1 -1 -1.1
v 1 -1 -1.1
v 1.1 -1 -1.1
v 1.2 -1 -1.1
v 0 -1 -1.2
v 0.1 -1 -1.2
v 0 -1 -1.4
v 0.5 -1 -1.4
v 0.9 -1 -1.4
v 1.2 -1 -1.4
v 0.5 -1 -1.5
v 0.9 -1 -1.5
v 0.3 -0.6 -0.8
v 0.9 -0.6 -0.8
v 0.2 -0.6 -0.9
v 0.3 -0.6 -0.9
v 0.9 -0.6 -0.9
v 1 -0.6 -0.9
v 0.1 -0.6 -1
v 0.2 -0.6 -1
v 0.3 -0.6 -1
v 0.9 -0.6 -1
v 1 -0.6 -1
v 1.1 -0.6 -1
v 0 -0.6 -1.1
v 0.1 -0.6 -1.1
v 0.2 -0.6 -1.1
v 1 -0.6 -1.1
v 1.1 -0.6 -1.1
v 1.2 -0.6 -1.1
v -1.3 -0.6 -1.3
v 0 -0.6 -1.3
v 0.1 -0.6 -1.3
v 0.5 -0.6 -1.3
v 0.9 -0.6 -1.3
v 1.1 -0.6 -1.3
v 1.2 -0.6 -1.3
v 1.3 -0.6 -1.3
v -1.2 -0.6 -1.4
v 0.4 -0.6 -1.4
v 0.5 -0.6 -1.4
v 0.9 -0.6 -1.4
v 1 -0.6 -1.4
v 1.2 -0.6 -1.4
v -1.3 -0.6 -1.6
v -1.2 -0.6 -1.6
v 1.2 -0.6 -1.6
v 1.3 -0.6 -1.6
v -0.0999999 0 -1.4
v 0.1 0 -1.4
v -0.0999999 0 -1.5
v 0.1 0 -1.5
v 0.3 0.3 -1.2
v 1.1 0.3 -1.2
v -0.8 0.3 -1.4
v -0.6 0.3 -1.4
v 0.3 0.3 -1.4
v 1.1 0.3 -1.4
v -0.8 0.3 -1.5
v -0.6 0.3 -1.5
v -1.3 1.7 -1.3
v 1.3 1.7 -1.3
v -1.2 1.7 -1.4
v 1.2 1.7 -1.4
v -1.3 1.7 -1.6
v -1.2 1.7 -1.6
v 1.2 1.7 -1.6
v 1.3 1.7 -1.6
v -1.2 2 -1.4
v 1.2 2 -1.4
v -1.2 2 -1.6
v 1.2 2 -1.6

# faces
f 3/5/1 2/5/1 1/5/1
f 4/5/1 2/5/1 3/5/1
f 7/5/1 6/5/1 5/5/1
f 8/5/1 6/5/1 7/5/1
f 11/8/1 10/8/1 9/8/1
f 12/8/1 10/8/1 11/8/1
f 13/2/1 12/2/1 11/2/1
f 14/2/1 12/2/1 13/2/1
f 17/4/1 16/4/1 15/4/1
f 18/4/1 16/4/1 17/4/1
f 19/1/1 18/1/1 17/1/1
f 20/1/1 18/1/1 19/1/1
f 21/6/1 20/6/1 19/6/1
f 22/6/1 20/6/1 21/6/1
f 25/8/1 24/8/1 23/8/1
f 26/8/1 24/8/1 25/8/1
f 29/6/1 28/6/1 27/6/1
f 30/6/1 28/6/1 29/6/1
f 33/8/1 32/8/1 31/8/1
f 34/8/1 32/8/1 33/8/1
f 35/8/1 32/8/1 34/8/1
f 36/3/1 34/3/1 33/3/1
f 38/3/1 36/3/1 33/3/1
f 38/3/1 37/3/1 36/3/1
f 39/3/1 37/3/1 38/3/1
f 42/8/1 41/8/1 40/8/1
f 43/8/1 41/8/1 42/8/1
f 46/3/1 45/3/1 44/3/1
f 47/3/1 45/3/1 46/3/1
f 50/6/1 49/6/1 48/6/1
f 51/6/1 49/6/1 50/6/1
f 54/8/1 53/8/1 52/8/1
f 55/8/1 53/8/1 54/8/1
f 56/3/1 55/3/1 54/3/1
f 57/3/1 56/3/1 54/3/1
f 58/3/1 56/3/1 57/3/1
f 61/8/1 60/8/1 59/8/1
f 62/8/1 60/8/1 61/8/1
f 65/3/1 64/3/1 63/3/1
f 66/3/1 64/3/1 65/3/1
f 69/3/1 68/3/1 67/3/1
f 70/3/1 68/3/1 69/3/1
f 73/3/1 72/3/1 71/3/1
f 74/3/1 72/3/1 73/3/1
f 77/3/1 76/3/1 75/3/1
f 78/3/1 76/3/1 77/3/1
f 81/2/1 80/2/1 79/2/1
f 85/2/1 81/2/1 79/2/1
f 86/2/1 81/2/1 85/2/1
f 87/3/1 83/3/1 82/3/1
f 88/3/1 83/3/1 87/3/1
f 89/5/1 85/5/1 84/5/1
f 89/5/1 86/5/1 85/5/1
f 90/5/1 86/5/1 89/5/1
f 91/5/1 86/5/1 90/5/1
f 92/3/1 91/3/1 90/3/1
f 93/3/1 91/3/1 92/3/1
f 96/3/1 95/3/1 94/3/1
f 97/3/1 95/3/1 96/3/1
f 98/3/1 95/3/1 97/3/1
f 101/3/1 100/3/1 99/3/1
f 102/3/1 100/3/1 101/3/1
f 103/6/2 104/6/2 105/6/2
f 105/6/2 104/6/2 106/6/2
f 107/6/2 108/6/2 109/6/2
f 109/6/2 108/6/2 110/6/2
f 111/3/2 112/3/2 113/3/2
f 113/3/2 112/3/2 114/3/2
f 113/3/2 114/3/2 116/3/2
f 114/3/2 115/3/2 116/3/2
f 116/3/2 115/3/2 117/3/2
f 118/3/2 119/3/2 120/3/2
f 120/3/2 119/3/2 121/3/2
f 122/3/2 123/3/2 124/3/2
f 124/3/2 123/3/2 125/3/2
f 125/3/2 123/3/2 126/3/2
f 129/2/2 130/2/2 131/2/2
f 127/3/2 128/3/2 132/3/2
f 132/3/2 128/3/2 133/3/2
f 129/2/2 131/2/2 135/2/2
f 135/2/2 131/2/2 136/2/2
f 134/5/2 135/5/2 137/5/2
f 135/5/2 136/5/2 137/5/2
f 137/5/2 136/5/2 138/5/2
f 138/5/2 136/5/2 139/5/2
f 138/3/2 139/3/2 140/3/2
f 140/3/2 139/3/2 141/3/2
f 142/3/2 143/3/2 144/3/2
f 144/3/2 143/3/2 145/3/2
f 146/8/2 147/8/2 148/8/2
f 148/8/2 147/8/2 149/8/2
f 150/3/2 151/3/2 152/3/2
f 152/3/2 151/3/2 153/3/2
f 154/8/2 155/8/2 156/8/2
f 156/8/2 155/8/2 157/8/2
f 158/3/2 159/3/2 160/3/2
f 160/3/2 159/3/2 161/3/2
f 162/8/2 163/8/2 164/8/2
f 164/8/2 163/8/2 165/8/2
f 164/3/2 165/3/2 166/3/2
f 164/3/2 166/3/2 167/3/2
f 167/3/2 166/3/2 168/3/2
f 169/3/2 170/3/2 171/3/2
f 171/3/2 170/3/2 172/3/2
f 173/8/2 174/8/2 175/8/2
f 175/8/2 174/8/2 176/8/2
f 176/8/2 174/8/2 177/8/2
f 176/2/2 177/2/2 180/2/2
f 180/2/2 177/2/2 181/2/2
f 178/3/2 179/3/2 182/3/2
f 182/3/2 179/3/2 183/3/2
f 184/4/2 185/4/2 186/4/2
f 186/4/2 185/4/2 187/4/2
f 186/1/2 187/1/2 188/1/2
f 188/1/2 187/1/2 189/1/2
f 188/6/2 189/6/2 190/6/2
f 190/6/2 189/6/2 191/6/2
f 192/8/2 193/8/2 194/8/2
f 194/8/2 193/8/2 195/8/2
f 196/5/2 197/5/2 198/5/2
f 198/5/2 197/5/2 199/5/2
f 200/5/2 201/5/2 202/5/2
f 202/5/2 201/5/2 203/5/2
f 208/8/3 205/8/3 204/8/3
f 209/3/3 207/3/3 206/3/3
f 210/8/3 208/8/3 204/8/3
f 210/3/3 209/3/3 208/3/3
f 211/3/3 207/3/3 209/3/3
f 211/3/3 209/3/3 210/3/3
f 212/8/3 210/8/3 204/8/3
f 213/3/3 207/3/3 211/3/3
f 214/8/3 212/8/3 204/8/3
f 214/3/3 213/3/3 212/3/3
f 215/3/3 207/3/3 213/3/3
f 215/3/3 213/3/3 214/3/3
f 216/8/3 214/8/3 204/8/3
f 217/8/3 214/8/3 216/8/3
f 218/3/3 207/3/3 215/3/3
f 219/3/3 207/3/3 218/3/3
f 223/8/3 221/8/3 220/8/3
f 224/3/3 222/3/3 221/3/3
f 224/8/3 221/8/3 223/8/3
f 225/3/3 222/3/3 224/3/3
f 226/3/3 222/3/3 225/3/3
f 231/8/3 228/8/3 227/8/3
f 232/8/3 228/8/3 231/8/3
f 233/3/3 230/3/3 229/3/3
f 234/3/3 230/3/3 233/3/3
f 239/8/3 236/8/3 235/8/3
f 240/8/3 236/8/3 239/8/3
f 241/3/3 238/3/3 237/3/3
f 242/3/3 238/3/3 241/3/3
f 247/8/3 244/8/3 243/8/3
f 248/3/3 246/3/3 245/3/3
f 248/8/3 244/8/3 247/8/3
f 248/3/3 245/3/3 244/3/3
f 249/3/3 246/3/3 248/3/3
f 253/8/3 251/8/3 250/8/3
f 254/3/3 252/3/3 251/3/3
f 254/8/3 251/8/3 253/8/3
f 255/3/3 252/3/3 254/3/3
f 256/3/3 252/3/3 255/3/3
f 261/8/3 258/8/3 257/8/3
f 262/8/3 258/8/3 261/8/3
f 263/3/3 260/3/3 259/3/3
f 264/3/3 260/3/3 263/3/3
f 267/3/3 266/3/3 265/3/3
f 268/3/3 266/3/3 267/3/3
f 273/5/3 270/5/3 269/5/3
f 274/5/3 270/5/3 273/5/3
f 277/5/3 276/5/3 275/5/3
f 278/5/3 276/5/3 277/5/3
f 281/5/3 280/5/3 279/5/3
f 282/5/3 280/5/3 281/5/3
f 285/5/3 284/5/3 283/5/3
f 286/5/3 284/5/3 285/5/3
f 287/5/3 272/5/3 271/5/3
f 288/5/3 272/5/3 287/5/3
f 298/4/3 293/4/3 292/4/3
f 299/4/3 293/4/3 298/4/3
f 300/6/3 299/6/3 298/6/3
f 301/6/3 299/6/3 300/6/3
f 302/6/3 300/6/3 298/6/3
f 303/6/3 299/6/3 301/6/3
f 304/4/3 298/4/3 292/4/3
f 304/6/3 303/6/3 302/6/3
f 304/6/3 302/6/3 298/6/3
f 305/6/3 299/6/3 303/6/3
f 305/6/3 303/6/3 304/6/3
f 305/4/3 293/4/3 299/4/3
f 306/4/3 304/4/3 292/4/3
f 306/4/3 305/4/3 304/4/3
f 307/4/3 305/4/3 306/4/3
f 308/6/3 307/6/3 306/6/3
f 309/6/3 307/6/3 308/6/3
f 310/8/3 290/8/3 289/8/3
f 311/2/3 291/2/3 290/2/3
f 311/8/3 290/8/3 310/8/3
f 312/6/3 308/6/3 306/6/3
f 313/6/3 307/6/3 309/6/3
f 314/6/3 312/6/3 306/6/3
f 314/6/3 313/6/3 312/6/3
f 314/4/3 306/4/3 292/4/3
f 315/6/3 307/6/3 313/6/3
f 315/6/3 313/6/3 314/6/3
f 315/4/3 305/4/3 307/4/3
f 316/4/3 315/4/3 314/4/3
f 317/4/3 315/4/3 316/4/3
f 318/4/3 314/4/3 292/4/3
f 318/4/3 316/4/3 314/4/3
f 319/4/3 316/4/3 318/4/3
f 320/2/3 291/2/3 311/2/3
f 321/2/3 291/2/3 320/2/3
f 322/3/3 319/3/3 318/3/3
f 323/3/3 319/3/3 322/3/3
f 327/3/3 319/3/3 323/3/3
f 328/3/3 327/3/3 326/3/3
f 329/3/3 319/3/3 327/3/3
f 329/3/3 327/3/3 328/3/3
f 330/4/3 329/4/3 328/4/3
f 331/4/3 315/4/3 317/4/3
f 332/2/3 325/2/3 324/2/3
f 333/2/3 325/2/3 332/2/3
f 334/4/3 330/4/3 328/4/3
f 334/4/3 331/4/3 330/4/3
f 335/1/3 294/1/3 293/1/3
f 335/4/3 331/4/3 334/4/3
f 335/4/3 293/4/3 305/4/3
f 335/4/3 315/4/3 331/4/3
f 335/4/3 305/4/3 315/4/3
f 336/6/3 295/6/3 294/6/3
f 336/1/3 294/1/3 335/1/3
f 337/6/3 295/6/3 336/6/3
f 338/8/3 297/8/3 296/8/3
f 339/8/3 297/8/3 338/8/3
f 342/7/3 341/7/3 340/7/3
f 343/7/3 341/7/3 342/7/3
f 346/7/3 345/7/3 344/7/3
f 347/7/3 345/7/3 346/7/3
f 353/2/3 349/2/3 348/2/3
f 354/9/3 352/9/3 351/9/3
f 354/2/3 349/2/3 353/2/3
f 354/9/3 350/9/3 349/9/3
f 354/9/3 351/9/3 350/9/3
f 355/9/3 352/9/3 354/9/3
f 356/9/3 352/9/3 355/9/3
f 357/9/3 352/9/3 356/9/3
f 358/3/4 359/3/4 361/3/4
f 360/3/4 361/3/4 362/3/4
f 361/3/4 359/3/4 363/3/4
f 362/3/4 361/3/4 363/3/4
f 363/3/4 359/3/4 365/3/4
f 364/3/4 365/3/4 366/3/4
f 365/3/4 359/3/4 367/3/4
f 366/3/4 365/3/4 367/3/4
f 367/3/4 359/3/4 368/3/4
f 368/3/4 359/3/4 369/3/4
f 370/3/4 371/3/4 373/3/4
f 371/3/4 372/3/4 373/3/4
f 373/3/4 372/3/4 374/3/4
f 375/3/4 376/3/4 377/3/4
f 377/3/4 376/3/4 378/3/4
f 379/3/4 380/3/4 381/3/4
f 381/3/4 380/3/4 382/3/4
f 383/3/4 384/3/4 385/3/4
f 385/3/4 384/3/4 386/3/4
f 386/3/4 384/3/4 387/3/4
f 388/3/4 389/3/4 390/3/4
f 390/3/4 389/3/4 391/3/4
f 392/5/4 393/5/4 398/5/4
f 398/5/4 393/5/4 399/5/4
f 394/5/4 395/5/4 402/5/4
f 402/5/4 395/5/4 403/5/4
f 398/4/4 399/4/4 405/4/4
f 399/4/4 400/4/4 405/4/4
f 405/4/4 400/4/4 406/4/4
f 398/4/4 405/4/4 407/4/4
f 405/7/4 406/7/4 407/7/4
f 406/4/4 400/4/4 408/4/4
f 407/7/4 406/7/4 408/7/4
f 398/4/4 407/4/4 409/4/4
f 407/4/4 408/4/4 409/4/4
f 409/4/4 408/4/4 410/4/4
f 398/4/4 409/4/4 411/4/4
f 409/7/4 410/7/4 411/7/4
f 410/4/4 408/4/4 412/4/4
f 411/7/4 410/7/4 412/7/4
f 397/2/4 398/2/4 413/2/4
f 398/4/4 411/4/4 414/4/4
f 413/2/4 398/2/4 414/2/4
f 411/4/4 412/4/4 414/4/4
f 414/4/4 412/4/4 415/4/4
f 397/2/4 413/2/4 416/2/4
f 413/9/4 414/9/4 416/9/4
f 414/9/4 415/9/4 416/9/4
f 416/9/4 415/9/4 417/9/4
f 415/4/4 412/4/4 418/4/4
f 417/9/4 415/9/4 418/9/4
f 396/8/4 397/8/4 419/8/4
f 416/2/4 417/2/4 420/2/4
f 419/8/4 397/8/4 420/8/4
f 397/2/4 416/2/4 420/2/4
f 417/4/4 418/4/4 421/4/4
f 420/2/4 417/2/4 421/2/4
f 421/4/4 418/4/4 422/4/4
f 418/4/4 412/4/4 423/4/4
f 422/4/4 418/4/4 423/4/4
f 400/1/4 401/1/4 423/1/4
f 412/4/4 408/4/4 423/4/4
f 408/4/4 400/4/4 423/4/4
f 401/6/4 402/6/4 424/6/4
f 423/1/4 401/1/4 424/1/4
f 402/5/4 403/5/4 425/5/4
f 424/6/4 402/6/4 425/6/4
f 403/8/4 404/8/4 426/8/4
f 425/5/4 403/5/4 426/5/4
f 426/8/4 404/8/4 427/8/4
f 421/5/4 422/5/4 428/5/4
f 428/5/4 422/5/4 429/5/4
f 425/5/4 426/5/4 430/5/4
f 430/5/4 426/5/4 431/5/4
f 435/8/5 433/8/5 432/8/5
f 436/8/5 433/8/5 435/8/5
f 439/8/5 435/8/5 434/8/5
f 439/8/5 437/8/5 436/8/5
f 439/8/5 436/8/5 435/8/5
f 440/8/5 437/8/5 439/8/5
f 443/8/5 439/8/5 438/8/5
f 443/8/5 441/8/5 440/8/5
f 443/8/5 440/8/5 439/8/5
f 444/8/5 441/8/5 443/8/5
f 447/8/5 443/8/5 442/8/5
f 447/8/5 445/8/5 444/8/5
f 447/8/5 444/8/5 443/8/5
f 448/8/5 447/8/5 446/8/5
f 449/8/5 445/8/5 447/8/5
f 449/8/5 447/8/5 448/8/5
f 456/3/5 451/3/5 450/3/5
f 457/3/5 451/3/5 456/3/5
f 458/3/5 453/3/5 452/3/5
f 459/3/5 453/3/5 458/3/5
f 460/3/5 455/3/5 454/3/5
f 461/3/5 455/3/5 460/3/5
f 465/3/5 462/3/5 461/3/5
f 466/3/5 462/3/5 465/3/5
f 467/3/5 464/3/5 463/3/5
f 468/3/5 464/3/5 467/3/5
f 474/3/5 472/3/5 471/3/5
f 475/3/5 472/3/5 474/3/5
f 478/3/5 470/3/5 469/3/5
f 479/3/5 470/3/5 478/3/5
f 481/5/5 476/5/5 475/5/5
f 481/5/5 474/5/5 473/5/5
f 481/5/5 475/5/5 474/5/5
f 482/5/5 476/5/5 481/5/5
f 483/5/5 480/5/5 479/5/5
f 483/5/5 479/5/5 478/5/5
f 483/5/5 478/5/5 477/5/5
f 484/5/5 480/5/5 483/5/5
f 485/5/5 481/5/5 473/5/5
f 486/5/5 481/5/5 485/5/5
f 487/5/5 480/5/5 484/5/5
f 488/5/5 480/5/5 487/5/5
f 491/3/5 490/3/5 489/3/5
f 492/3/5 490/3/5 491/3/5
f 495/3/5 494/3/5 493/3/5
f 496/3/5 494/3/5 495/3/5
f 497/3/5 494/3/5 496/3/5
f 498/3/5 494/3/5 497/3/5
f 501/6/5 500/6/5 499/6/5
f 502/6/5 500/6/5 501/6/5
f 505/6/5 504/6/5 503/6/5
f 506/6/5 504/6/5 505/6/5
f 509/5/5 508/5/5 507/5/5
f 510/5/5 508/5/5 509/5/5
f 511/5/5 509/5/5 507/5/5
f 512/5/5 509/5/5 511/5/5
f 513/5/5 508/5/5 510/5/5
f 514/5/5 508/5/5 513/5/5
f 515/8/6 516/8/6 521/8/6
f 521/8/6 516/8/6 522/8/6
f 517/8/6 518/8/6 523/8/6
f 523/8/6 518/8/6 524/8/6
f 519/8/6 520/8/6 525/8/6
f 525/8/6 520/8/6 526/8/6
f 523/8/6 524/8/6 530/8/6
f 521/8/6 522/8/6 530/8/6
f 526/8/6 527/8/6 530/8/6
f 525/8/6 526/8/6 530/8/6
f 524/8/6 525/8/6 530/8/6
f 522/8/6 523/8/6 530/8/6
f 530/8/6 527/8/6 531/8/6
f 528/8/6 529/8/6 532/8/6
f 529/8/6 530/8/6 532/8/6
f 530/8/6 531/8/6 532/8/6
f 532/8/6 531/8/6 533/8/6
f 532/8/6 533/8/6 537/8/6
f 534/8/6 535/8/6 537/8/6
f 533/8/6 534/8/6 537/8/6
f 536/8/6 537/8/6 538/8/6
f 537/8/6 535/8/6 539/8/6
f 538/8/6 537/8/6 539/8/6
f 539/8/6 535/8/6 540/8/6
f 540/8/6 535/8/6 541/8/6
f 539/8/6 540/8/6 542/8/6
f 542/8/6 540/8/6 543/8/6
f 544/3/6 545/3/6 547/3/6
f 547/3/6 545/3/6 548/3/6
f 546/3/6 547/3/6 551/3/6
f 551/3/6 547/3/6 552/3/6
f 548/3/6 549/3/6 553/3/6
f 553/3/6 549/3/6 554/3/6
f 550/3/6 551/3/6 557/3/6
f 557/3/6 551/3/6 558/3/6
f 554/3/6 555/3/6 559/3/6
f 559/3/6 555/3/6 560/3/6
f 556/3/6 557/3/6 563/3/6
f 563/3/6 557/3/6 564/3/6
f 560/3/6 561/3/6 567/3/6
f 567/3/6 561/3/6 568/3/6
f 564/5/6 565/5/6 570/5/6
f 562/5/6 563/5/6 570/5/6
f 563/5/6 564/5/6 570/5/6
f 570/5/6 565/5/6 571/5/6
f 571/5/6 565/5/6 572/5/6
f 568/5/6 569/5/6 573/5/6
f 567/5/6 568/5/6 573/5/6
f 566/5/6 567/5/6 573/5/6
f 573/5/6 569/5/6 574/5/6
f 574/5/6 569/5/6 575/5/6
f 562/5/6 570/5/6 576/5/6
f 576/5/6 570/5/6 577/5/6
f 575/5/6 569/5/6 578/5/6
f 578/5/6 569/5/6 579/5/6
f 580/6/6 581/6/6 582/6/6
f 582/6/6 581/6/6 583/6/6
f 584/3/6 585/3/6 588/3/6
f 588/3/6 585/3/6 589/3/6
f 586/6/6 587/6/6 590/6/6
f 590/6/6 587/6/6 591/6/6
f 592/5/6 593/5/6 594/5/6
f 594/5/6 593/5/6 595/5/6
f 592/5/6 594/5/6 596/5/6
f 596/5/6 594/5/6 597/5/6
f 595/5/6 593/5/6 598/5/6
f 598/5/6 593/5/6 599/5/6
f 600/8/6 601/8/6 602/8/6
f 602/8/6 601/8/6 603/8/6
