<?xml version="1.0" encoding="UTF-8" standalone="no"?>
<svg
   xmlns:dc="http://purl.org/dc/elements/1.1/"
   xmlns:cc="http://creativecommons.org/ns#"
   xmlns:rdf="http://www.w3.org/1999/02/22-rdf-syntax-ns#"
   xmlns:svg="http://www.w3.org/2000/svg"
   xmlns="http://www.w3.org/2000/svg"
   viewBox="0 0 466.92804 346.72253"
   height="346.72253"
   width="466.92804"
   xml:space="preserve"
   id="svg2"
   version="1.1"><metadata
     id="metadata8"><rdf:RDF><cc:Work
         rdf:about=""><dc:format>image/svg+xml</dc:format><dc:type
           rdf:resource="http://purl.org/dc/dcmitype/StillImage" /><dc:title></dc:title></cc:Work></rdf:RDF></metadata><defs
     id="defs6"><clipPath
       id="clipPath20"
       clipPathUnits="userSpaceOnUse"><path
         id="path18"
         d="M 18,40 H 594 V 773 H 18 Z" /></clipPath><clipPath
       id="clipPath32"
       clipPathUnits="userSpaceOnUse"><path
         id="path30"
         d="M 18,456.8 H 425.2 V 773 H 18 Z" /></clipPath></defs><g
     transform="matrix(1.3333333,0,0,-1.3333333,-61.795416,993.67138)"
     id="g10"><g
       id="g12" /><g
       id="g26"><g
         clip-path="url(#clipPath32)"
         id="g28"><path
           id="path34"
           style="fill:#fce94f;fill-opacity:1;fill-rule:nonzero;stroke:none"
           d="m 381.197,510.1036 c 0,-5.2722 -4.274,-9.5463 -9.5463,-9.5463 -5.2723,0 -9.5463,4.2741 -9.5463,9.5463 0,5.2723 4.274,9.5464 9.5463,9.5464 5.2723,0 9.5463,-4.2741 9.5463,-9.5464 z" /><g
           transform="matrix(2.03655,0,0,-2.03655,-138.3961,1057.009)"
           id="g36"><path
             id="path38"
             style="fill:none;stroke:#000000;stroke-width:0.68405509;stroke-linecap:butt;stroke-linejoin:round;stroke-miterlimit:10;stroke-dasharray:none;stroke-opacity:1"
             d="m 255.1339,268.545 c 0,2.5889 -2.0986,4.6875 -4.6875,4.6875 -2.5888,0 -4.6875,-2.0986 -4.6875,-4.6875 0,-2.5888 2.0987,-4.6875 4.6875,-4.6875 2.5889,0 4.6875,2.0987 4.6875,4.6875 z" /></g><path
           id="path40"
           style="fill:#fce94f;fill-opacity:1;fill-rule:nonzero;stroke:none"
           d="m 358.6126,507.0008 v 6.2056 l -11.1573,-3.1028 z" /><g
           transform="matrix(1.965837,0,0,-1.965837,-121.5776,1038.183)"
           id="g42"><path
             id="path44"
             style="fill:none;stroke:#000000;stroke-width:0.70866138;stroke-linecap:butt;stroke-linejoin:round;stroke-miterlimit:10;stroke-dasharray:none;stroke-opacity:1"
             d="M 244.2675,270.2067 V 267.05 l -5.6755,1.5784 z" /></g><path
           id="path46"
           style="fill:#fce94f;fill-opacity:1;fill-rule:nonzero;stroke:none"
           d="m 384.689,507.0008 v 6.2056 l 11.1572,-3.1028 z" /><g
           transform="matrix(1.965837,0,0,-1.965837,-121.5776,1038.183)"
           id="g48"><path
             id="path50"
             style="fill:none;stroke:#000000;stroke-width:0.70866138;stroke-linecap:butt;stroke-linejoin:round;stroke-miterlimit:10;stroke-dasharray:none;stroke-opacity:1"
             d="M 257.5323,270.2067 V 267.05 l 5.6756,1.5784 z" /></g><path
           id="path52"
           style="fill:#fce94f;fill-opacity:1;fill-rule:nonzero;stroke:none"
           d="m 374.7535,497.0654 h -6.2056 l 3.1028,-11.1572 z" /><g
           transform="matrix(1.965837,0,0,-1.965837,-121.5776,1038.183)"
           id="g54"><path
             id="path56"
             style="fill:none;stroke:#000000;stroke-width:0.70866138;stroke-linecap:butt;stroke-linejoin:round;stroke-miterlimit:10;stroke-dasharray:none;stroke-opacity:1"
             d="m 252.4783,275.2607 h -3.1567 l 1.5783,5.6756 z" /></g><path
           id="path58"
           style="fill:#fce94f;fill-opacity:1;fill-rule:nonzero;stroke:none"
           d="m 374.7535,523.1418 h -6.2056 l 3.1028,11.1572 z" /><g
           transform="matrix(1.965837,0,0,-1.965837,-121.5776,1038.183)"
           id="g60"><path
             id="path62"
             style="fill:none;stroke:#000000;stroke-width:0.70866138;stroke-linecap:butt;stroke-linejoin:round;stroke-miterlimit:10;stroke-dasharray:none;stroke-opacity:1"
             d="m 252.4783,261.996 h -3.1567 l 1.5783,-5.6756 z" /></g><path
           id="path64"
           style="fill:#fce94f;fill-opacity:1;fill-rule:nonzero;stroke:none"
           d="m 364.6254,498.6902 -4.388,4.388 -5.6955,-10.0833 z" /><g
           transform="matrix(1.965837,0,0,-1.965837,-121.5776,1038.183)"
           id="g66"><path
             id="path68"
             style="fill:none;stroke:#000000;stroke-width:0.70866138;stroke-linecap:butt;stroke-linejoin:round;stroke-miterlimit:10;stroke-dasharray:none;stroke-opacity:1"
             d="m 247.3262,274.4342 -2.2322,-2.2321 -2.8971,5.1293 z" /></g><path
           id="path70"
           style="fill:#fce94f;fill-opacity:1;fill-rule:nonzero;stroke:none"
           d="m 383.0642,517.129 -4.388,4.388 10.0833,5.6953 z" /><g
           transform="matrix(1.965837,0,0,-1.965837,-121.5776,1038.183)"
           id="g72"><path
             id="path74"
             style="fill:none;stroke:#000000;stroke-width:0.70866138;stroke-linecap:butt;stroke-linejoin:round;stroke-miterlimit:10;stroke-dasharray:none;stroke-opacity:1"
             d="m 256.7058,265.0546 -2.2321,-2.2321 5.1293,-2.8972 z" /></g><path
           id="path76"
           style="fill:#fce94f;fill-opacity:1;fill-rule:nonzero;stroke:none"
           d="m 383.0642,503.0782 -4.388,-4.388 10.0833,-5.6953 z" /><g
           transform="matrix(1.965837,0,0,-1.965837,-121.5776,1038.183)"
           id="g78"><path
             id="path80"
             style="fill:none;stroke:#000000;stroke-width:0.70866138;stroke-linecap:butt;stroke-linejoin:round;stroke-miterlimit:10;stroke-dasharray:none;stroke-opacity:1"
             d="m 256.7058,272.2021 -2.2321,2.2321 5.1293,2.8972 z" /></g><path
           id="path82"
           style="fill:#fce94f;fill-opacity:1;fill-rule:nonzero;stroke:none"
           d="m 364.6254,521.517 -4.3881,-4.388 -5.6954,10.0833 z" /><g
           transform="matrix(1.965837,0,0,-1.965837,-121.5776,1038.183)"
           id="g84"><path
             id="path86"
             style="fill:none;stroke:#000000;stroke-width:0.70866138;stroke-linecap:butt;stroke-linejoin:round;stroke-miterlimit:10;stroke-dasharray:none;stroke-opacity:1"
             d="m 247.3262,262.8225 -2.2322,2.2321 -2.8971,-5.1293 z" /></g><path
           id="path88"
           style="fill:#babdb6;fill-opacity:1;fill-rule:nonzero;stroke:none"
           d="m 324.9206,702.7636 c 0,-23.0818 -18.7116,-41.7934 -41.7934,-41.7934 -23.0819,0 -41.7934,18.7116 -41.7934,41.7934 0,23.0819 18.7115,41.7934 41.7934,41.7934 23.0818,0 41.7934,-18.7115 41.7934,-41.7934 z" /><g
           transform="matrix(0.8,0,0,-0.8,-70.5464,627.6286)"
           id="g90"><path
             id="path92"
             style="fill:none;stroke:#000000;stroke-width:1.74139094;stroke-linecap:butt;stroke-linejoin:round;stroke-miterlimit:10;stroke-dasharray:none;stroke-opacity:1"
             d="m 494.3337,-93.91881 c 0,28.85231 -23.3894,52.24172 -52.2418,52.24172 -28.8523,0 -52.2417,-23.38941 -52.2417,-52.24172 0,-28.85229 23.3894,-52.24169 52.2417,-52.24169 28.8524,0 52.2418,23.3894 52.2418,52.24169 z" /></g><g
           transform="matrix(1.965837,0,0,-1.965837,-99.11088,1020.631)"
           id="g94"><path
             id="path96"
             style="fill:none;stroke:#000000;stroke-width:1;stroke-linecap:round;stroke-linejoin:round;stroke-miterlimit:10;stroke-dasharray:none;stroke-opacity:1"
             d="m 88.00954,208.0772 -13.51696,-3.6219 9.90361,-9.9036" /></g><g
           transform="matrix(1.965837,0,0,-1.965837,-99.11088,1020.631)"
           id="g98"><path
             id="path100"
             style="fill:none;stroke:#000000;stroke-width:1;stroke-linecap:butt;stroke-linejoin:miter;stroke-miterlimit:4;stroke-dasharray:none;stroke-opacity:1"
             d="m 84.33036,207.1165 c 2.36607,-6.1607 -2.32143,-10.1786 -2.32143,-10.1786" /></g><path
           id="path102"
           style="fill:#555753;fill-opacity:1;fill-rule:nonzero;stroke:none"
           d="m 66.25698,624.2005 c 0.49152,-2.0005 -0.0258,-3.8471 -1.15545,-4.1247 -1.12965,-0.2776 -2.44387,1.1191 -2.93538,3.1195 -0.49152,2.0005 0.02579,3.8471 1.15545,4.1247 1.12966,0.2775 2.44387,-1.1191 2.93538,-3.1195 z" /><g
           transform="matrix(1.909056,0.4690637,0.4690637,-1.909056,-188.6548,970.9392)"
           id="g104"><path
             id="path106"
             style="fill:none;stroke:#000000;stroke-width:0.70866138;stroke-linecap:butt;stroke-linejoin:round;stroke-miterlimit:10;stroke-dasharray:none;stroke-opacity:1"
             d="m 83.83929,202.2281 c 0,1.0478 -0.47969,1.8973 -1.07143,1.8973 -0.59173,0 -1.07143,-0.8495 -1.07143,-1.8973 0,-1.0479 0.4797,-1.8973 1.07143,-1.8973 0.59174,0 1.07143,0.8494 1.07143,1.8973 z" /></g><path
           id="path108"
           style="fill:#babdb6;fill-opacity:1;fill-rule:nonzero;stroke:none"
           d="m 143.0244,650.6339 12.6223,-11.8354 v -16.6907 l -12.6223,11.8355 z" /><g
           transform="matrix(0.5835835,-0.5472022,0,-0.8,-70.5464,627.6286)"
           id="g110"><path
             id="path112"
             style="fill:none;stroke:#000000;stroke-width:2.20296693;stroke-linecap:butt;stroke-linejoin:miter;stroke-miterlimit:4;stroke-dasharray:none;stroke-opacity:1"
             d="m 365.9644,-279.0774 h 21.6289 v 20.8633 h -21.6289 z" /></g><path
           id="path114"
           style="fill:#555753;fill-opacity:1;fill-rule:nonzero;stroke:none"
           d="m 130.4684,611.9174 v 67.409" /><g
           transform="matrix(0.8,0,0,-0.8,-70.5464,627.6286)"
           id="g116"><path
             id="path118"
             style="fill:none;stroke:#000000;stroke-width:1.66672206;stroke-linecap:round;stroke-linejoin:round;stroke-miterlimit:10;stroke-dasharray:none;stroke-opacity:1"
             d="M 251.2684,19.63898 V -64.62226" /></g><path
           id="path120"
           style="fill:#555753;fill-opacity:1;fill-rule:nonzero;stroke:none"
           d="M 180.9766,564.5579 V 631.967" /><g
           transform="matrix(0.8,0,0,-0.8,-70.5464,627.6286)"
           id="g122"><path
             id="path124"
             style="fill:none;stroke:#000000;stroke-width:1.66672206;stroke-linecap:round;stroke-linejoin:round;stroke-miterlimit:10;stroke-dasharray:none;stroke-opacity:1"
             d="M 314.4037,78.83827 V -5.422966" /></g><path
           id="path126"
           style="fill:#555753;fill-opacity:1;fill-rule:nonzero;stroke:none"
           d="m 143.0954,600.0775 v 67.409" /><g
           transform="matrix(0.8,0,0,-0.8,-70.5464,627.6286)"
           id="g128"><path
             id="path130"
             style="fill:none;stroke:#000000;stroke-width:1.66672206;stroke-linecap:round;stroke-linejoin:round;stroke-miterlimit:10;stroke-dasharray:none;stroke-opacity:1"
             d="M 267.0522,34.4388 V -49.82244" /></g><path
           id="path132"
           style="fill:#555753;fill-opacity:1;fill-rule:nonzero;stroke:none"
           d="m 155.7225,588.2377 v 67.4089" /><g
           transform="matrix(0.8,0,0,-0.8,-70.5464,627.6286)"
           id="g134"><path
             id="path136"
             style="fill:none;stroke:#000000;stroke-width:1.66672206;stroke-linecap:round;stroke-linejoin:round;stroke-miterlimit:10;stroke-dasharray:none;stroke-opacity:1"
             d="M 282.8361,49.23864 V -35.0226" /></g><path
           id="path138"
           style="fill:#555753;fill-opacity:1;fill-rule:nonzero;stroke:none"
           d="m 168.3495,576.3978 v 67.409" /><g
           transform="matrix(0.8,0,0,-0.8,-70.5464,627.6286)"
           id="g140"><path
             id="path142"
             style="fill:none;stroke:#000000;stroke-width:1.66672206;stroke-linecap:round;stroke-linejoin:round;stroke-miterlimit:10;stroke-dasharray:none;stroke-opacity:1"
             d="M 298.6199,64.03846 V -20.22278" /></g><path
           id="path144"
           style="fill:#555753;fill-opacity:1;fill-rule:nonzero;stroke:none"
           d="m 180.9766,564.5579 -50.5082,47.3595" /><g
           transform="matrix(0.8,0,0,-0.8,-70.5464,627.6286)"
           id="g146"><path
             id="path148"
             style="fill:none;stroke:#000000;stroke-width:1.66672206;stroke-linecap:round;stroke-linejoin:round;stroke-miterlimit:10;stroke-dasharray:none;stroke-opacity:1"
             d="M 314.4037,78.83827 251.2684,19.63898" /></g><path
           id="path150"
           style="fill:#555753;fill-opacity:1;fill-rule:nonzero;stroke:none"
           d="m 180.9766,631.967 -50.5082,47.3594" /><g
           transform="matrix(0.8,0,0,-0.8,-70.5464,627.6286)"
           id="g152"><path
             id="path154"
             style="fill:none;stroke:#000000;stroke-width:1.66672206;stroke-linecap:round;stroke-linejoin:round;stroke-miterlimit:10;stroke-dasharray:none;stroke-opacity:1"
             d="M 314.4037,-5.422967 251.2684,-64.62226" /></g><path
           id="path156"
           style="fill:#555753;fill-opacity:1;fill-rule:nonzero;stroke:none"
           d="m 180.9766,581.4102 -50.5082,47.3594" /><g
           transform="matrix(0.8,0,0,-0.8,-70.5464,627.6286)"
           id="g158"><path
             id="path160"
             style="fill:none;stroke:#000000;stroke-width:1.66672206;stroke-linecap:round;stroke-linejoin:round;stroke-miterlimit:10;stroke-dasharray:none;stroke-opacity:1"
             d="M 314.4037,57.77296 251.2684,-1.426335" /></g><path
           id="path162"
           style="fill:#555753;fill-opacity:1;fill-rule:nonzero;stroke:none"
           d="m 180.9766,598.2625 -50.5082,47.3594" /><g
           transform="matrix(0.8,0,0,-0.8,-70.5464,627.6286)"
           id="g164"><path
             id="path166"
             style="fill:none;stroke:#000000;stroke-width:1.66672206;stroke-linecap:round;stroke-linejoin:round;stroke-miterlimit:10;stroke-dasharray:none;stroke-opacity:1"
             d="m 314.4037,36.70763 -63.1353,-59.1993" /></g><path
           id="path168"
           style="fill:#555753;fill-opacity:1;fill-rule:nonzero;stroke:none"
           d="m 180.9766,615.1147 -50.5082,47.3595" /><g
           transform="matrix(0.8,0,0,-0.8,-70.5464,627.6286)"
           id="g170"><path
             id="path172"
             style="fill:none;stroke:#000000;stroke-width:1.66672206;stroke-linecap:round;stroke-linejoin:round;stroke-miterlimit:10;stroke-dasharray:none;stroke-opacity:1"
             d="m 314.4037,15.64232 -63.1353,-59.1993" /></g><path
           id="path174"
           style="fill:#fcaf3e;fill-opacity:1;fill-rule:nonzero;stroke:none"
           d="m 175.4622,643.8333 94.3724,17.2945" /><g
           transform="matrix(0.8,0,0,-0.8,-70.5464,627.6286)"
           id="g176"><path
             id="path178"
             style="fill:none;stroke:#fcaf3e;stroke-width:2;stroke-linecap:butt;stroke-linejoin:miter;stroke-miterlimit:4;stroke-dasharray:none;stroke-opacity:1"
             d="M 307.5107,-20.25596 425.4762,-41.87405" /></g><path
           id="path180"
           style="fill:#fcaf3e;fill-opacity:1;fill-rule:evenodd;stroke:none"
           d="m 171.8299,643.1677 4.8685,4.1454 1.1536,-6.2951 z" /><g
           transform="matrix(-0.6295166,-0.1153638,-0.1153638,0.6295166,175.4622,643.8333)"
           id="g182"><path
             id="path184"
             style="fill:none;stroke:#fcaf3e;stroke-width:1.33333302;stroke-linecap:butt;stroke-linejoin:miter;stroke-miterlimit:4;stroke-dasharray:none;stroke-opacity:1"
             d="M 5.77,0 -2.88,5 V -5 Z" /></g><path
           id="path186"
           style="fill:#fcaf3e;fill-opacity:1;fill-rule:nonzero;stroke:none"
           d="m 275.5967,661.3521 c 0,-1.9235 -1.5593,-3.4828 -3.4828,-3.4828 -1.9234,0 -3.4828,1.5593 -3.4828,3.4828 0,1.9235 1.5594,3.4828 3.4828,3.4828 1.9235,0 3.4828,-1.5593 3.4828,-3.4828 z" /><g
           transform="matrix(0.8,0,0,-0.8,-70.5464,627.6286)"
           id="g188"><path
             id="path190"
             style="fill:none;stroke:#fcaf3e;stroke-width:1;stroke-linecap:butt;stroke-linejoin:miter;stroke-miterlimit:4;stroke-dasharray:none;stroke-opacity:1"
             d="m 432.6789,-42.15442 c 0,2.40436 -1.9491,4.35348 -4.3535,4.35348 -2.4044,0 -4.3535,-1.94912 -4.3535,-4.35348 0,-2.40436 1.9491,-4.35348 4.3535,-4.35348 2.4044,0 4.3535,1.94912 4.3535,4.35348 z" /></g><path
           id="path192"
           style="fill:#fcaf3e;fill-opacity:1;fill-rule:nonzero;stroke:none"
           d="m 71.84672,624.6194 76.34908,14.0785" /><g
           transform="matrix(0.8,0,0,-0.8,-70.5464,627.6286)"
           id="g194"><path
             id="path196"
             style="fill:none;stroke:#fcaf3e;stroke-width:2;stroke-linecap:butt;stroke-linejoin:miter;stroke-miterlimit:4;stroke-dasharray:none;stroke-opacity:1"
             d="M 177.9914,3.761455 273.4278,-13.83674" /></g><path
           id="path198"
           style="fill:#fcaf3e;fill-opacity:1;fill-rule:evenodd;stroke:none"
           d="m 68.21514,623.9498 4.86393,4.1508 1.16058,-6.2939 z" /><g
           transform="matrix(-0.6293891,-0.1160576,-0.1160576,0.6293891,71.84672,624.6194)"
           id="g200"><path
             id="path202"
             style="fill:none;stroke:#fcaf3e;stroke-width:1.33333302;stroke-linecap:butt;stroke-linejoin:miter;stroke-miterlimit:4;stroke-dasharray:none;stroke-opacity:1"
             d="M 5.77,0 -2.88,5 V -5 Z" /></g><path
           id="path204"
           style="fill:#fcaf3e;fill-opacity:1;fill-rule:nonzero;stroke:none"
           d="M 276.4175,653.7166 366.7222,521.764" /><g
           transform="matrix(0.8,0,0,-0.8,-70.5464,627.6286)"
           id="g206"><path
             id="path208"
             style="fill:none;stroke:#fcaf3e;stroke-width:2;stroke-linecap:butt;stroke-linejoin:miter;stroke-miterlimit:4;stroke-dasharray:none;stroke-opacity:1"
             d="M 433.7049,-32.61002 546.5858,132.3307" /></g><path
           id="path210"
           style="fill:#fcaf3e;fill-opacity:1;fill-rule:evenodd;stroke:none"
           d="m 274.3319,656.764 5.7675,-2.7613 -5.2816,-3.6145 z" /><g
           transform="matrix(-0.361456,0.5281568,0.5281568,0.361456,276.4175,653.7166)"
           id="g212"><path
             id="path214"
             style="fill:none;stroke:#fcaf3e;stroke-width:1.33333302;stroke-linecap:butt;stroke-linejoin:miter;stroke-miterlimit:4;stroke-dasharray:none;stroke-opacity:1"
             d="M 5.77,0 -2.88,5 V -5 Z" /></g></g></g></g></svg>